<svg enable-background="new 0 0 64 64" height="64" viewBox="0 0 64 64" width="64" xmlns="http://www.w3.org/2000/svg"><path d="m24.782 55.605 7.219-4.025 7.304 3.973 20.695-11.826-28-16-28 16 20.697 11.827z" opacity=".25"/><path d="m10 38.5h2v5h-2z" fill="#44484e"/><path d="m39 41.5h2v10h-2z" fill="#44484e"/><path d="m26.001 42.554-17.001-9.715 23-13.143 23 13.143-17 9.714z" fill="#43484c"/><path d="m55 32.839v10l-13.914 8.184.008-10.238z" fill="#6e7780"/><path d="m26 52.839v-10l-13.905-8.18-.041 10.21z" fill="#6e7780"/><path d="m26.001 46.369c.029-.886.645-1.779 1.839-2.468 2.388-1.379 6.186-1.421 8.483-.095 1.149.663 1.705 1.543 1.676 2.43l.001-.789-.001-11.211c.029-.887-.526-1.767-1.676-2.43-2.298-1.326-6.096-1.284-8.483.095-1.194.688-1.81 1.582-1.839 2.468l-.001 3.47v7.714z" fill="#292c2d"/><g fill="none" stroke="#97a5b2" stroke-linejoin="round" stroke-miterlimit="10" stroke-width="2"><path d="m26.001 42.554-17.001-9.715 23-13.143 23 13.143-17 9.714" stroke-linecap="round"/><path d="m55 32.839-17 9.714" stroke-linecap="round"/><path d="m9 32.839v10" stroke-linecap="round"/><path d="m26.001 46.369c.029-.886.645-1.779 1.839-2.468 2.388-1.379 6.186-1.421 8.483-.095 1.149.663 1.705 1.543 1.676 2.43"/><path d="m55 32.839v10l-17 9.608-.001-18.211c.029-.887-.526-1.767-1.676-2.43-2.298-1.326-6.096-1.284-8.483.095-1.194.688-1.81 1.582-1.839 2.468l-.001 3.47v14.714l-17-9.714"/></g><path d="m31.162 28.5c-2.586 0-4.873-1.648-5.692-4.103l-.028-.086-1.361-5.774c-.34-1.446.411-2.902 1.785-3.465.361-.147.743-.223 1.134-.223.582 0 1.146.173 1.626.481h.15l.322.376c.092.09.178.185.258.285.19.123.927.509 2.644.509 1.779 0 2.501-.414 2.657-.521.555-.688 1.428-1.108 2.346-1.108.429 0 .843.09 1.23.267 1.301.591 2.012 2.021 1.687 3.399l-1.336 5.684-.028.084c-.83 2.51-3.128 4.195-5.718 4.195z" fill="#3d4147"/><path d="m40 4.5v7c0 4.418-5 8-5 8-4.418 0-8-3.582-8-8v-7" fill="#6e7780"/><path d="m40 4.5v7c0 4.418-3.582 8-8 8-4.418 0-8-3.582-8-8v-7" fill="none" stroke="#97a5b2" stroke-linejoin="round" stroke-miterlimit="10" stroke-width="2"/><path d="m37 51.5-8 8h-2v-39h10z" fill="#44484e"/><path d="m34 49.5-4 5v-35h4v6h-1l1 4h-1l1 4h-1l1 4h-1l1 4h-1l1 4h-1z" fill="none" stroke="#97a5b2" stroke-linejoin="round" stroke-miterlimit="10" stroke-width="2"/></svg>