<svg enable-background="new 0 0 64 64" height="64" viewBox="0 0 64 64" width="64" xmlns="http://www.w3.org/2000/svg"><path d="m24.782 57.303 7.219-4.026 7.304 3.973 20.695-11.826-28-16-28 16 20.697 11.827z" opacity=".25"/><path d="m10 40.197h2v5h-2z" fill="#44484e"/><path d="m39 43.197h2v10h-2z" fill="#44484e"/><path d="m26.001 44.251-17.001-9.715 23-13.142 23 13.142-17 9.714z" fill="#43484c"/><path d="m55 34.536v10l-13.914 8.185.008-10.239z" fill="#6e7780"/><path d="m26 54.536v-10l-13.905-8.18-.041 10.21z" fill="#6e7780"/><path d="m26.001 48.066c.029-.886.645-1.779 1.839-2.468 2.388-1.379 6.186-1.421 8.483-.095 1.149.663 1.705 1.543 1.676 2.43l.001-.788-.001-11.211c.029-.887-.526-1.767-1.676-2.43-2.298-1.326-6.096-1.284-8.483.095-1.194.688-1.81 1.582-1.839 2.468l-.001 3.469v7.714z" fill="#292c2d"/><g fill="none" stroke="#97a5b2" stroke-linejoin="round" stroke-miterlimit="10" stroke-width="2"><path d="m26.001 44.251-17.001-9.715 23-13.142 23 13.142-17 9.714" stroke-linecap="round"/><path d="m55 34.536-17 9.714" stroke-linecap="round"/><path d="m9 34.536v10" stroke-linecap="round"/><path d="m26.001 48.066c.029-.886.645-1.779 1.839-2.468 2.388-1.379 6.186-1.421 8.483-.095 1.149.663 1.705 1.543 1.676 2.43"/><path d="m55 34.536v10l-17 9.608-.001-18.211c.029-.887-.526-1.767-1.676-2.43-2.298-1.326-6.096-1.284-8.483.095-1.194.688-1.81 1.582-1.839 2.468l-.001 3.47v14.714l-17-9.714"/></g><path d="m32 9.097-3-2.399v42.839c0 1.657 1.343 3 3 3s3-1.343 3-3v-42.84z" fill="#44484e"/><path d="m32 48.536v-41 41 1s0-.448 0-1z" style="fill:none;stroke:#97a5b2;stroke-width:2;stroke-linecap:round;stroke-linejoin:round;stroke-miterlimit:10"/></svg>