<svg enable-background="new 0 0 64 64" height="64" viewBox="0 0 64 64" width="64" xmlns="http://www.w3.org/2000/svg"><path d="m12 50.75h42v2h-42z" fill="#6e7780"/><path d="m58 51.75-9-26h-34l-9 26v5h52z" opacity=".25"/><path d="m55 49.75h-46l6-24h34z" fill="#43484c"/><path d="m19 25.75-5 24" fill="none" stroke="#292c2d" stroke-miterlimit="10" stroke-width="2"/><path d="m17.521 37.546 2.5-12 1.958.408-2.416 11.592z" fill="#292c2d"/><path d="m55 49.75h-46l6-24h34z" style="fill:none;stroke:#97a5b2;stroke-width:2;stroke-linecap:round;stroke-linejoin:round;stroke-miterlimit:10"/><path d="m9 49.75v4h46v-4" style="fill:none;stroke:#97a5b2;stroke-width:2;stroke-linecap:round;stroke-linejoin:round;stroke-miterlimit:10"/><path d="m32 9.649-3-2.399v29.839c0 1.657 1.343 3 3 3 1.656 0 3-1.343 3-3v-29.839z" fill="#44484e"/><g style="fill:none;stroke-width:2;stroke-miterlimit:10;stroke:#97a5b2;stroke-linecap:round;stroke-linejoin:round"><path d="m32 36.089v-28 28 1s0-.448 0-1z"/><path d="m32 36.75v9"/><path d="m32 36.75h-10"/><path d="m45 36.75h-13"/><path d="m32 36.75-7.071-7.071"/><path d="m39.07 43.821-7.07-7.071"/><path d="m32 36.75-9 9"/><path d="m39 29.75-7 7"/></g><circle cx="32" cy="36.75" fill="#3d4147" r="5"/><circle cx="32" cy="36.75" fill="#97a5b2" r="3"/></svg>