<svg enable-background="new 0 0 64 64" height="64" viewBox="0 0 64 64" width="64" xmlns="http://www.w3.org/2000/svg"><path d="m32 59 26-16v-2l-26.049-16-25.951 16v2z" opacity=".25"/><path d="m32 21-23 14 23 14 23-14z" fill="#43484c"/><path d="m32 21-23 14 23 14 23-14z" fill="#43484c"/><path d="m12.072 36.87v6l19.928 12.13v-6z" fill="#6e7780"/><path d="m34.966 47.194v6l20.034-12.194v-6z" fill="#6e7780"/><path d="m32 21-23 14 23 14 23-14z" style="fill:none;stroke:#97a5b2;stroke-width:2;stroke-linecap:round;stroke-linejoin:round;stroke-miterlimit:10"/><path d="m9 35v6l23 14 23-14v-6" style="fill:none;stroke:#97a5b2;stroke-width:2;stroke-linecap:round;stroke-linejoin:round;stroke-miterlimit:10"/><path d="m32 56c-.18 0-.36-.049-.52-.146l-23-14c-.298-.181-.48-.505-.48-.854v-6c0-.553.447-1 1-1s1 .447 1 1v5.438l22 13.391 22-13.391v-5.438c0-.553.447-1 1-1s1 .447 1 1v6c0 .349-.182.673-.48.854l-23 14c-.16.097-.34.146-.52.146z" fill="#97a5b2"/><path d="m31.162 29c-2.586 0-4.873-1.648-5.692-4.103l-.028-.086-1.361-5.774c-.34-1.446.411-2.902 1.785-3.465.361-.147.743-.223 1.134-.223.582 0 1.146.173 1.626.481h.15l.322.376c.092.09.178.185.258.285.19.123.927.509 2.644.509 1.779 0 2.501-.414 2.657-.521.555-.688 1.428-1.108 2.346-1.108.429 0 .843.09 1.23.267 1.301.591 2.012 2.021 1.687 3.399l-1.336 5.684-.028.084c-.83 2.509-3.128 4.195-5.718 4.195z" fill="#3d4147"/><path d="m40 5v7c0 4.418-5 8-5 8-4.418 0-8-3.582-8-8v-7" fill="#6e7780"/><path d="m36.131 19.212.174 3.657c-.409 1.226-2.143 2.131-2.143 2.131-1.291 0-2.438-.826-2.846-2.052l-.682-3.599s-.336.95 3.664.95 1.833-1.087 1.833-1.087z" fill="#6e7780"/><path d="m37 18.35-1.316 5.599c-.409 1.225-1.555 2.051-2.846 2.051h-1.676c-1.291 0-2.438-.826-2.846-2.052l-1.316-5.598s1 1.65 5 1.65 5-1.65 5-1.65z" fill="none" stroke="#97a5b2" stroke-linejoin="round" stroke-miterlimit="10" stroke-width="2"/><path d="m40 5v7c0 4.418-3.582 8-8 8-4.418 0-8-3.582-8-8v-7" fill="none" stroke="#97a5b2" stroke-linejoin="round" stroke-miterlimit="10" stroke-width="2"/><path d="m32 36c-.553 0-1-.447-1-1v-9h2v9c0 .553-.447 1-1 1z" fill="#97a5b2"/><g style="fill:none;stroke:#97a5b2;stroke-width:2;stroke-linecap:round;stroke-linejoin:round;stroke-miterlimit:10"><path d="m32 48.99v6"/><path d="m40.934 41.023c-2.635 1.521-6.988 1.473-9.726-.107s-2.821-4.095-.188-5.615l.936-.553"/><path d="m41.064 40.996c1.374-.793 3.384-.983 5-.559"/></g></svg>