<svg enable-background="new 0 0 64 64" height="64" viewBox="0 0 64 64" width="64" xmlns="http://www.w3.org/2000/svg"><path d="m14 57.5h-10v-25l7-14 3 21z" opacity=".25"/><path d="m60 57.5h-10v-18l3-21 7 14z" opacity=".25"/><path d="m53.23 18.422 3.77 15.078h-50l3.745-14.98" fill="#43484c"/><path d="m53.23 18.422 1.02 4.078 2.75 11h-50l2.75-11 .995-3.98" style="fill:none;stroke:#97a5b2;stroke-width:2;stroke-linecap:round;stroke-linejoin:round;stroke-miterlimit:10"/><path d="m7 33.5v6h50v-6" style="fill:none;stroke:#97a5b2;stroke-width:2;stroke-linecap:round;stroke-linejoin:round;stroke-miterlimit:10"/><path d="m27 21.5c0-2.762 2.238-5 5-5s5 2.238 5 5" fill="#3d4147"/><path d="m10 34.5h46v4h-46z" fill="#6e7780"/><path d="m53 39.5h4v15h-4z" fill="#6e7780"/><path d="m7 39.5h4v15h-4z" style="fill:none;stroke:#97a5b2;stroke-width:2;stroke-linecap:round;stroke-linejoin:round;stroke-miterlimit:10"/><path d="m53 39.5h4v15h-4z" style="fill:none;stroke:#97a5b2;stroke-width:2;stroke-linecap:round;stroke-linejoin:round;stroke-miterlimit:10"/><path d="m14 40.5h36v2h-36z" opacity=".25"/><path d="m19 21.5c0-7.732 6.268-14 14-14s14 6.268 14 14" fill="#6e7780"/><path d="m16 22.5c0-8.837 7.163-16 16-16s16 7.163 16 16" style="fill:none;stroke:#97a5b2;stroke-width:2;stroke-linecap:round;stroke-linejoin:round;stroke-miterlimit:10"/><path d="m22 21.5c0-5.522 4.478-10 10-10 3.411 0 6.423 1.707 8.228 4.314" style="fill:none;stroke:#97a5b2;stroke-width:2;stroke-linecap:round;stroke-linejoin:round;stroke-miterlimit:10"/><path d="m29 22.5c0-1.657 1.343-3 3-3s3 1.343 3 3" fill="#292c2d"/><g style="fill:none;stroke:#97a5b2;stroke-width:2;stroke-linecap:round;stroke-linejoin:round;stroke-miterlimit:10"><path d="m29 22.5c0-1.657 1.343-3 3-3s3 1.343 3 3"/><path d="m14 22.5h36"/><path d="m8 29.5h48"/></g></svg>