<svg enable-background="new 0 0 64 64" height="64" viewBox="0 0 64 64" width="64" xmlns="http://www.w3.org/2000/svg"><path d="m14 58.5h-10v-25l10-23v30z" opacity=".25"/><path d="m60 58.5h-10v-18l1-30 9 23z" opacity=".25"/><path d="m50 10.5h1l6 24h-50l6-24h1.667" fill="#43484c"/><path d="m50 10.5h1l6 24h-50l6-24h1.667" style="fill:none;stroke:#97a5b2;stroke-width:2;stroke-linecap:round;stroke-linejoin:round;stroke-miterlimit:10"/><path d="m7 34.5v6h50v-6" style="fill:none;stroke:#97a5b2;stroke-width:2;stroke-linecap:round;stroke-linejoin:round;stroke-miterlimit:10"/><path d="m27 22.5c0-2.762 2.238-5 5-5s5 2.238 5 5" fill="#3d4147"/><path d="m27 22.5c0-2.762 2.238-5 5-5s5 2.238 5 5" style="fill:none;stroke:#97a5b2;stroke-width:2;stroke-linecap:round;stroke-linejoin:round;stroke-miterlimit:10"/><path d="m44.604 19.302c-.213-.842-.508-1.65-.877-2.418l1.764-1.018c.807-.466 1.797-.3 2.42.334l.063-.035-1.65-2.857-2.012.121c-.057-.06-.121-.111-.182-.169l-2.818.169c-.598-.613-1.256-1.168-1.963-1.655v-.001l1.018-1.763c.553-.957 1.775-1.284 2.732-.732l-1.863-1.076-2.703 1.784-.09-.024c-.73-.2-1.488-.331-2.266-.401l-.645.426-.09-.024c-.788-.218-1.604-.361-2.442-.425v-.002-2.036l-1.198 2.396c-.842.213-1.65.508-2.418.876l-.547-.947-.035.071c-.842.213-1.65.508-2.418.876l-.004.002c.001-.001.003-.001.004-.002l-.67-1.16.215 3.576c-.613.598-1.168 1.256-1.655 1.964h-.001l-1.763-1.019c-.101-.058-.189-.127-.276-.198-.341.388-.666.79-.96 1.217h-.001l-1.245-.72-.25.434 2.708 4.102c-.229.814-.381 1.661-.447 2.532h-.002-2.037c-.339 0-.652-.092-.932-.24-.008.081-.024.159-.03.24h-.002-1.036v1h31v-1z" fill="#6e7780"/><path d="m15 22.5v-3c0 1.104.896 2 2 2h2.036.002c.066-.871.218-1.718.447-2.532l-2.708-4.102 2-3.464c-.552.956-.225 2.18.732 2.731l1.763 1.019h.001c.487-.708 1.042-1.366 1.655-1.964l-.295-4.911 3.464-2c-.956.553-1.284 1.775-.731 2.732l1.018 1.763-.004.002c.769-.369 1.578-.665 2.422-.878l2.198-4.396h4c-1.105 0-2 .896-2 2v2.036.002c.838.063 1.654.207 2.441.423l.09.024 4.102-2.708 3.465 2c-.957-.552-2.18-.225-2.732.732l-1.018 1.763v.001c.707.487 1.365 1.042 1.963 1.655l4.912-.295 2 3.464c-.553-.956-1.775-1.284-2.732-.731l-1.764 1.018c.369.768.664 1.576.877 2.418l4.396 2.198v1" style="fill:none;stroke:#97a5b2;stroke-width:2;stroke-linecap:round;stroke-linejoin:round;stroke-miterlimit:10"/><path d="m14 23.5h36" style="fill:none;stroke:#97a5b2;stroke-width:2;stroke-linecap:round;stroke-linejoin:round;stroke-miterlimit:10"/><path d="m10 35.5h46v4h-46z" fill="#6e7780"/><path d="m53 40.5h4v15h-4z" fill="#6e7780"/><path d="m7 40.5h4v15h-4z" style="fill:none;stroke:#97a5b2;stroke-width:2;stroke-linecap:round;stroke-linejoin:round;stroke-miterlimit:10"/><path d="m53 40.5h4v15h-4z" style="fill:none;stroke:#97a5b2;stroke-width:2;stroke-linecap:round;stroke-linejoin:round;stroke-miterlimit:10"/><path d="m14 41.5h36v2h-36z" opacity=".25"/></svg>