<?xml version="1.0" encoding="utf-8"?>
<!-- Generator: Adobe Illustrator 16.0.0, SVG Export Plug-In . SVG Version: 6.00 Build 0)  -->
<!DOCTYPE svg PUBLIC "-//W3C//DTD SVG 1.1//EN" "http://www.w3.org/Graphics/SVG/1.1/DTD/svg11.dtd">
<svg version="1.1" xmlns="http://www.w3.org/2000/svg" xmlns:xlink="http://www.w3.org/1999/xlink" x="0px" y="0px"
	 width="595.28px" height="595.28px" viewBox="0 0 595.28 595.28" enable-background="new 0 0 595.28 595.28" xml:space="preserve">
<g id="Ebene_1" display="none">
</g>
<g id="Ebene_2">
	<path fill="none" stroke="#FFFFFF" stroke-width="3" stroke-linecap="round" stroke-linejoin="round" d="M126.902,281.811
		c4.004-2.835,7.411-6.431,10.027-10.581c1.315-2.084,2.398-4.247,3.282-6.548c0.439-1.144,0.82-2.303,1.145-3.485
		c0.325-1.179,0.685-2.343,1.122-3.487c0.063-2.496,0.367-7.797,2.95-9.657c-2.478-1.317-3.946-3.971-3.747-6.771
		c0.098-1.371,0.591-2.683,1.42-3.778c0.419-0.553,0.894-1.02,1.452-1.432c0.662-0.486,1.1-0.596,1.908-0.605
		c0.301-0.678,0.858-1.135,1.493-1.455c0.334-0.168,1.813-0.747,2.158-0.884c1.382-0.548,2.768-1.086,4.158-1.614
		c2.781-1.053,5.578-2.065,8.39-3.033c5.627-1.937,11.302-3.696,17.038-5.28c1.508,0.219,3.017,0.436,4.526,0.649
		c1.508,0.213,3.02,0.415,4.527,0.64c3.017,0.45,6.015,0.988,9,1.615c5.983,1.256,11.841,2.851,17.636,4.8
		c37.613-14.506,75.227-29.013,112.841-43.518c1.179-0.455,2.356-0.91,3.536-1.364c1.176-0.454,2.361-0.885,3.549-1.311
		c2.374-0.852,4.758-1.674,7.151-2.468c4.785-1.588,9.601-3.056,14.459-4.408c9.729-2.709,19.529-4.929,29.479-6.668
		c2.462-0.43,4.929-0.831,7.4-1.2c2.77-0.415,4.686-0.719,7.495-0.82c2.545-0.092,5.054,0.027,7.579,0.36
		c1.253,0.165,2.494,0.368,3.726,0.656c1.421,0.333,2.247,0.637,3.627,1.101c1.111,0.375,2.224,0.75,3.336,1.124
		c1.26,0.424,2.072,0.714,3.275,1.283c2.17,1.025,4.095,2.303,5.901,3.88c4.055,3.543,7.063,8.224,9.171,13.086
		c1.232,0.404,2.294,0.989,3.293,1.817c1.051,0.871,1.708,1.736,2.413,2.887c17.664-6.375,35.326-12.748,52.99-19.123
		c1.823-2.893,4.993-3.729,8.046-2.251c2.786,1.348,4.733,4.197,5.669,6.988c0.942,2.805,1.095,6.224-0.219,9.012
		c-1.419,3.012-4.317,4.594-7.599,3.509c-16.274,7.422-32.549,14.842-48.824,22.264c-0.076,0.521-0.197,1.028-0.351,1.531
		c-0.153,0.51-0.309,1.02-0.462,1.53c-0.309,1.019-0.617,2.038-0.926,3.057c-0.617,2.039-1.233,4.078-1.852,6.116
		c-0.615,2.038-1.233,4.078-1.851,6.116c-0.309,1.02-0.617,2.039-0.926,3.058c-0.154,0.51-0.309,1.019-0.464,1.529
		c-0.153,0.508-0.299,1.019-0.462,1.524c-0.659,2.05-1.958,3.835-3.707,5.093c-0.429,0.308-0.874,0.579-1.346,0.816
		c-0.474,0.239-0.953,0.468-1.429,0.701c-0.955,0.468-1.909,0.936-2.865,1.404c-3.82,1.873-7.64,3.745-11.46,5.617
		c-15.278,7.489-30.557,14.978-45.835,22.467c-30.571,14.985-61.142,29.971-91.711,44.959c2.762,7.162,3.112,15.09,2.286,22.539
		c16.122,8.223,31.116,16.25,46.751,25.375c15.331,8.947,30.3,18.395,44.885,28.521c2.524,1.754,5.037,3.527,7.535,5.318
		c1.262,0.908,2.521,1.818,3.776,2.734c0.631,0.461,1.261,0.925,1.89,1.387c0.356,0.264,0.711,0.528,1.048,0.82
		c2.345,2.027,3.776,4.723,4.524,7.664c0.96,3.782,0.773,7.798,0.093,11.558c-0.871,4.814-2.639,9.751-4.723,14.146
		c-1.948,4.112-4.381,8.182-7.173,11.783c-2.653,3.423-5.556,6.391-9.145,8.871c-3.992,2.763-8.673,4.774-13.565,5.33
		c-3.874,0.439-8.016-0.04-11.444-2.2c-14.414-8.065-32.691-20.546-46.103-30.104c-14.615-10.411-29.954-21.96-43.984-33.15
		c0.35,10.064-0.781,20.125-3.354,29.859c-0.699,2.644-1.824,5.158-3.331,7.44c-11.621,17.6-28.942,30.667-49.056,37.008
		c-0.491-0.323-0.981-0.647-1.472-0.971c0.146-0.222,0.292-0.442,0.437-0.662c0.336-0.509,0.523-1.104,0.54-1.715
		c0.075-2.755,0.149-5.511,0.224-8.265c-5.8,2.565-11.716,4.811-17.753,6.727c-19.163,6.077-39.542,8.813-61.135,8.989
		c-26.563,0.216-54.967-3.444-76.231-17.213c-10.078-6.525-18.554-15.322-22.521-25.961c-0.734-5.588-0.781-10.813-0.141-15.673
		c0.178-3.093,0.649-6.069,1.567-9.04c0.922-2.979,2.248-5.66,3.97-8.249c3.38-5.085,8.056-9.418,12.719-13.196
		c2.384-1.932,4.819-3.788,7.32-5.565c2.501-1.778,5.058-3.461,7.693-5.034c5.299-3.163,10.777-5.792,16.542-7.987
		c-0.175-2.661-0.35-5.32-0.526-7.981c-0.744-1.085-1.384-2.21-1.915-3.414c-0.12-2.011-0.24-4.021-0.36-6.033
		c0.12-0.598,0.24-1.196,0.36-1.794c-0.359-4.957-0.716-9.913-1.074-14.87c-0.559-7.719,2.465-15.266,8.199-20.466
		c9.013-8.173,18.026-16.345,27.04-24.518c0.133-0.554,0.266-1.108,0.398-1.662c-0.05-1.554,1.047-2.879,2.093-3.778
		c1.109-0.952,2.487-1.723,3.806-2.314C120.619,283.443,124.4,282.306,126.902,281.811z"/>
	<path fill="none" stroke="#FFFFFF" stroke-linecap="round" stroke-linejoin="round" d="M142.508,283.843
		c1.146,0.353,2.23,0.785,3.259,1.416c0.741,0.456,1.458,1.026,1.97,1.752c0.548,0.779,0.796,1.66,0.61,2.617
		c-0.224,1.158-0.994,2.11-1.814,2.86c-2.852,2.606-7.796,4.046-11.351,4.693c-3.961,0.722-8.371,0.902-12.376,0.358
		c-2.001-0.271-4.129-0.751-5.991-1.586c-1.083-0.486-2.196-1.14-3-2.057c-0.564-0.644-0.956-1.406-0.985-2.291"/>
	
		<line fill="none" stroke="#FFFFFF" stroke-linecap="round" stroke-linejoin="round" x1="80.709" y1="372.344" x2="81.526" y2="384.759"/>
	<path fill="none" stroke="#FFFFFF" stroke-linecap="round" stroke-linejoin="round" d="M80.183,364.362
		c5.202,7.584,15.137,12.483,23.112,15.46c8.646,3.228,18.263,5.422,27.326,6.916c2.188,0.272,4.32,0.261,6.505-0.036
		c1.078-0.147,2.134-0.384,3.193-0.622c1.06-0.239,2.117-0.482,3.173-0.731c4.231-0.996,8.439-2.068,12.629-3.221
		c8.389-2.31,16.663-4.92,24.855-7.848"/>
	
		<line fill="none" stroke="#FFFFFF" stroke-linecap="round" stroke-linejoin="round" x1="112.433" y1="293.267" x2="109.76" y2="304.408"/>
	<path fill="none" stroke="#FFFFFF" stroke-linecap="round" stroke-linejoin="round" d="M142.508,283.843
		c1.229,1.173,1.264,2.552,0.22,3.861c-0.407,0.51-0.883,0.913-1.412,1.285c-0.663,0.466-1.363,0.84-2.1,1.171
		c-2.551,1.146-5.63,1.765-8.385,1.978c-2.739,0.212-5.909,0.077-8.585-0.704c-0.789-0.23-1.542-0.512-2.265-0.911
		c-0.56-0.308-1.058-0.654-1.489-1.139c-1.145-1.292-0.844-2.688,0.237-3.872"/>
	<path fill="none" stroke="#FFFFFF" stroke-linecap="round" stroke-linejoin="round" d="M126.902,281.811
		c2.592-0.512,5.417-0.692,8.054-0.479c2.222,0.179,5.748,0.787,7.552,2.511"/>
	<path fill="none" stroke="#FFFFFF" stroke-linecap="round" stroke-linejoin="round" d="M142.478,257.709
		c1.087-2.857,2.497-5.363,4.229-7.519"/>
	<path fill="none" stroke="#FFFFFF" stroke-linecap="round" stroke-linejoin="round" d="M146.462,235.465
		c2.302-0.026,4.475,1.064,5.83,2.925"/>
	<path fill="none" stroke="#FFFFFF" stroke-linecap="round" stroke-linejoin="round" d="M147.745,248.81
		c-0.828-0.12-1.578-0.366-2.317-0.758"/>
	<path fill="none" stroke="#FFFFFF" stroke-linecap="round" stroke-linejoin="round" d="M215.388,230.903
		c12.185,4.1,23.816,9.693,34.626,16.654"/>
	<path fill="none" stroke="#FFFFFF" stroke-linecap="round" stroke-linejoin="round" d="M405.648,200.078
		c5.33-1.937,10.66-3.874,15.99-5.811c2.666-0.968,5.33-1.937,7.996-2.905c0.298-0.108,1.718-0.63,2.02-0.729
		c0.674-0.221,1.354-0.366,2.06-0.441c1.416-0.151,2.847,0,4.2,0.443"/>
	<path fill="none" stroke="#FFFFFF" stroke-linecap="round" stroke-linejoin="round" d="M511.056,184.968
		c2.491-0.927,4.791-1.713,7.102-2.472c1.938-0.636,3.882-1.253,5.836-1.841c1.654-0.498,3.314-0.975,4.983-1.424
		c1.17-0.315,2.344-0.616,3.522-0.901c1.34-0.324,2.685-0.627,4.034-0.908c1.281-0.267,2.567-0.514,3.855-0.748
		c1.303-0.237,2.609-0.461,3.915-0.676c1.337-0.22,2.676-0.429,4.016-0.622c1.38-0.198,2.763-0.378,4.147-0.537
		c1.441-0.166,2.884-0.309,4.33-0.428c1.521-0.124,3.042-0.221,4.566-0.29c3.35-0.151,6.703-0.163,10.053-0.049"/>
	<path fill="none" stroke="#FFFFFF" stroke-linecap="round" stroke-linejoin="round" d="M496.61,176.217
		c0.586-0.211,1.173-0.423,1.761-0.635c0.292-0.106,0.585-0.213,0.879-0.317c0.297-0.108,0.589-0.188,0.909-0.2
		c0.544-0.019,1.194,0.096,1.712,0.249c0.65,0.193,1.24,0.472,1.814,0.833c2.113,1.33,3.62,3.586,4.418,5.872
		c0.804,2.298,1.02,4.978,0.283,7.356c-0.072,0.236-0.155,0.469-0.248,0.698c-0.06,0.148-0.124,0.292-0.206,0.43
		c-0.146,0.249-0.321,0.458-0.542,0.644c-0.219,0.184-0.459,0.311-0.716,0.428c-0.253,0.116-0.509,0.231-0.762,0.348
		c-1.136,0.518-2.27,1.035-3.405,1.552"/>
	<path fill="none" stroke="#FFFFFF" stroke-linecap="round" stroke-linejoin="round" d="M443.62,195.339
		c-0.131-0.207-0.263-0.414-0.394-0.621"/>
	<path fill="none" stroke="#FFFFFF" stroke-linecap="round" stroke-linejoin="round" d="M453.684,215.739
		c0.283-1.926,0.003-3.895-0.809-5.665c-0.2-0.437-0.433-0.853-0.69-1.259c-0.261-0.412-0.522-0.823-0.784-1.234
		c-0.519-0.816-1.037-1.633-1.557-2.449c-2.074-3.264-4.149-6.528-6.224-9.792"/>
	<path fill="none" stroke="#FFFFFF" stroke-linecap="round" stroke-linejoin="round" d="M288.039,321.258
		c-1.684-4.365-4.2-8.278-7.652-11.48c-3.106-2.882-6.764-4.989-10.768-6.331c-8.501-2.851-17.778-2.044-26.005,0.837
		c-8.376,2.932-15.891,8.04-22.046,14.33c-6.18,6.316-11.065,13.89-14.428,22.039c-3.343,8.102-5.276,17.021-5.255,25.825
		c0.02,8.559,1.92,17.854,7.138,25.065c2.449,3.383,5.529,6.147,9.254,8.084c4.248,2.209,8.869,3.113,13.593,3.13
		c3.908,0.014,7.8-0.58,11.572-1.528c4.784-1.201,9.448-2.986,13.908-5.053"/>
	<path fill="none" stroke="#FFFFFF" stroke-linecap="round" stroke-linejoin="round" d="M267.397,332.039
		c4.77,2.631,12.712,6.546,22.928,11.758"/>
	<path fill="none" stroke="#FFFFFF" stroke-linecap="round" stroke-linejoin="round" d="M395.294,407.229
		c-1.059-0.761-2.238-1.37-3.53-1.818c-7.093-2.468-17.528-0.102-26.241,7.505c-8.713,7.607-15.704,20.46-17.529,31.074
		c-1.656,9.64,0.945,17.434,6.784,21.115"/>
	<path fill="none" stroke="#FFFFFF" stroke-linecap="round" stroke-linejoin="round" d="M395.547,407.418
		c-0.083-0.063-0.168-0.127-0.253-0.188"/>
	<path fill="none" stroke="#FFFFFF" stroke-linecap="round" stroke-linejoin="round" d="M236.645,377.528
		c6.72,6.604,16.603,15.116,28.046,24.323"/>
	<path fill="none" stroke="#FFFFFF" stroke-linecap="round" stroke-linejoin="round" d="M208.679,464.547
		c0.104-3.837,0.208-7.676,0.312-11.513c0.025-0.918-0.336-1.802-0.996-2.44c-13.812-13.371-27.623-26.742-41.434-40.113"/>
	<path fill="none" stroke="#FFFFFF" stroke-linecap="round" stroke-linejoin="round" d="M208.906,456.152
		c-7.75,3.441-15.643,6.285-23.812,8.563c-8.168,2.279-16.405,3.942-24.801,5.11c-8.389,1.166-16.78,1.812-25.241,2.048
		c-4.196,0.117-8.387,0.138-12.583,0.052c-4.252-0.085-8.493-0.283-12.732-0.613c-16.457-1.285-33.829-4.678-48.835-12.33
		c-3.811-1.943-7.425-4.132-10.881-6.659c-3.404-2.491-6.527-5.21-9.39-8.316c-1.407-1.526-2.722-3.116-3.942-4.8
		c-1.143-1.575-2.417-3.528-3.276-5.286c-1.898-3.883-2.764-8.189-2.515-12.504"/>
	<path fill="none" stroke="#FFFFFF" stroke-linecap="round" stroke-linejoin="round" d="M571.671,166.521
		c1.337,0.814,2.131,2.286,2.078,3.85s-0.945,2.978-2.333,3.701"/>
	<path fill="none" stroke="#FFFFFF" stroke-linecap="round" stroke-linejoin="round" d="M508.756,177.715
		c16.28-5.702,24.067-7.422,32.692-8.898c8.626-1.475,18.092-2.705,30.223-2.295"/>
	<path fill="none" stroke="#FFFFFF" stroke-linecap="round" stroke-linejoin="round" d="M181.167,424.621
		c-8.607,3.243-18.272,6.471-27.427,7.964c-4.88,0.794-9.316,1.069-14.252,1.066c-4.778-0.002-9.514-0.23-14.258-0.857
		c-4.763-0.631-9.36-1.629-13.895-3.267c-4.45-1.608-8.78-3.851-12.514-6.805c-1.892-1.498-3.584-3.127-5.066-5.042
		c-0.727-0.938-1.386-1.894-1.888-2.979c-0.513-1.109-0.834-2.227-0.981-3.441c-0.143-1.192-0.075-2.347,0.092-3.528
		c0.168-1.186,0.442-2.322,0.871-3.444c0.867-2.275,2.323-4.22,3.996-5.928"/>
	<path fill="none" stroke="#FFFFFF" stroke-linecap="round" stroke-linejoin="round" d="M184.71,387.85
		c-4.709,7.38-12.663,11.76-20.702,13.951c-8.182,2.23-17.031,2.411-25.339,1.273"/>
	
		<line fill="none" stroke="#FFFFFF" stroke-linecap="round" stroke-linejoin="round" x1="166.562" y1="410.48" x2="158.773" y2="402.94"/>
	
		<line fill="none" stroke="#FFFFFF" stroke-linecap="round" stroke-linejoin="round" x1="167.787" y1="409.215" x2="160.897" y2="402.545"/>
	<polyline fill="none" stroke="#FFFFFF" stroke-linecap="round" stroke-linejoin="round" points="136.349,411.989 138.679,410.456 
		138.644,386.446 	"/>
	<path fill="none" stroke="#FFFFFF" stroke-linecap="round" stroke-linejoin="round" d="M81.526,384.759
		c13.368,16.714,33.428,26.678,54.822,27.23"/>
	
		<line fill="none" stroke="#FFFFFF" stroke-linecap="round" stroke-linejoin="round" x1="136.349" y1="386.794" x2="136.349" y2="411.989"/>
	
		<line fill="none" stroke="#FFFFFF" stroke-linecap="round" stroke-linejoin="round" x1="184.71" y1="371.864" x2="184.71" y2="387.85"/>
	<path fill="none" stroke="#FFFFFF" stroke-linecap="round" stroke-linejoin="round" d="M85.453,333.505
		c5.254-13.946,14.184-26.213,25.843-35.498"/>
	<path fill="none" stroke="#FFFFFF" stroke-linecap="round" stroke-linejoin="round" d="M77.909,354.915
		c4.109,9.439,14.645,15.415,23.164,18.95c9.241,3.835,19.747,6.322,29.548,7.938c2.188,0.272,4.32,0.261,6.505-0.038
		c1.078-0.146,2.134-0.382,3.193-0.621c1.06-0.238,2.117-0.481,3.173-0.73c4.231-0.996,8.439-2.068,12.629-3.221
		c8.389-2.308,16.663-4.922,24.855-7.848"/>
	
		<line fill="none" stroke="#FFFFFF" stroke-linecap="round" stroke-linejoin="round" x1="187.909" y1="363.893" x2="187.909" y2="368.828"/>
	<path fill="none" stroke="#FFFFFF" stroke-linecap="round" stroke-linejoin="round" d="M180.977,374.28
		c4.1-2.473,6.411-4.291,6.933-5.452"/>
	<path fill="none" stroke="#FFFFFF" stroke-linecap="round" stroke-linejoin="round" d="M180.977,369.346
		c4.1-2.473,6.411-4.291,6.933-5.453"/>
	<path fill="none" stroke="#FFFFFF" stroke-linecap="round" stroke-linejoin="round" d="M78.269,353.121
		c4.047,9.163,14.97,14.901,23.196,18.17c9.142,3.63,19.513,6.03,29.156,7.62c1.496,0.186,2.978,0.237,4.481,0.155
		c1.597-0.087,2.879-0.292,4.438-0.641c2.921-0.65,5.832-1.34,8.735-2.065c5.812-1.454,11.577-3.056,17.306-4.808
		c11.474-3.507,22.691-7.578,33.744-12.245"/>
	<path fill="none" stroke="#FFFFFF" stroke-linecap="round" stroke-linejoin="round" d="M109.76,304.408
		c2.354,8.449,25.152,11.747,41.068-12.959"/>
	<path fill="none" stroke="#FFFFFF" stroke-linecap="round" stroke-linejoin="round" d="M143.868,289.346
		c-0.03,0.534-0.238,1.021-0.528,1.454c-0.412,0.611-0.926,1.069-1.513,1.495c-1.02,0.739-2.116,1.253-3.284,1.69
		c-2.264,0.848-4.826,1.339-7.223,1.532c-2.394,0.191-5.011,0.115-7.376-0.376c-1.182-0.245-2.421-0.615-3.496-1.195
		c-0.614-0.332-1.223-0.756-1.671-1.313c-0.328-0.41-0.558-0.881-0.603-1.417"/>
	
		<line fill="none" stroke="#FFFFFF" stroke-linecap="round" stroke-linejoin="round" x1="143.465" y1="285.641" x2="143.868" y2="289.346"/>
	
		<line fill="none" stroke="#FFFFFF" stroke-linecap="round" stroke-linejoin="round" x1="117.774" y1="287.832" x2="118.173" y2="291.217"/>
	<path fill="none" stroke="#FFFFFF" stroke-linecap="round" stroke-linejoin="round" d="M144.712,240.092
		c2.284,0.859,3.46,3.386,2.647,5.687c-0.228,0.643-0.925,0.988-1.575,0.778c-2.399-0.775-3.632-3.426-2.681-5.761
		C143.36,240.164,144.074,239.852,144.712,240.092z"/>
	<path fill="none" stroke="#FFFFFF" stroke-linecap="round" stroke-linejoin="round" d="M217.231,264.625
		c3.199-0.245,6.163,1.682,7.241,4.703c1.076,3.021-0.002,6.389-2.634,8.222c-0.376,0.263-0.756,0.4-1.213,0.442
		c-3.222,0.289-6.233-1.637-7.319-4.685c-1.086-3.047,0.027-6.444,2.707-8.258C216.392,264.793,216.773,264.66,217.231,264.625z"/>
	<path fill="none" stroke="#FFFFFF" stroke-linecap="round" stroke-linejoin="round" d="M215.942,269.231
		c2.284,0.859,3.46,3.387,2.647,5.688c-0.228,0.643-0.925,0.987-1.574,0.778c-2.399-0.777-3.633-3.428-2.682-5.763
		C214.591,269.303,215.304,268.992,215.942,269.231z"/>
	<path fill="none" stroke="#FFFFFF" stroke-linecap="round" stroke-linejoin="round" d="M146.679,250.226
		c2.818-3.509,4.758-7.641,5.658-12.052"/>
	<path fill="none" stroke="#FFFFFF" stroke-linecap="round" stroke-linejoin="round" d="M195.507,306.936
		c-15.918,13.289-35.379,26.374-58.38,39.258"/>
	<path fill="none" stroke="#FFFFFF" stroke-linecap="round" stroke-linejoin="round" d="M206.349,276.146
		c-0.819,11.689-4.433,21.954-10.841,30.79"/>
	<path fill="none" stroke="#FFFFFF" stroke-linecap="round" stroke-linejoin="round" d="M210.906,281.869
		c5.536,1.435,11.326,1.591,16.931,0.458"/>
	<path fill="none" stroke="#FFFFFF" stroke-linecap="round" stroke-linejoin="round" d="M206.533,273.195
		c-1.199,4.374,1.869,8.762,6.388,9.137"/>
	
		<line fill="none" stroke="#FFFFFF" stroke-linecap="round" stroke-linejoin="round" x1="209.507" y1="262.191" x2="206.519" y2="273.247"/>
	
		<line fill="none" stroke="#FFFFFF" stroke-linecap="round" stroke-linejoin="round" x1="240.775" y1="275.068" x2="227.318" y2="280.633"/>
	<path fill="none" stroke="#FFFFFF" stroke-linecap="round" stroke-linejoin="round" d="M214.364,260.615
		c3.235,0.138,6.278,1.438,8.595,3.71c2.313,2.269,3.682,5.286,4.021,8.479c0.113,2.61,0.227,5.219,0.339,7.828
		c2.746,8.636,4.008,17.676,3.732,26.733"/>
	
		<line fill="none" stroke="#FFFFFF" stroke-linecap="round" stroke-linejoin="round" x1="226.56" y1="270.042" x2="257.997" y2="256.945"/>
	<path fill="none" stroke="#FFFFFF" stroke-linecap="round" stroke-linejoin="round" d="M405.648,200.078
		c-10.024,3.707-20.05,7.413-30.075,11.119c-1.722,0.637-3.236,1.732-4.381,3.167c-3.194,4.006-6.389,8.012-9.584,12.018
		c-1.007,1.263-2.302,2.265-3.778,2.921c-32.376,14.413-64.754,28.825-97.129,43.239"/>
	<path fill="none" stroke="#FFFFFF" stroke-linecap="round" stroke-linejoin="round" d="M452.219,208.867
		c-2.869-3.329-5.738-6.658-8.607-9.987c-2.745-3.184-7.179-4.328-11.121-2.871c-16.196,5.989-32.392,11.977-48.589,17.964
		c-1.722,0.637-3.236,1.732-4.382,3.168c-3.194,4.006-6.389,8.011-9.583,12.017c-1.007,1.263-2.302,2.265-3.778,2.921
		c-33.538,14.93-67.077,29.86-100.616,44.791"/>
	
		<line fill="none" stroke="#FFFFFF" stroke-linecap="round" stroke-linejoin="round" x1="357.303" y1="236.021" x2="357.163" y2="276.072"/>
	<path fill="none" stroke="#FFFFFF" stroke-linecap="round" stroke-linejoin="round" d="M349.859,290.948
		c4.283-3.815,6.905-9.154,7.304-14.876"/>
	<path fill="none" stroke="#FFFFFF" stroke-linecap="round" stroke-linejoin="round" d="M298.495,198.853
		c12.662-2.169,25.68,0.428,36.541,7.292s18.793,17.507,22.268,29.876"/>
	<path fill="none" stroke="#FFFFFF" stroke-linecap="round" stroke-linejoin="round" d="M259.552,266.983
		c2.529,11.163,3.771,22.678,3.77,34.118"/>
	
		<line fill="none" stroke="#FFFFFF" stroke-linecap="round" stroke-linejoin="round" x1="265.542" y1="276.87" x2="261.702" y2="278.58"/>
	<path fill="none" stroke="#FFFFFF" stroke-linecap="round" stroke-linejoin="round" d="M250.014,247.558
		c5.457,3.235,8.935,8.983,9.268,15.318"/>
	
		<line fill="none" stroke="#FFFFFF" stroke-linecap="round" stroke-linejoin="round" x1="259.552" y1="266.983" x2="259.25" y2="262.385"/>
	
		<line fill="none" stroke="#FFFFFF" stroke-linecap="round" stroke-linejoin="round" x1="240.775" y1="275.068" x2="259.552" y2="266.983"/>
	
		<line fill="none" stroke="#FFFFFF" stroke-linecap="round" stroke-linejoin="round" x1="240.436" y1="267.241" x2="240.775" y2="275.068"/>
	<path fill="none" stroke="#FFFFFF" stroke-linecap="round" stroke-linejoin="round" d="M229.897,255.252
		c5.904,1.005,10.298,6.005,10.539,11.988"/>
	<path fill="none" stroke="#FFFFFF" stroke-linecap="round" stroke-linejoin="round" d="M240.775,275.068
		c2.746,8.635,4.008,17.676,3.732,26.733"/>
	<path fill="none" stroke="#FFFFFF" stroke-linecap="round" stroke-linejoin="round" d="M167.596,231.284
		c22.836,0.928,44.731,9.352,62.301,23.968"/>
	<path fill="none" stroke="#FFFFFF" stroke-linecap="round" stroke-linejoin="round" d="M118.984,351.816
		c18.745-20.188,41.958-35.708,67.778-45.312"/>
	<path fill="none" stroke="#FFFFFF" stroke-linecap="round" stroke-linejoin="round" d="M129.836,358.86
		c31.101-14.724,60.797-32.248,88.721-52.355"/>
	<path fill="none" stroke="#FFFFFF" stroke-linecap="round" stroke-linejoin="round" d="M152.337,238.174
		c21.288,1.038,41.528,9.541,57.17,24.017"/>
	<path fill="none" stroke="#FFFFFF" stroke-linecap="round" stroke-linejoin="round" d="M152.337,238.174
		c11.296-5.601,22.857-10.205,34.912-13.902"/>
	<path fill="none" stroke="#FFFFFF" stroke-linecap="round" stroke-linejoin="round" d="M209.507,262.191
		c13.693-4.377,27.177-9.248,40.507-14.633"/>
	<path fill="none" stroke="#FFFFFF" stroke-linecap="round" stroke-linejoin="round" d="M203.115,342.453
		c-2.782-5.713-2.395-12.462,1.022-17.821c3.417-5.358,9.372-8.557,15.726-8.445"/>
	<path fill="none" stroke="#FFFFFF" stroke-linecap="round" stroke-linejoin="round" d="M209.905,450.146
		c23.851-8.363,43.429-25.814,54.469-48.551"/>
	<path fill="none" stroke="#FFFFFF" stroke-linecap="round" stroke-linejoin="round" d="M186.568,429.849
		c-9.516,3.836-20.021,7.531-30.169,9.466c-5.307,1.013-10.343,1.521-15.742,1.63c-4.914,0.099-10.904-0.095-15.799-0.572
		c-5.225-0.507-10.49-1.414-15.516-3.004c-2.524-0.8-4.958-1.757-7.331-2.935c-2.282-1.131-4.717-2.583-6.724-4.168
		c-1.952-1.541-3.593-3.256-4.984-5.324c-0.697-1.04-1.514-2.471-1.992-3.634c-0.567-1.378-0.843-2.759-0.92-4.24
		c-0.148-2.758,0.458-5.592,1.454-8.128c0.917-2.33,2.195-4.521,3.828-6.428"/>
	<path fill="none" stroke="#FFFFFF" stroke-linecap="round" stroke-linejoin="round" d="M267.397,332.039
		c-2.658-1.618-5.723-2.32-8.792-2.309c-3.078,0.011-6.129,0.737-8.938,1.939c-5.682,2.433-10.396,6.79-13.691,11.912
		c-3.288,5.11-5.33,11.236-5.572,17.339c-0.12,3.033,0.207,6.176,1.174,9.08c0.966,2.903,2.591,5.607,5.067,7.527"/>
	<path fill="none" stroke="#FFFFFF" stroke-linecap="round" stroke-linejoin="round" d="M271.299,303.934
		c-5.724-2.965-12.187-3.972-18.521-3.525c-6.365,0.45-12.585,2.354-18.242,5.213c-11.438,5.778-20.64,15.413-26.745,26.482
		c-6.039,10.952-9.445,24.083-8.617,36.705c0.411,6.263,1.906,12.695,4.999,18.267c3.153,5.678,7.775,10.095,13.936,12.466"/>
	<path fill="none" stroke="#FFFFFF" stroke-linecap="round" stroke-linejoin="round" d="M208.95,476.159
		c0.145-0.22,0.29-0.442,0.437-0.662c0.517-0.784,0.805-1.698,0.83-2.638c0.178-6.593,0.357-13.186,0.536-19.776
		c0.039-1.412-0.518-2.774-1.532-3.756c-13.811-13.371-27.622-26.741-41.434-40.112"/>
</g>
</svg>
