<svg enable-background="new 0 0 197.647 182.259" height="182.259" viewBox="0 0 197.647 182.259" width="197.647" xmlns="http://www.w3.org/2000/svg"><g fill="none" stroke="#fff" stroke-linecap="round" stroke-linejoin="round" stroke-width=".75"><path d="m84.989 114.97c-.353-3.282-2.428-6.369-5.161-8.124-1.387-.89-2.995-1.471-4.666-1.524-1.684-.053-3.298.436-4.64 1.474"/><path d="m93.943 84.55c-.489.389-.667 1.043-.577 1.633.091.594.45 1.153.998 1.433"/><path d="m93.944 84.549c1.004-.809 2.221-1.429 3.458-1.785.632-.182 1.267-.298 1.922-.355.16-.014.316-.02.476.007.161.028.309.079.455.153.298.152.546.39.725.671.348.548.436 1.273.137 1.872-.149.298-.386.542-.691.684-.15.07-.301.111-.465.126-.16.015-.32.03-.48.052-1.306.183-2.524.699-3.561 1.516"/><path d="m110.32 93.197c.191-.375.529-.639.933-.747.43-.115.885-.042 1.273.16.383.2.7.524.884.917.091.193.135.395.176.602.04.202.076.405.106.609.253 1.679.173 3.398-.325 5.034-.06.197-.113.392-.222.572-.11.183-.247.323-.424.441-.372.248-.83.312-1.258.229-.831-.159-1.555-.877-1.575-1.758-.006-.247.036-.382.111-.612.066-.203.123-.407.172-.614.099-.417.163-.835.195-1.262.065-.859.002-1.686-.175-2.529"/><path d="m70.274 106.977c-1.937 1.479-2.971 3.804-3.101 6.171-.131 2.395.646 4.765 2.114 6.646 1.469 1.884 3.578 3.215 5.928 3.687 2.319.465 4.833.065 6.768-1.408"/><path d="m82.276 121.835c1.811-1.536 2.629-3.762 2.53-6.079-.097-2.282-1.063-4.495-2.473-6.241-1.41-1.747-3.369-3.156-5.581-3.73-2.246-.583-4.593-.248-6.479 1.192"/><path d="m110.675 87.905c-.182-.233-.389-.407-.653-.541"/><path d="m104.351 104.032c-.316-.161-.676-.24-1.032-.205"/><path d="m100.986 103.751c.78.126 1.545.153 2.333.076"/><path d="m94.391 89.106c-.439.623-.775 1.277-1.033 1.994"/><path d="m94.401 89.091c-.003.005-.007.01-.011.015"/><path d="m92.863 93.374c-.063.73-.578 1.347-1.343 1.393-.736.044-1.376-.458-1.661-1.096-.152-.341-.192-.666-.156-1.033.035-.351.083-.7.147-1.047.127-.698.309-1.373.551-2.04"/><path d="m97.692 106.063c-.356-.147-.701-.315-1.041-.496-.276-.147-.547-.304-.813-.471-.594-.371-1.15-.784-1.679-1.245s-1.013-.956-1.462-1.494c-.247-.296-.44-.515-.566-.896-.107-.324-.125-.68-.03-1.012.206-.721.877-1.133 1.612-1.023.342.052.662.209.922.434.136.117.245.255.356.393s.225.271.343.402c.946 1.05 2.079 1.861 3.372 2.428"/><path d="m97.708 106.069c.389.16.834.193 1.237.048.406-.146.722-.461.856-.874.133-.408.072-.854-.116-1.229-.188-.378-.503-.691-.879-.883"/><path d="m100.863 106.964c-1.042-.147-2.188-.485-3.155-.895"/><path d="m186.638 100.479c-.656.463-1.395.744-2.174.902-1.06.216-2.166.204-3.229.085-1.496-.167-2.916-.539-4.333-1.021-1.809-.616-3.529-1.392-5.222-2.271-2.176-1.13-4.248-2.406-6.271-3.786-2.334-1.591-4.568-3.297-6.744-5.096-1.967-1.626-3.871-3.317-5.729-5.067-1.975-1.86-3.886-3.777-5.749-5.748-3.62-3.832-7.02-7.827-10.242-11.998-6.275-8.123-12.244-17.437-16.592-26.775-1.19-2.557-2.278-5.147-3.229-7.805-.825-2.307-1.539-4.633-2.084-7.024-.424-1.859-.742-3.719-.884-5.624-.112-1.494-.116-2.962.096-4.453.15-1.059.415-2.133.887-3.106.348-.717.802-1.363 1.416-1.887"/><path d="m97.747 19.958c.282-3.4 1.313-7.103 4.097-9.517"/><path d="m172.166 116.146c-2.34-.397-4.651-1.139-6.838-2.03-2.737-1.116-5.321-2.475-7.849-3.996-4.523-2.722-8.867-5.993-12.874-9.411-4.06-3.464-7.869-7.153-11.517-11.046-1.843-1.967-3.633-3.977-5.378-6.031-1.701-2.003-3.354-4.042-4.961-6.121-6.399-8.275-12.38-17.566-16.961-26.997-2.302-4.739-4.377-9.766-5.878-14.83-.838-2.829-1.505-5.67-1.902-8.599-.316-2.341-.457-4.762-.261-7.126"/><path d="m182.348 114.539c-3.015 2.09-6.832 2.176-10.183 1.606"/><path d="m82.5 121.646c1.979-1.68 2.755-4.159 2.491-6.661"/><path d="m105.655 157.491c3.014.711 6.186 1.064 9.295.77 3.126-.296 6.132-1.245 8.746-3.058"/><path d="m59.092 120.986c2.938 4.093 6.091 7.978 9.498 11.689 3.409 3.714 7.006 7.185 10.879 10.416 3.828 3.194 7.973 6.18 12.305 8.666 4.276 2.453 9.042 4.592 13.881 5.733"/><path d="m41.067 74.358c-.135 8.28 2.418 17.129 5.542 24.584 3.241 7.732 7.603 15.247 12.48 22.041"/><path d="m47.76 57.337c-2.417 2.096-4.087 4.793-5.147 7.768-1.056 2.958-1.494 6.141-1.545 9.253"/><path d="m94.391 89.105c-.431.593-1.182.739-1.824.413"/><path d="m108.134 89.876c-.414-.53-.549-1.276-.232-1.898"/><path d="m105.654 157.491-24.263 17.091"/><path d="m65.572 129.265-32.613 25.054"/><path d="m59.09 120.983-32.389 25.373"/><path d="m41.583 81.688-19.887 16.804"/><path d="m41.068 74.359-22.937 19.59"/><path d="m91.321 91.901c.733.372 1.578.127 1.956-.615"/><path d="m111.575 89.874c-.606-.309-1.364-.278-1.875.221-.509.498-.567 1.254-.276 1.87"/><path d="m98.706 103.082c.058.026.115.055.17.085"/><path d="m98.18 86.275.001-.001"/><path d="m110.188 94.216c-.167-.786-.421-1.525-.764-2.25"/><path d="m108.133 89.875c-.511-.653-1.076-1.232-1.718-1.757"/><path d="m91.733 86.966c.035-.069.076-.135.12-.199"/><path d="m91.854 86.766c.569-.816 1.31-1.597 2.088-2.215"/><path d="m28.343 145.07 6.24 7.941"/><path d="m82.494 121.65.006-.005"/><path d="m133.922 62.44c4.033-3.159 8.065-6.319 12.098-9.479 2.015-1.579 4.031-3.158 6.047-4.736 1.008-.789 2.016-1.578 3.023-2.367.606-.475 1.212-.949 1.818-1.423.287-.225.573-.449.86-.673.086-.067.172-.135.259-.203.023-.018.046-.036.069-.054.006-.004.011-.009.017-.013.002-.001.002-.008.005-.004"/><path d="m139.732 69.986c4.071-3.121 8.147-6.235 12.223-9.351 2.037-1.557 4.069-3.121 6.093-4.695 1.012-.787 2.021-1.576 3.03-2.366.607-.475 1.213-.951 1.819-1.426.287-.225.574-.449.859-.676.086-.068.172-.137.256-.207.023-.019.045-.038.068-.057.005-.005.011-.009.016-.015.001-.002.007-.002.004-.006"/><path d="m14.604 121.458-12.709 10.48"/><path d="m41.172 162.582-9.235 6.938"/><path d="m110.674 87.904.001.001"/><path d="m92.565 89.517c-.896-.456-1.289-1.655-.832-2.551"/><path d="m91.854 86.767v-.001"/><path d="m102.468 106.218c-.146.287-.386.504-.678.634-.308.137-.598.158-.926.112"/><path d="m34.583 153.011.496-.381"/><path d="m41.172 162.582c3.773 3.328 7.938 6.403 12.334 8.876"/><path d="m53.506 171.458c4.627 2.604 9.98 4.793 15.35 5.432"/><path d="m14.604 121.456c1.319 4.881 3.282 9.686 5.588 14.171"/><path d="m20.191 135.627c1.922 3.738 4.091 7.292 6.51 10.729"/><path d="m94.365 87.616c.502.256 1.1.231 1.553-.126"/><path d="m112.463 90.785c-.186-.39-.502-.715-.888-.911"/><path d="m67.858 110.143-.001.001"/><path d="m95.918 87.49c-.589.465-1.083.99-1.517 1.602"/><path d="m110.192 94.24c-.002-.008-.003-.017-.005-.024"/><path d="m108.134 89.876-.001-.001"/><path d="m93.357 91.101c-.022.063-.049.125-.08.186"/><path d="m110.676 87.906c.677.849 1.32 1.901 1.787 2.879"/><path d="m112.511 92.603-.001-.001"/><path d="m110.321 93.196c-.161.315-.2.677-.134 1.021"/><path d="m112.463 90.786c.466.947.854 2.096 1.078 3.126"/><path d="m92.565 89.518h.001"/><path d="m109.424 91.965c-.354-.75-.78-1.437-1.29-2.089"/><path d="m98.123 86.299.012-.009"/><path d="m82.276 121.835.218-.185"/><path d="m81.982 122.072c.1-.076.198-.155.294-.237"/><path d="m101.554 103.938c.402.205.738.548.921.965.182.414.205.899-.007 1.315"/><path d="m106.415 88.118c-.566-.463-.85-1.244-.646-1.961.213-.746.902-1.199 1.672-1.082.192.029.366.089.538.178.157.081.292.187.426.299.279.234.549.478.811.731.525.508 1.009 1.046 1.459 1.622"/><path d="m104.351 104.032h.001"/><path d="m104.098 107.049c-1.06.113-2.183.076-3.234-.085"/><path d="m103.319 103.827c.766-.075 1.49-.242 2.209-.519"/><path d="m105.528 103.309c.671-.258 1.438-.03 1.942.44.505.473.783 1.236.448 1.903-.164.326-.435.546-.768.677-.326.128-.658.234-.995.329-.676.191-1.357.319-2.057.391"/><path d="m91.32 91.901h-.001"/><path d="m90.401 89.551c.338-.958.865-1.957 1.452-2.785"/><path d="m93.357 91.1c-.267.743-.427 1.488-.494 2.274"/><path d="m98.706 103.082c.738.32 1.487.541 2.281.669"/><path d="m164.102 51.187c-.004-.006-.007.003-.01.005-.009.005-.017.012-.026.018-.034.024-.067.049-.101.074-.045.034-.09.067-.134.101-.09.068-.179.136-.268.205-.178.137-.355.275-.531.414"/><path d="m164.102 51.187-5.983-7.699"/><path d="m163.031 52.003c-1.93 1.516-3.861 3.029-5.799 4.533-1.938 1.503-3.886 2.992-5.835 4.48-1.949 1.489-3.897 2.979-5.844 4.469-1.949 1.491-3.896 2.983-5.843 4.476"/><path d="m1.895 131.938c-1.373 1.132-1.986 2.825-1.884 4.557.101 1.712.878 3.358 1.945 4.65 1.067 1.293 2.536 2.365 4.194 2.795 1.675.435 3.46.175 4.847-.938"/><path d="m10.997 143.003 9.195-7.377"/><path d="m31.937 169.52c-1.417 1.065-2.111 2.727-2.101 4.454.01 1.709.689 3.392 1.68 4.738.991 1.347 2.395 2.498 4.026 3.014 1.649.521 3.438.344 4.872-.703"/><path d="m40.414 181.022 13.092-9.564"/><path d="m121.414 17.88c2.34-1.303 4.68-2.606 7.02-3.91"/><path d="m116.522 11.59c1.63 2.097 3.261 4.193 4.892 6.29"/><path d="m128.434 13.97-4.172 3.5"/><path d="m116.522 11.59-1.958 1.668"/><path d="m128.434 13.97c-3.422-1.544-7.948-3.027-11.911-2.38"/><path d="m185.06 99.721c1.509-3.771 1.134-8.575.443-12.327"/><path d="m185.06 99.721-2.589 1.828"/><path d="m180.202 93.474c1.619 2.083 3.239 4.164 4.858 6.247"/><path d="m185.503 87.394-4.409 3.167"/><path d="m185.503 87.394c-1.767 2.027-3.534 4.053-5.301 6.08"/><path d="m179.099 101.086c-.87-1.118-1.739-2.236-2.609-3.354"/><path d="m114.444 21.762c.684-.381 1.368-.762 2.053-1.144"/><path d="m191.664 108.08c1.026-.712 1.883-1.538 2.639-2.531"/><path d="m194.303 105.549c1.772-2.328 2.616-5.159 2.935-7.985.377-3.35.046-6.844-.567-10.12-.546-2.916-1.33-5.745-2.269-8.554-1.054-3.149-2.288-6.213-3.657-9.236-5.049-11.147-12.234-22.289-19.782-31.854-7.508-9.516-16.743-19.196-26.477-26.54-2.674-2.018-5.422-3.894-8.321-5.58-2.506-1.458-5.168-2.791-7.89-3.808-3.045-1.138-6.424-1.977-9.74-1.86-2.965.104-5.8.987-8.099 2.98"/><path d="m110.436 2.991-8.592 7.45"/><path d="m182.348 114.539 9.316-6.459"/><path d="m181.094 90.561-10.098 7.252"/><path d="m124.262 17.47-9.158 7.683"/><path d="m176.49 97.731c-.558.64-1.115 1.279-1.673 1.919"/><path d="m176.49 97.731-2.306 1.648"/><path d="m121.414 17.88-6.668 5.609"/><path d="m180.202 93.474-7.371 5.277"/><path d="m116.497 20.619c-.805-1.034-1.609-2.068-2.414-3.103"/><path d="m116.497 20.619-1.971 1.66"/><path d="m107.902 87.977c.41-.803 1.35-1.004 2.12-.614"/><path d="m99.1 155.363-21.038 14.974"/><path d="m41.069 74.282-21.996 18.788"/><path d="m59.09 120.983.002.003"/><path d="m111.574 89.874h.001"/><path d="m105.267 106.287c-.231.455-.678.709-1.168.762"/><path d="m78.062 170.337c1.11 1.415 2.22 2.83 3.33 4.245"/><path d="m78.062 170.337-9.206 6.553"/><path d="m65.505 129.184v.001"/><path d="m59.092 120.986-28.966 22.692"/><path d="m21.696 98.492-8.653 7.313"/><path d="m20.087 92.278c-.35.25-.688.513-1.014.792"/><path d="m110.025 87.365-.003-.001"/><path d="m107.902 87.977-.001.001"/><path d="m101.554 103.938c-.182-.093-.366-.154-.567-.187"/><path d="m105.267 106.288c.211-.414.186-.893.003-1.304-.185-.412-.52-.749-.918-.952"/><path d="m82.091 174.118 23.596-16.62"/><path d="m19.073 93.07c-.328.28-.641.572-.942.879"/><path d="m123.696 155.203 58.652-40.664"/><path d="m101.844 10.441-54.084 46.896"/><path d="m34.134 153.355c-.391.321-.783.643-1.174.964"/><path d="m34.134 153.355.449-.344"/><path d="m30.126 143.678-1.29 1.008"/><path d="m81.391 174.582c.238-.148.471-.303.7-.464"/><path d="m32.959 154.319c2.568 2.934 5.288 5.683 8.212 8.263"/><path d="m13.043 105.805c-.574 5.19.219 10.689 1.561 15.651"/><path d="m18.131 93.949c1.188 1.515 2.376 3.029 3.565 4.543"/><path d="m90.401 89.551c-.316.873.087 1.925.918 2.349"/><path d="m97.692 106.063c.006.002.012.005.018.007"/></g></svg>