<svg enable-background="new 0 0 215.218 102.475" height="102.475" viewBox="0 0 215.218 102.475" width="215.218" xmlns="http://www.w3.org/2000/svg"><g fill="none" stroke="#fff"><path d="m15.322 72.671 2.229-1.278m13.762 2.459.004.068" stroke-miterlimit="10" stroke-width=".25"/><path d="m8.454 20.306c1.145-1.177 2.497-2.192 3.871-3.064.797-.508 1.617-.978 2.448-1.426.903-.48 1.829-.932 2.761-1.354 2.099-.955 4.234-1.785 6.412-2.538 2.462-.857 4.95-1.605 7.466-2.294 3.932-1.075 7.896-1.981 11.89-2.779 2.156-.432 4.316-.831 6.48-1.199 2.22-.383 4.45-.733 6.681-1.06 16.507-2.414 34.286-3.595 50.948-3.824 16.667-.229 34.475.466 51.049 2.429 4.412.527 8.807 1.143 13.184 1.896 4.027.692 8.029 1.493 11.995 2.47 2.542.617 5.055 1.309 7.544 2.102 2.195.696 4.361 1.47 6.485 2.373 1.816.775 3.569 1.632 5.261 2.659 1.385.842 2.753 1.823 3.907 2.981 1.492 1.489 2.989 2.978 4.479 4.471 1.818 1.816 3.263 4.128 3.177 6.877-.344 11.093-.681 22.192-1.027 33.291-.12 4.091-2.88 7.528-5.647 10.002-3.08 2.746-6.155 5.498-9.234 8.25-2.452 2.023-5.231 3.745-8.032 5.219-3.523 1.858-7.273 3.422-11.015 4.775-3.203 1.158-6.448 2.173-9.727 3.083-3.663 1.016-7.356 1.903-11.071 2.685-13.875 2.918-28.735 4.543-42.876 5.145-7.206.308-14.403.353-21.62.15-7.208-.203-14.38-.669-21.554-1.436-13.439-1.445-29.338-4.28-42.029-9.454-4.097-1.67-8.421-3.821-11.986-6.513-2.692-2.242-5.382-4.475-8.078-6.701-3.532-2.512-7.65-6.392-7.933-11.348-.642-11.348-1.285-22.695-1.929-34.039-.162-2.831 1.313-5.242 3.149-7.129 1.521-1.568 3.047-3.132 4.571-4.7z" stroke-linecap="round" stroke-linejoin="round" stroke-width=".75"/><path d="m18.144 71.145c-.191.045-.426.151-.592.255m13.764 2.52.099 2.271m-8.869-5.971 1.337-.368m6.256.947c-.009 0-.021-.008-.028-.008m.043.015c-.004-.007-.012-.007-.016-.007m-.028-.008c-2.197-.647-4.372-1.354-6.525-2.143m-3.967-1.564.032-.008m11.736 9.318c.003-.008.012-.015.019-.022m.01-.016c0-.045 0-.09-.003-.135m-7.827-7.573c-1.884-.685-3.735-1.437-5.56-2.272m12.133 4.43h-.004m1.228 5.596c0-.008 0-.008.004-.008m.018-.022c.004 0 .008-.008.008-.008m-2.402 1.978c.104-.157.266-.308.458-.369m-9.766-3.722c-.195.053-.361.188-.471.353m0 0-1.473 2.069" stroke-miterlimit="10" stroke-width=".25"/><path d="m143.904 42.938c5.208-.545 10.391-1.203 15.567-2.016 4.592-.714 9.148-1.548 13.688-2.556 3.869-.854 7.692-1.828 11.48-3.005 3.023-.944 6.069-2.034 8.957-3.35 1.214-.553 2.406-1.143 3.561-1.813.974-.556 1.906-1.154 2.809-1.834.737-.56 1.429-1.158 2.058-1.846.514-.561.966-1.151 1.326-1.824 1.407-2.639.475-4.981-1.421-6.952-1.237-1.29-2.81-2.35-4.347-3.226-2.026-1.158-4.242-2.121-6.415-2.944-2.691-1.012-5.415-1.851-8.183-2.599-3.188-.857-6.399-1.583-9.64-2.218-3.829-.756-7.68-1.384-11.545-1.929-4.129-.575-8.265-1.049-12.413-1.448-8.914-.85-17.837-1.331-26.791-1.526-16.726-.373-34.338.255-50.986 2-4.871.511-9.728 1.124-14.571 1.865-4.54.696-9.056 1.504-13.549 2.474-4.004.865-7.966 1.847-11.882 3.042-1.733.526-3.446 1.094-5.144 1.722-1.525.561-3.031 1.169-4.511 1.842-1.875.857-3.773 1.85-5.479 3.016-1.294.887-2.595 1.944-3.565 3.204-1.612 2.098-1.949 4.339-.458 6.655.404.628.882 1.176 1.413 1.696.646.628 1.343 1.181 2.08 1.692.886.617 1.801 1.159 2.749 1.663 1.116.597 2.256 1.127 3.423 1.625 2.856 1.214 5.872 2.203 8.852 3.053 3.697 1.053 7.433 1.903 11.2 2.647 3.651.714 7.317 1.319 10.998 1.839 4.086.583 8.179 1.06 12.283 1.458 9.09.884 18.339 1.387 27.469 1.591 16.75.371 34.315-.257 50.987-1.998z" stroke-linecap="round" stroke-linejoin="round" stroke-width=".75"/><path d="m27.671 80.523 1.34-2.181m-3.053-7.791c.007.188.1.384.291.459m.933-.008c.008.188.1.383.293.458m.938.001c.008.188.096.383.29.451m.947 0c.007.188.096.384.287.459m-2.891-1.166c-.096.03-.176.03-.272-.007m-2.034-1.092c.009.188.101.384.289.452m2.521.97-1.848-.684m1.91.661-.063.023m.892.083-.171.052m.665-.225.702.263m-.692-.045-.011-.218m.743.632-.17.045m-5.467-2.482.688.256m-.681-.037-.007-.218m-.624 2.203-1.202-2.227m8.495 2.001-6.874-2.527m7.146 3.174-.555.158m-6.569-2.693-.03-.609m6.291 8.769h-.003m-.207-.038c-.008 0-.015-.007-.023-.007m.131-5.437-.078-.03m-4.112-1.618.158-.037m-2.149-1.632h-.008m4.175 2.572c-.192-.075-.28-.27-.294-.458m1.524.909c-.19-.067-.28-.263-.287-.451m-4.606-1.354c-.191-.067-.28-.263-.292-.451m.912 5.212 4.883 1.85m-6.015-7.829-5.146-1.887m-.42.586c-.008-.12 0-.232.038-.345.035-.105.099-.218.22-.256m-.258.601.111 2.257m.16.586 1.202 2.241m11.536 1.508-7.931-2.87m.077.332c.069.127.184.285.334.338m7.616 2.866c-.011.113-.041.248-.114.346m-3.552-4.4.701.256m-.693-.045-.008-.211m-7.632 2.226c-.149-.06-.265-.218-.334-.346m6.739-2.331.698.255m-.688-.044-.011-.21m-1.219-.453.691.256m-.68-.038-.011-.218m-5.185 3.129 4.833 1.828m-.816-4.867c-.137-.112-.218-.277-.228-.451m4.145 1.933-.527-.195m-3.725.714 7.645 2.784m-4.622-3.761c-.189-.068-.281-.264-.29-.452m-3.276.707 2.229-.625m4.733 5.987c-.037.052-.08.09-.146.105m-4.469-6.173c-.19-.068-.282-.256-.29-.444m4.71 7.663c.061-.015.11-.053.154-.091m.004 0c-.048.053-.081.105-.102.173m.113-.194c.411-.489.828-.97 1.239-1.459m-.955-3.978c-.134.038-.276.03-.411-.016m-4.462-1.654-.524-.188m1.743.639-.524-.188m2.983 1.097-.529-.195m-4.364-1.61-.071-.03m5.754 6.649c-.065.022-.118.015-.181-.008m-11.322-9.731c.058-.015.106-.008.162.015m5.587 3.075c-.07-.023-.128-.053-.183-.098m-.258-1.06c0-.008 0-.022 0-.03m-5.295 1.542c-.099-.188-.149-.376-.16-.586m11.797 6.775 1.083-1.429m-4.206-4.181.163-.044m-2.6-.851.158-.045m-1.428 1.24c-.04-.015-.077-.022-.115-.03m2.478-.631c-.093-.03-.173-.038-.266-.016m.39-.075c-.096.031-.177.031-.272-.007m2.717.918c-.092.023-.177.023-.269-.008m1.505.459c-.095.029-.176.029-.274-.008m-4.624-1.797c-.092.03-.176.03-.271-.008m7.08 6.054s.003 0 .003-.008m-4.427-5.128c.022.045.049.09.075.128m4.26 5.964c.068-.316.096-.632.089-.956m-1.781-4.655.014.21m-1.25-.668.012.218m-1.242-.67.011.211m-1.238-.662.014.21m-1.229-.661.012.217m5.417.603c-.155-.196-.32-.384-.505-.557m-7.596-1.113c.011.204.062.392.157.571m8.017 1.204c-.023-.038-.047-.067-.073-.105m-8.101-1.67v-.008m0 0c-.008-.203.016-.383.065-.571m9.187 5.422c-.045-1.068-.449-2.203-1.077-3.068m1.182 5.399-.105-2.331" stroke-miterlimit="10" stroke-width=".25"/><path d="m24.287 76.169c1.709.646 3.438 1.248 5.179 1.804m2.062-3.925.109 2.332m-11.932-2.129c1.505.692 3.034 1.323 4.582 1.918m-2.657-9.393c2.179.796 4.386 1.503 6.61 2.158m-6.61-2.158c-1.922-.7-3.811-1.459-5.676-2.302m5.903 2.798c-1.921-.7-3.81-1.459-5.665-2.309m15.336 9.085c-.041-1.053-.388-2.143-.923-3.045-.504-.851-1.345-1.775-2.365-2.069m2.601 10.182c.649-.714.838-1.835.797-2.737m-.905 2.181c.307-.346.496-.805.592-1.248m-12.152-3.881c.093.256.267.662.532.82m-1.902-6.679c-.22.06-.436.083-.658.083m12.887 10.401c.415-.496.835-.992 1.25-1.481m-9.241-7.544.019.008m7.637 2.294c0-.037 0-.067.004-.09m-9.963 1.624 3.678-1.03m-5.035-1.79 3.676-1.016m2.684 1.075.522.196m.695.256.528.188m.696.264.531.195m2.015.744c.004.135.059.286.173.384m.117.068c-.044-.015-.077-.038-.117-.067m-10.473-4.859-1.163.315m5.491 4.392-3.682 1.031m2.144-3.603-3.679 1.016m9.876.835.53.195m.783.293-.03-.617" stroke-miterlimit="10" stroke-width=".25"/><path d="m8.477 20.317c-2.826 2.906-3.412 6.099-.658 9.352.735.873 1.57 1.598 2.48 2.275 1.104.823 2.271 1.531 3.483 2.177 1.437.767 2.906 1.437 4.412 2.049 1.717.7 3.462 1.323 5.229 1.892 3.931 1.271 7.979 2.297 12.011 3.166 5.216 1.128 10.464 2.012 15.747 2.741 18.228 2.531 38.331 3.396 56.698 3.147 18.371-.256 38.437-1.673 56.598-4.693 5.257-.876 10.476-1.898 15.656-3.162 4.01-.981 8.041-2.113 11.939-3.49 1.768-.62 3.509-1.293 5.223-2.045 1.497-.654 2.963-1.365 4.384-2.173 1.203-.681 2.361-1.417 3.449-2.271.895-.703 1.715-1.451 2.433-2.339 2.644-3.256 2.105-6.407-.745-9.261" stroke-linecap="round" stroke-linejoin="round" stroke-width=".75"/><path d="m22.408 78.65c-1.57-.608-3.123-1.263-4.652-1.977m4.483 2.578c-1.574-.616-3.131-1.271-4.659-1.993m9.927 3.874c-1.771-.579-3.531-1.203-5.268-1.88m5.434 1.271c-.111.18-.173.398-.166.609m-11.148-6.159c.262.587.75 1.399 1.396 1.7m-1.803-1.355c.312.677.878 1.603 1.628 1.94m.176-.585c-.117.173-.188.375-.176.586m-2.665-4.234c.081-.143.27-.278.401-.354m0 0c.342.767.689 1.534 1.043 2.301m-1.444-1.947c.339.767.685 1.527 1.037 2.293m-1.399-7.686c.042.91-.054 3.514.764 5.039m-1.164-2.873c.05 1.061.323 2.256.762 3.227m1.04-8.558c.008.195.081.376.235.496m5.438 1.813c.011.188.077.368.226.496m6.601 2.151c-.146-.121-.205-.316-.217-.489m1.217 11.092c.423-.496.852-.985 1.278-1.474m-1.178 2.031c.429-.488.855-.978 1.282-1.458m-3.164 1.398c.661.218 1.329.038 1.782-.497m-1.948 1.106c.761.256 1.521.061 2.048-.549m-11.412-9.438h.003m-1.004-3.49.115 2.256m1.972 4.693c1.51.692 3.043 1.332 4.594 1.925m-.001 0c1.709.654 3.442 1.256 5.188 1.82m2.41-2.165c-.005.015-.008.03-.008.038m-12.831-2.535c.116.3.332.737.647.917m-1.678-3.204c.339.759.685 1.527 1.031 2.287m-1.324-3.775c.032.511.12 1 .293 1.489m.574-5.026c-.143-.082-.574-.194-.706-.066-.11.104-.173.278-.207.406-.073.293-.08.646-.069.939m14.142 8.928c.051-.053.096-.113.136-.165m-1.954 1.564c.175.038.331.038.506-.008m-.962.376c.379.106.754 0 1.022-.293m-.376-7.904c-.335-.315-.753-.594-1.201-.729m2.852 4.459c0 .015.004.023.008.03m-13.172-2.767c.338.767.682 1.526 1.031 2.286m-1.15-7.055c-.078.076-.113.158-.145.249m-3.726 3.173-.119-2.248m7.82-.278c2.177.79 4.375 1.504 6.602 2.151m-13.903-1.791c-.141 0-.38-.015-.519-.082m2.156-2.587c-.297-.135-.616-.157-.9.038-.263.181-.425.489-.525.767-.202.572-.241 1.279-.212 1.865m1.402-3.166c-.341-.158-.716-.181-1.047.038-.312.195-.504.549-.624.88-.243.654-.284 1.473-.25 2.166" stroke-miterlimit="10" stroke-width=".25"/><path d="m.759 32.135c.091 1.557.764 2.94 1.676 4.136.569.748 1.208 1.402 1.909 2.019.819.722 1.687 1.361 2.601 1.958 2.209 1.444 4.678 2.644 7.103 3.659 3.021 1.26 6.188 2.317 9.322 3.234 4.081 1.188 8.207 2.158 12.369 3.004 5.137 1.038 10.295 1.873 15.49 2.572 18.327 2.453 38.276 3.311 56.736 3.048 18.46-.271 38.381-1.715 56.633-4.71 5.186-.85 10.336-1.834 15.454-3.034 4.129-.963 8.205-2.049 12.24-3.354 3.108-1.008 6.256-2.162 9.237-3.516 2.399-1.083 4.84-2.358 7.011-3.873.891-.625 1.741-1.287 2.534-2.031.676-.636 1.296-1.305 1.841-2.068.874-1.218 1.506-2.609 1.55-4.159" stroke-linecap="round" stroke-linejoin="round" stroke-width=".75"/><path d="m17.794 67.58.032 2.271m-.032-2.271c-.003-.474.028-.796.102-.985m.257 4.558c-.216-.52-.327-.948-.327-1.301" stroke-miterlimit="10" stroke-width=".25"/><path d="m10.616 77.477c3.031 2.151 6.48 3.911 9.872 5.37 4.353 1.879 8.911 3.392 13.466 4.663 3.813 1.06 7.651 1.963 11.529 2.751 4.462.911 8.948 1.67 13.46 2.302 16.56 2.331 34.21 3.136 50.902 2.76 16.68-.368 34.318-1.955 50.736-5.068 4.512-.857 8.994-1.835 13.438-2.979 3.801-.978 7.558-2.076 11.281-3.339 4.443-1.512 8.931-3.293 13.115-5.46 1.781-.917 3.52-1.91 5.196-3.016 1.467-.978 2.865-2.016 4.181-3.188" stroke-linecap="round" stroke-linejoin="round" stroke-width=".75"/><path d="m27.669 80.523c-1.771-.579-3.523-1.195-5.263-1.873m1.451-8.927c.004.053.077.083.114.099" stroke-miterlimit="10" stroke-width=".25"/></g></svg>