<svg enable-background="new 0 0 850.394 850.394" height="850.394" viewBox="0 0 850.394 850.394" width="850.394" xmlns="http://www.w3.org/2000/svg"><g fill="#009fe3"><path d="m793.414 212.609c-37.291-64.632-90.979-118.316-155.625-155.641-13.383-7.716-29.268-9.824-44.208-5.812-14.942 3.997-27.673 13.763-35.389 27.147-7.716 13.383-9.811 29.285-5.813 44.226 3.997 14.925 13.762 27.643 27.131 35.373 46.931 27.078 85.894 66.041 112.984 112.968 7.734 13.401 20.461 23.154 35.389 27.163 14.928 3.981 30.828 1.904 44.211-5.829 13.385-7.733 23.156-20.462 27.15-35.39 3.994-14.923 1.918-30.822-5.83-44.205"/><path d="m425.195 850.396c74.648 0 147.952-19.646 212.594-56.971 13.402-7.731 23.154-20.462 27.152-35.374 3.996-14.939 1.918-30.84-5.828-44.211-7.717-13.399-20.449-23.167-35.375-27.178-14.924-3.981-30.826-1.888-44.21 5.842-46.927 27.091-100.149 41.333-154.33 41.333-15.464 0-30.272 6.163-41.209 17.093-10.921 10.899-17.057 25.724-17.057 41.188 0 15.463 6.134 30.285 17.057 41.187 10.935 10.93 25.744 17.091 41.206 17.091"/><path d="m56.972 212.609c-37.307 64.629-56.972 137.95-56.972 212.601 0 15.465 6.149 30.259 17.07 41.189 10.923 10.929 25.747 17.092 41.21 17.092 15.448 0 30.272-6.163 41.195-17.092 10.937-10.899 17.068-25.725 17.068-41.189 0-54.188 14.258-107.409 41.355-154.338 7.725-13.384 9.823-29.285 5.821-44.21-4.005-14.94-13.764-27.656-27.14-35.389-13.401-7.718-29.308-9.809-44.233-5.814-14.912 3.998-27.635 13.763-35.374 27.15"/><path d="m14.499 535.259c9.614 35.897 23.898 70.341 42.474 102.547 7.738 13.372 20.462 23.135 35.375 27.15 14.925 4.01 30.832 1.887 44.232-5.814 13.377-7.734 23.136-20.464 27.141-35.404 4.002-14.911 1.904-30.84-5.821-44.209-13.494-23.343-23.85-48.397-30.833-74.441 4.005 14.91 1.905 30.838-5.821 44.209-7.723 13.4-20.46 23.168-35.387 27.149-14.926 4.011-30.818 1.919-44.217-5.813-13.38-7.735-23.14-20.466-27.143-35.374" opacity=".5"/><path d="m725.863 725.848c26.262-26.281 48.977-55.869 67.551-88.043 7.748-13.398 9.824-29.299 5.83-44.214-3.998-14.939-13.766-27.667-27.15-35.398-13.383-7.735-29.283-9.828-44.227-5.816-14.908 4.013-27.639 13.749-35.373 27.151-13.486 23.366-29.967 44.848-49.064 63.915 10.941-10.927 25.768-17.062 41.217-17.062 15.461 0 30.287 6.135 41.217 17.062 10.916 10.93 17.049 25.755 17.049 41.218-.001 15.433-6.134 30.255-17.05 41.187" opacity=".5"/><path d="m535.245 14.503c-35.9-9.621-72.87-14.503-110.053-14.503-15.451 0-30.275 6.147-41.198 17.077-10.921 10.942-17.068 25.739-17.068 41.2 0 15.449 6.148 30.274 17.068 41.203 10.923 10.928 25.748 17.064 41.198 17.064 26.979 0 53.836 3.544 79.879 10.52-14.924-3.996-27.642-13.763-35.372-27.132-7.716-13.401-9.826-29.3-5.813-44.226 4.01-14.926 13.762-27.656 27.146-35.388 13.372-7.718 29.285-9.828 44.213-5.815" opacity=".5"/><path d="m637.789 793.429c32.193-18.573 61.797-41.304 88.061-67.581 10.914-10.931 17.074-25.752 17.074-41.188 0-15.463-6.16-30.288-17.074-41.221-10.916-10.924-25.742-17.063-41.203-17.063-15.463 0-30.275 6.136-41.203 17.063-19.053 19.068-40.563 35.578-63.916 49.067 13.382-7.729 29.285-9.826 44.224-5.845 14.908 4.011 27.643 13.778 35.373 27.152 7.732 13.399 9.826 29.297 5.814 44.239-3.982 14.912-13.777 27.644-27.15 35.377" opacity=".7"/><path d="m637.789 56.969c-32.176-18.573-66.647-32.859-102.544-42.465-14.942-3.997-30.828-1.903-44.211 5.815-13.384 7.731-23.152 20.446-27.149 35.373-4.01 14.926-1.918 30.84 5.813 44.225 7.732 13.385 20.462 23.152 35.389 27.163 26.043 6.975 51.085 17.326 74.441 30.824-13.384-7.73-23.152-20.461-27.165-35.389-3.982-14.925-1.902-30.84 5.814-44.21 7.747-13.385 20.462-23.136 35.404-27.147 14.926-3.999 30.84-1.905 44.208 5.811" opacity=".7"/><path d="m.009 425.21c0 37.147 4.867 74.151 14.496 110.049 3.988 14.939 13.749 27.642 27.141 35.373 13.377 7.732 29.292 9.824 44.217 5.813 14.927-4.012 27.652-13.752 35.375-27.149 7.737-13.373 9.824-29.273 5.833-44.211-6.998-26.045-10.521-52.903-10.521-79.877 0 15.434-6.148 30.259-17.07 41.188-10.921 10.93-25.747 17.063-41.194 17.063-15.463 0-30.287-6.13-41.21-17.063-10.921-10.927-17.067-25.753-17.067-41.186" opacity=".7"/><path d="m425.195.013c-37.161 0-74.155 4.868-110.052 14.49-14.912 3.997-27.651 13.75-35.374 27.147-7.725 13.387-9.826 29.286-5.821 44.213 3.989 14.924 13.77 27.656 27.149 35.373 13.393 7.745 29.284 9.824 44.209 5.842 26.06-6.991 52.925-10.521 79.888-10.521-15.461 0-30.27-6.148-41.207-17.077-10.921-10.915-17.07-25.739-17.07-41.203 0-15.448 6.149-30.272 17.07-41.2 10.937-10.93 25.746-17.064 41.208-17.064" opacity=".2"/><path d="m56.972 637.805c18.587 32.177 41.296 61.765 67.579 88.043 10.92 10.927 25.747 17.063 41.194 17.063 15.465 0 30.267-6.133 41.209-17.063 10.923-10.931 17.071-25.752 17.071-41.188 0-15.463-6.149-30.288-17.071-41.221-19.082-19.066-35.57-40.549-49.057-63.915 7.725 13.397 9.823 29.268 5.821 44.212-4.005 14.94-13.764 27.668-27.14 35.373-13.401 7.732-29.293 9.824-44.233 5.846-14.911-4.015-27.634-13.78-35.373-27.15" opacity=".3"/><path d="m793.414 637.805c18.604-32.178 32.873-66.678 42.482-102.547 3.996-14.942 1.902-30.841-5.828-44.24-7.717-13.371-20.434-23.138-35.373-27.148-14.912-3.982-30.828-1.891-44.215 5.841-13.4 7.701-23.148 20.437-27.146 35.376-6.992 26.044-17.354 51.07-30.84 74.441 7.732-13.402 20.461-23.139 35.389-27.151 14.928-4.01 30.824-1.919 44.211 5.816 13.385 7.731 23.152 20.459 27.15 35.398 3.994 14.913 1.918 30.816-5.83 44.214" opacity=".3"/></g></svg>