<?xml version="1.0" encoding="utf-8"?>
<!-- Generator: Adobe Illustrator 16.0.0, SVG Export Plug-In . SVG Version: 6.00 Build 0)  -->
<!DOCTYPE svg PUBLIC "-//W3C//DTD SVG 1.1//EN" "http://www.w3.org/Graphics/SVG/1.1/DTD/svg11.dtd">
<svg version="1.1" xmlns="http://www.w3.org/2000/svg" xmlns:xlink="http://www.w3.org/1999/xlink" x="0px" y="0px"
	 width="595.28px" height="595.28px" viewBox="0 0 595.28 595.28" enable-background="new 0 0 595.28 595.28" xml:space="preserve">
<g id="Ebene_1" display="none">
</g>
<g id="Ebene_2">
	<path fill="none" stroke="#FFFFFF" stroke-miterlimit="10" d="M68.943,291.926l-7.603-19.759c0,0-14.893-94.023-13.34-109.165
		c1.196-11.664,30.392-17.017,30.392-17.017"/>
	<path fill="none" stroke="#FFFFFF" stroke-miterlimit="10" d="M111.673,142.001c0,0-38.121,1.394-42.177,8.421
		c-2.543,4.407,4.511,20.58,4.511,20.58l358.104,91.969"/>
	<path fill="none" stroke="#FFFFFF" stroke-miterlimit="10" d="M303.004,217.002c-1-0.5,109,25.667,109,25.667s24.833-32.5,0-39.333
		c0,0-13-2.833-42-8.167S304.004,217.502,303.004,217.002z"/>
	<polygon fill="none" stroke="#FFFFFF" stroke-miterlimit="10" points="399.171,212.003 359.171,203.669 364.671,199.502 
		403.838,207.586 	"/>
	
		<ellipse transform="matrix(0.9839 -0.1788 0.1788 0.9839 -33.3329 68.8265)" fill="none" stroke="#FFFFFF" stroke-miterlimit="10" cx="365.172" cy="219.339" rx="15.494" ry="8.074"/>
	<line fill="none" stroke="#FFFFFF" stroke-miterlimit="10" x1="350.135" y1="222.848" x2="380.225" y2="215.874"/>
	<line fill="none" stroke="#FFFFFF" stroke-miterlimit="10" x1="362.027" y1="211.757" x2="368.396" y2="226.9"/>
	<g>
		<path fill="none" stroke="#FFFFFF" stroke-miterlimit="10" d="M400.238,221.503c0.476-0.617,0.238-1.238-0.528-1.38l-13.136-2.428
			c-0.767-0.142-1.737,0.279-2.158,0.936l-1.568,2.45c-0.421,0.656-0.142,1.33,0.62,1.496l12.264,2.676
			c0.762,0.167,1.774-0.203,2.25-0.82L400.238,221.503z"/>
	</g>
	<path fill="none" stroke="#FFFFFF" stroke-miterlimit="10" d="M411.375,244.75c41.625-28.876,11.688-39.845,7.145-40.796
		c-38.295-8.013-51.711-10.133-51.711-10.133s-35.684-5.446-67.617,0.665c0,0-21.529,2.523,1.989,24.091L411.375,244.75z"/>
	<line fill="none" stroke="#FFFFFF" stroke-miterlimit="10" x1="81.667" y1="151.667" x2="277.248" y2="194.486"/>
	<line fill="none" stroke="#FFFFFF" stroke-miterlimit="10" x1="433.175" y1="225.554" x2="454.686" y2="229.903"/>
	<path fill="none" stroke="#FFFFFF" stroke-miterlimit="10" d="M290.186,287.5c-17.619-42.75,11.246-58.091,11.246-58.091"/>
	<path fill="none" stroke="#FFFFFF" stroke-miterlimit="10" d="M254.521,217.361c0,0-7.828,5.487,0.521,13.693"/>
	<path fill="none" stroke="#FFFFFF" stroke-miterlimit="10" d="M302.997,229.811l4.389,22.794
		c-3.682,4.565-1.046,17.818-1.046,17.818L290.186,287.5l-34.208-12.075c0,0-19.437-29.474,8.154-55.595"/>
	<line fill="none" stroke="#FFFFFF" stroke-miterlimit="10" x1="84.333" y1="221.462" x2="422.487" y2="333.667"/>
	<line fill="none" stroke="#FFFFFF" stroke-miterlimit="10" x1="423.36" y1="327" x2="292.377" y2="285.184"/>
	<path fill="none" stroke="#FFFFFF" stroke-miterlimit="10" d="M496.668,444.002c0,0,9.506-5.536,31.252-24.936"/>
	<line fill="none" stroke="#FFFFFF" stroke-miterlimit="10" x1="66.672" y1="241.359" x2="418.204" y2="372.084"/>
	<polyline fill="none" stroke="#FFFFFF" stroke-miterlimit="10" points="426.859,298.27 354.51,277.231 305.471,262.971 	"/>
	<path fill="none" stroke="#FFFFFF" stroke-miterlimit="10" d="M113.278,207.081c-34.341,11.887-44.334,28.33-44.334,28.33
		l350.391,125.718"/>
	<path fill="none" stroke="#FFFFFF" stroke-miterlimit="10" d="M67.836,281.114l-4.768-10.208
		c-7.351-25.442,3.604-29.547,3.604-29.547l3.705-5.435"/>
	<path fill="none" stroke="#FFFFFF" stroke-miterlimit="10" d="M549.308,246.343c-0.416-0.37-0.889-0.586-1.42-0.672
		c-1.416-0.229-3.251,0.468-5.553,1.665c-5.525,2.872-16.334,11.333-16.334,11.333c0,0-16.333,12.333-18.333,30.333
		s-7.334,87.666-7.334,87.666s-3.359,61.703-3.666,67.334s-20.668,24-20.668,24"/>
	<line fill="none" stroke="#FFFFFF" stroke-miterlimit="10" x1="398.425" y1="423.523" x2="64.604" y2="279.708"/>
	<path fill="none" stroke="#FFFFFF" stroke-width="3" stroke-miterlimit="10" d="M70.091,292.816
		c-21.162-15.454-29.085-34.65-29.085-34.65s-4.048-51.145-6.44-90.52c-1.558-25.646,77.108-25.646,77.108-25.646l377.765,72.816
		c1.631-0.548,2.562-0.815,2.562-0.815c30,8.667,57.308,32.34,57.308,32.34c2.913,2.586,3.07,12.667,1.36,37.993L545,387.668
		c0,0-3.334,30.334-69,80.334l-56.666-16.999c0,0-3.233-4.014-5.049-20.646l-15.86-6.834l-0.005-0.002
		C397,440.295,381.504,465,381.504,465L61,309.111c0,0,12.314-15.695,10.439-26.635"/>
	<path fill="none" stroke="#FFFFFF" stroke-miterlimit="10" d="M413.667,423.339"/>
	<polyline fill="none" stroke="#FFFFFF" stroke-miterlimit="10" points="82.086,173.076 89.335,190.268 84.333,193.451 
		87.218,199.502 249.638,246.734 	"/>
	<line fill="none" stroke="#FFFFFF" stroke-miterlimit="10" x1="305.687" y1="257.2" x2="427.737" y2="290.774"/>
	<line fill="none" stroke="#FFFFFF" stroke-miterlimit="10" x1="84.333" y1="193.451" x2="250.527" y2="241.109"/>
	<polygon stroke="#FFFFFF" stroke-miterlimit="10" points="222.997,228.325 221.572,230.96 219.112,227.38 	"/>
	<polygon stroke="#FFFFFF" stroke-miterlimit="10" points="161.269,210.925 160.56,213.734 158.1,210.154 	"/>
	<polygon stroke="#FFFFFF" stroke-miterlimit="10" points="107.742,195.532 107.589,198.476 105.129,194.896 	"/>
	<path fill="none" stroke="#FFFFFF" stroke-miterlimit="10" d="M387.524,305.225c0,0-6.778,0.935-6.853,8.201"/>
	<line fill="none" stroke="#FFFFFF" stroke-miterlimit="10" x1="298.786" y1="278.408" x2="320.094" y2="284.903"/>
	<polygon stroke="#FFFFFF" stroke-miterlimit="10" points="379.905,276.17 381.33,272.59 307.386,252.605 306.642,253.821 
		377.909,273.395 	"/>
	<path fill="none" stroke="#FFFFFF" stroke-miterlimit="10" d="M334.621,279.588c-0.156-0.978-0.594-1.751-1.312-2.156
		c-1.79-1.012-4.642,0.646-6.37,3.704s-1.68,6.356,0.111,7.368c1.788,1.012,4.642-0.646,6.37-3.704
		c0.343-0.607,0.616-1.224,0.819-1.831"/>
	<path fill="none" stroke="#FFFFFF" stroke-miterlimit="10" d="M327.051,288.504l-5.581-1.902c-1.791-1.012-1.84-4.311-0.111-7.368
		s4.316-4.176,6.37-3.704l5.581,1.902"/>
	<line fill="none" stroke="#FFFFFF" stroke-miterlimit="10" x1="88.344" y1="218.577" x2="254.223" y2="272.241"/>
	<path fill="none" stroke="#FFFFFF" stroke-miterlimit="10" d="M413.667,423.339"/>
	<path fill="none" stroke="#FFFFFF" stroke-width="3" stroke-miterlimit="10" d="M414.285,430.357l-0.618-7.019
		c6.334-77.666,13.335-125.831,17-153.003c3.78-34.892,47.631-51.775,58.771-55.519"/>
	<path fill="none" stroke="#FFFFFF" stroke-miterlimit="10" d="M116.804,221.34c-0.481-0.651-2.209-0.19-3.859,1.029
		c-1.651,1.219-2.599,2.735-2.119,3.386"/>
	<path fill="none" stroke="#FFFFFF" stroke-miterlimit="10" d="M107.712,224.628c-0.48-0.651,0.468-2.167,2.119-3.386
		c1.65-1.219,3.378-1.68,3.859-1.029"/>
	<path fill="none" stroke="#FFFFFF" stroke-miterlimit="10" d="M168.095,237.784c-0.481-0.651-2.209-0.19-3.859,1.029
		c-1.651,1.219-2.599,2.735-2.119,3.386"/>
	<path fill="none" stroke="#FFFFFF" stroke-miterlimit="10" d="M158.722,241.071c-0.48-0.651,0.468-2.167,2.119-3.386
		c1.65-1.219,3.217-1.66,3.859-1.167"/>
	<path fill="none" stroke="#FFFFFF" stroke-miterlimit="10" d="M219.29,260.849c-0.564-0.58,0.168-2.21,1.638-3.643
		c1.469-1.432,3.118-2.124,3.684-1.544l4.217,1.381c-0.566-0.58-2.214,0.112-3.684,1.544c-1.471,1.432-2.204,3.063-1.64,3.643"/>
	<polyline fill="none" stroke="#FFFFFF" stroke-miterlimit="10" points="215.541,252.749 163.868,236.148 116.903,221.06 
		95.981,214.338 	"/>
	<line fill="none" stroke="#FFFFFF" stroke-miterlimit="10" x1="251.125" y1="264.181" x2="223.33" y2="255.251"/>
	<path fill="none" stroke="#FFFFFF" stroke-miterlimit="10" d="M390.466,316.14c0.074-7.267,6.083-8.201,6.083-8.201l-66.098-19.878
		"/>
	<g>
		<path fill="none" stroke="#FFFFFF" stroke-miterlimit="10" d="M346.37,220.107c-0.482,0.613-1.494,0.952-2.248,0.755
			l-10.668-2.794c-0.754-0.197-0.968-0.853-0.475-1.457l1.521-1.862c0.493-0.604,1.515-0.94,2.27-0.748l10.629,2.706
			c0.755,0.192,0.979,0.851,0.496,1.463L346.37,220.107z"/>
	</g>
	<g>
		<path fill="none" stroke="#FFFFFF" stroke-miterlimit="10" d="M355.071,211.773c0.646-0.438,0.548-0.921-0.217-1.074
			l-10.103-2.015c-0.764-0.153-1.943,0.039-2.62,0.425l-3.405,1.944c-0.677,0.386-0.609,0.848,0.149,1.025l10.335,2.415
			c0.759,0.178,1.907-0.036,2.553-0.474L355.071,211.773z"/>
	</g>
	<g>
		<path fill="none" stroke="#FFFFFF" stroke-miterlimit="10" d="M389.962,230.871c-0.653,0.425-1.808,0.619-2.564,0.432
			l-11.941-2.955c-0.757-0.187-0.816-0.646-0.132-1.02l3.917-2.138c0.685-0.374,1.87-0.556,2.635-0.406l12.004,2.361
			c0.765,0.15,0.855,0.621,0.202,1.046L389.962,230.871z"/>
	</g>
	<path fill="none" stroke="#FFFFFF" stroke-miterlimit="10" d="M223.33,255.253c1.045-0.563,2.096-1.615,2.88-3.001
		c1.494-2.643,1.451-5.493-0.096-6.368c-1.547-0.875-4.012,0.559-5.505,3.201c-1.494,2.643-1.452,5.494,0.096,6.368
		C221.439,255.868,222.383,255.763,223.33,255.253"/>
	<path fill="none" stroke="#FFFFFF" stroke-miterlimit="10" d="M221.368,255.709l-4.823-1.644c-0.48-0.271-0.816-0.734-1.005-1.321
		c-0.42-1.304-0.121-3.225,0.909-5.047c1.494-2.643,3.73-3.609,5.505-3.201l3.364,1.146"/>
	<polyline fill="none" stroke="#FFFFFF" stroke-miterlimit="10" points="219.1,237.854 223.33,242.669 221.215,244.406 	"/>
	<path fill="none" stroke="#FFFFFF" stroke-miterlimit="10" d="M229.726,282.061c0.329-0.177,0.659-0.507,0.905-0.943
		c0.469-0.831,0.456-1.727-0.03-2.001s-1.261,0.176-1.73,1.006c-0.47,0.831-0.456,1.727,0.03,2.001
		C229.132,282.255,229.428,282.222,229.726,282.061"/>
	<path fill="none" stroke="#FFFFFF" stroke-miterlimit="10" d="M223.605,253.541c0.656-0.353,1.313-1.011,1.805-1.881
		c0.936-1.656,0.91-3.443-0.06-3.991c-0.97-0.548-2.515,0.351-3.451,2.007c-0.937,1.657-0.909,3.443,0.061,3.991
		C222.421,253.928,223.012,253.862,223.605,253.541"/>
	<line fill="none" stroke="#FFFFFF" stroke-miterlimit="10" x1="350.808" y1="280.62" x2="350.808" y2="276.17"/>
	<polyline fill="none" stroke="#FFFFFF" stroke-miterlimit="10" points="340.27,277.564 335.904,278.408 331.298,283.153 
		338.948,282.968 343.565,278.665 	"/>
	<path fill="none" stroke="#FFFFFF" stroke-miterlimit="10" d="M350.808,280.62"/>
	<polyline fill="none" stroke="#FFFFFF" stroke-miterlimit="10" points="354.51,277.231 350.808,280.62 323.205,272.616 
		322.47,269.363 320.569,268.523 320.569,267.361 	"/>
	<line fill="none" stroke="#FFFFFF" stroke-miterlimit="10" x1="323.681" y1="276.529" x2="326.701" y2="273.63"/>
	<ellipse transform="matrix(0.8705 0.4921 -0.4921 0.8705 182.1481 -125.9933)" cx="330.509" cy="283.153" rx="1.502" ry="2.565"/>
</g>
</svg>
