<?xml version="1.0" encoding="utf-8"?>
<!-- Generator: Adobe Illustrator 16.0.0, SVG Export Plug-In . SVG Version: 6.00 Build 0)  -->
<!DOCTYPE svg PUBLIC "-//W3C//DTD SVG 1.1//EN" "http://www.w3.org/Graphics/SVG/1.1/DTD/svg11.dtd">
<svg version="1.1" xmlns="http://www.w3.org/2000/svg" xmlns:xlink="http://www.w3.org/1999/xlink" x="0px" y="0px"
	 width="595.28px" height="595.28px" viewBox="0 0 595.28 595.28" enable-background="new 0 0 595.28 595.28" xml:space="preserve">
<g id="Ebene_1" display="none">
</g>
<g id="Ebene_2">
	<g>
		<path fill="none" stroke="#FFFFFF" stroke-width="3" stroke-linecap="round" stroke-linejoin="round" d="M259.609,522.07
			c53.846-3.795,107.695-7.592,161.541-11.385c6.205-0.2,12.57-0.274,18.372,1.696c4.094,1.394,7.91,3.804,11.234,6.599
			c10.304-0.705,20.607-1.411,30.907-2.115c0-112.684,0-225.363,0-338.045c-95.401,0.047-190.805,0.095-286.206,0.145
			c-22.485-0.457-44.973-0.915-67.459-1.372c-0.611,100.406-1.225,200.806-1.836,301.21c2.26,1.882,4.521,3.762,6.78,5.645
			c0.737-0.949,1.642-1.785,2.667-2.419c0.175-0.105,0.354-0.208,0.536-0.304c1.439-0.761,3.196-0.582,4.453,0.452
			c13.269,10.889,26.537,21.78,39.806,32.671c0.259,0.211,0.482,0.445,0.684,0.718c2.897,3.911,4.719,8.514,5.282,13.345
			c3.028,2.521,6.059,5.042,9.087,7.564c11.258-0.772,22.515-1.546,33.772-2.314c3.913-3.498,8.397-6.438,13.265-8.479
			C247.904,523.41,253.784,522.244,259.609,522.07z"/>
		<path fill="none" stroke="#FFFFFF" stroke-linecap="round" stroke-linejoin="round" d="M255.686,436.615
			c-0.106,0.022-0.206,0.039-0.307,0.077c-0.033,0.013-0.108,0.04-0.12,0.087c-0.022,0.098,0.299,0.153,0.352,0.166
			c0.287,0.06,0.578,0.089,0.871,0.11c0.582,0.047,1.168,0.062,1.754,0.062s1.166-0.015,1.752-0.062
			c0.289-0.021,0.58-0.051,0.869-0.11c0.051-0.013,0.374-0.068,0.353-0.166c-0.012-0.047-0.09-0.074-0.123-0.087
			c-0.101-0.038-0.202-0.055-0.302-0.077c0-20.969,0-41.943,0-62.913"/>
		<polyline fill="none" stroke="#FFFFFF" stroke-linecap="round" stroke-linejoin="round" points="432.314,350.268 432.314,351.417 
			226.778,359.633 		"/>
		<path fill="none" stroke="#FFFFFF" stroke-linecap="round" stroke-linejoin="round" d="M226.778,299.103
			c34.354-0.614,68.706-1.223,103.061-1.833c1.696,0.519,3.39,1.037,5.086,1.557c1.701,0.521,2.863,2.092,2.863,3.871
			c0,9.48,0,18.958,0,28.441"/>
		<polyline fill="none" stroke="#FFFFFF" stroke-linecap="round" stroke-linejoin="round" points="226.778,335.574 365.238,330.04 
			432.314,346.859 432.314,350.349 226.778,358.565 		"/>
		<path fill="none" stroke="#FFFFFF" stroke-linecap="round" stroke-linejoin="round" d="M312.251,371.643
			c0,20.842,0,41.683,0,62.523c3.043,1.105,6.39,1.004,9.36-0.272c0-20.875,0-41.749,0-62.624"/>
		<polyline fill="none" stroke="#FFFFFF" stroke-linecap="round" stroke-linejoin="round" points="434.504,455.281 380.357,434.1 
			365.831,428.417 365.831,369.502 		"/>
		<path fill="none" stroke="#FFFFFF" stroke-linecap="round" stroke-linejoin="round" d="M327.229,212.584
			c0.012,3.545,0.028,7.087,0.039,10.629c0.006,1.338,1.094,2.421,2.43,2.421c5.815,0,11.629,0,17.441,0
			c1.684,0,2.855,1.673,2.281,3.255c-3.982,11-7.969,22.001-11.955,33.002c-0.469-0.015-0.942-0.025-1.411-0.036"/>
		<path fill="none" stroke="#FFFFFF" stroke-linecap="round" stroke-linejoin="round" d="M297.858,264.631
			c11.509-0.115,23.011-0.227,34.519-0.338c2.159-0.023,3.922-1.735,4.006-3.892c0.362-9.383,0.726-18.765,1.088-28.148
			c0.09-2.295-1.746-4.204-4.045-4.204c-9.273,0-18.548,0-27.819,0c-2.236,0-4.05,1.813-4.05,4.047c0,9.501,0,19,0,28.5
			c0,2.775-2.728,4.729-5.354,3.83c-0.915-0.312-1.828-0.625-2.739-0.938c0-10.924,0-21.85,0-32.779c0-2.236,1.813-4.05,4.047-4.05
			c13.089,0,26.177,0,39.264,0"/>
		<path fill="none" stroke="#FFFFFF" stroke-linecap="round" stroke-linejoin="round" d="M255.613,373.908
			c-0.101,0.018-0.179,0.034-0.234,0.051c-0.067,0.021-0.104,0.039-0.104,0.061c0,0.021,0.036,0.04,0.104,0.062
			c0.066,0.021,0.168,0.04,0.296,0.062c0.131,0.02,0.29,0.039,0.474,0.062c0.185,0.017,0.391,0.039,0.617,0.059
			c0.226,0.02,0.465,0.041,0.716,0.062c0.251,0.02,0.514,0.041,0.771,0.058c0.262,0.023,0.521,0.043,0.773,0.062
			c0.25,0.023,0.493,0.043,0.716,0.062c0.226,0.023,0.436,0.043,0.62,0.062c0.183,0.022,0.34,0.039,0.47,0.062
			c0.132,0.02,0.231,0.039,0.299,0.062c0.067,0.02,0.101,0.039,0.101,0.062c0,0.016-0.033,0.039-0.101,0.058
			c-0.067,0.02-0.167,0.043-0.299,0.062c-0.13,0.02-0.287,0.043-0.47,0.062c-0.185,0.02-0.395,0.043-0.62,0.06
			c-0.223,0.021-0.466,0.041-0.716,0.061c-0.252,0.022-0.512,0.042-0.773,0.062c-0.257,0.022-0.52,0.039-0.771,0.062
			c-0.251,0.019-0.49,0.039-0.716,0.062c-0.227,0.019-0.433,0.038-0.617,0.061c-0.184,0.02-0.343,0.039-0.474,0.062
			c-0.128,0.018-0.229,0.039-0.296,0.059c-0.067,0.021-0.104,0.042-0.104,0.062c0,0.021,0.036,0.042,0.104,0.059
			c0.066,0.021,0.168,0.042,0.296,0.062c0.131,0.021,0.29,0.041,0.474,0.062c0.185,0.021,0.391,0.041,0.617,0.062
			c0.226,0.021,0.465,0.039,0.716,0.061c0.251,0.021,0.514,0.04,0.771,0.062c0.262,0.021,0.521,0.039,0.773,0.062
			c0.25,0.017,0.493,0.04,0.716,0.059c0.226,0.02,0.436,0.042,0.62,0.062c0.183,0.02,0.34,0.041,0.47,0.062
			c0.132,0.02,0.231,0.041,0.299,0.058c0.067,0.023,0.101,0.043,0.101,0.062c0,0.023-0.033,0.043-0.101,0.062
			c-0.067,0.023-0.167,0.039-0.299,0.062c-0.13,0.02-0.287,0.039-0.47,0.062c-0.185,0.02-0.395,0.039-0.62,0.062
			c-0.223,0.02-0.466,0.039-0.716,0.062c-0.252,0.016-0.512,0.039-0.773,0.059c-0.257,0.019-0.52,0.042-0.771,0.061
			c-0.251,0.02-0.49,0.043-0.716,0.06c-0.227,0.021-0.433,0.041-0.617,0.062c-0.184,0.021-0.343,0.041-0.474,0.061
			c-0.128,0.022-0.229,0.042-0.296,0.062c-0.067,0.022-0.104,0.039-0.104,0.062c0,0.019,0.036,0.039,0.104,0.062
			c0.066,0.019,0.168,0.039,0.296,0.062c0.131,0.017,0.29,0.038,0.474,0.059c0.185,0.02,0.391,0.041,0.617,0.062
			c0.226,0.02,0.465,0.041,0.716,0.058c0.251,0.023,0.514,0.045,0.771,0.062c0.262,0.023,0.521,0.042,0.773,0.062
			c0.25,0.021,0.493,0.042,0.716,0.062c0.226,0.021,0.436,0.039,0.62,0.062c0.183,0.02,0.34,0.039,0.47,0.062
			c0.132,0.02,0.231,0.039,0.299,0.061c0.067,0.021,0.101,0.04,0.101,0.062c0,0.017-0.033,0.039-0.101,0.059
			s-0.167,0.042-0.299,0.062c-0.13,0.02-0.287,0.041-0.47,0.058c-0.185,0.023-0.395,0.043-0.62,0.062
			c-0.223,0.023-0.466,0.043-0.716,0.062c-0.252,0.023-0.512,0.043-0.773,0.062c-0.257,0.023-0.52,0.04-0.771,0.062
			c-0.251,0.02-0.49,0.039-0.716,0.062c-0.227,0.02-0.433,0.039-0.617,0.062c-0.184,0.018-0.343,0.039-0.474,0.059
			c-0.128,0.02-0.229,0.042-0.296,0.061c-0.067,0.02-0.104,0.043-0.104,0.06c0,0.021,0.036,0.045,0.104,0.062
			c0.066,0.021,0.168,0.041,0.296,0.062c0.131,0.021,0.29,0.041,0.474,0.061c0.185,0.022,0.391,0.039,0.617,0.062
			c0.226,0.021,0.465,0.039,0.716,0.062c0.251,0.019,0.514,0.039,0.771,0.062c0.262,0.019,0.521,0.039,0.773,0.061
			c0.25,0.018,0.493,0.039,0.716,0.06c0.226,0.02,0.436,0.041,0.62,0.062c0.183,0.02,0.34,0.041,0.47,0.058
			c0.132,0.023,0.231,0.042,0.299,0.062c0.067,0.023,0.101,0.042,0.101,0.062c0,0.021-0.033,0.042-0.101,0.062
			c-0.067,0.021-0.167,0.039-0.299,0.062c-0.13,0.02-0.287,0.039-0.47,0.062c-0.185,0.02-0.395,0.039-0.62,0.062
			c-0.223,0.016-0.466,0.038-0.716,0.058c-0.252,0.02-0.512,0.043-0.773,0.062c-0.257,0.02-0.52,0.042-0.771,0.06
			c-0.251,0.021-0.49,0.044-0.716,0.061c-0.227,0.022-0.433,0.042-0.617,0.061c-0.184,0.023-0.343,0.043-0.474,0.062
			c-0.128,0.023-0.229,0.04-0.296,0.062c-0.067,0.02-0.104,0.04-0.104,0.062c0,0.02,0.036,0.039,0.104,0.062
			c0.066,0.02,0.168,0.039,0.296,0.062c0.131,0.018,0.29,0.039,0.474,0.058c0.185,0.021,0.391,0.043,0.617,0.063
			c0.226,0.02,0.465,0.042,0.716,0.059c0.251,0.021,0.514,0.042,0.771,0.062c0.262,0.021,0.521,0.042,0.773,0.062
			c0.25,0.021,0.493,0.041,0.716,0.062c0.226,0.021,0.436,0.038,0.62,0.062c0.183,0.02,0.34,0.038,0.47,0.061
			c0.132,0.021,0.231,0.039,0.299,0.062c0.067,0.017,0.101,0.039,0.101,0.059s-0.033,0.042-0.101,0.062s-0.167,0.041-0.299,0.058
			c-0.13,0.023-0.287,0.045-0.47,0.062c-0.185,0.023-0.395,0.042-0.62,0.062c-0.223,0.023-0.466,0.042-0.716,0.062
			c-0.252,0.021-0.512,0.039-0.773,0.062c-0.257,0.02-0.52,0.039-0.771,0.062c-0.251,0.02-0.49,0.039-0.716,0.062
			c-0.227,0.02-0.433,0.039-0.617,0.062c-0.184,0.016-0.343,0.039-0.474,0.058c-0.128,0.02-0.229,0.042-0.296,0.062
			c-0.067,0.02-0.104,0.042-0.104,0.06c0,0.021,0.036,0.041,0.104,0.062c0.066,0.021,0.168,0.041,0.296,0.06
			c0.131,0.023,0.29,0.043,0.474,0.062c0.185,0.023,0.391,0.04,0.617,0.062c0.226,0.02,0.465,0.04,0.716,0.062
			c0.251,0.02,0.514,0.039,0.771,0.062c0.262,0.018,0.521,0.039,0.773,0.06c0.25,0.02,0.493,0.041,0.716,0.061
			c0.226,0.02,0.436,0.042,0.62,0.059c0.183,0.023,0.34,0.045,0.47,0.062c0.132,0.021,0.231,0.042,0.299,0.062
			c0.067,0.021,0.101,0.042,0.101,0.062c0,0.021-0.033,0.038-0.101,0.062c-0.067,0.02-0.167,0.038-0.299,0.062
			c-0.13,0.02-0.287,0.038-0.47,0.061c-0.185,0.021-0.395,0.039-0.62,0.062c-0.223,0.017-0.466,0.039-0.716,0.059
			c-0.252,0.02-0.512,0.042-0.773,0.062c-0.257,0.02-0.52,0.042-0.771,0.058c-0.251,0.023-0.49,0.043-0.716,0.062
			c-0.227,0.023-0.433,0.042-0.617,0.062c-0.184,0.023-0.343,0.042-0.474,0.062c-0.128,0.02-0.229,0.039-0.296,0.062
			c-0.067,0.02-0.104,0.039-0.104,0.062c0,0.02,0.036,0.039,0.104,0.062c0.066,0.017,0.168,0.039,0.296,0.058
			c0.131,0.021,0.29,0.043,0.474,0.062c0.185,0.02,0.391,0.043,0.617,0.06c0.226,0.021,0.465,0.044,0.716,0.062
			c0.251,0.021,0.514,0.041,0.771,0.062c0.262,0.021,0.521,0.041,0.773,0.062c0.25,0.021,0.493,0.038,0.716,0.06
			c0.226,0.021,0.436,0.04,0.62,0.062c0.183,0.021,0.34,0.04,0.47,0.062c0.132,0.02,0.231,0.04,0.299,0.062
			c0.067,0.018,0.101,0.039,0.101,0.06c0,0.02-0.033,0.041-0.101,0.062c-0.067,0.02-0.167,0.041-0.299,0.058
			c-0.13,0.022-0.287,0.042-0.47,0.062c-0.185,0.022-0.395,0.042-0.62,0.062c-0.223,0.021-0.466,0.042-0.716,0.062
			c-0.252,0.02-0.512,0.038-0.773,0.062c-0.257,0.02-0.52,0.038-0.771,0.062c-0.251,0.02-0.49,0.038-0.716,0.061
			c-0.227,0.017-0.433,0.039-0.617,0.059c-0.184,0.02-0.343,0.042-0.474,0.062c-0.128,0.02-0.229,0.042-0.296,0.06
			c-0.067,0.021-0.104,0.044-0.104,0.06c0,0.023,0.036,0.042,0.104,0.062c0.066,0.023,0.168,0.042,0.296,0.062
			c0.131,0.023,0.29,0.04,0.474,0.062c0.185,0.02,0.391,0.039,0.617,0.062c0.226,0.02,0.465,0.039,0.716,0.062
			c0.251,0.02,0.514,0.039,0.771,0.062c0.262,0.017,0.521,0.039,0.773,0.058c0.25,0.021,0.493,0.043,0.716,0.062
			c0.226,0.02,0.436,0.042,0.62,0.06c0.183,0.021,0.34,0.042,0.47,0.062c0.132,0.021,0.231,0.041,0.299,0.062
			c0.067,0.021,0.101,0.041,0.101,0.062c0,0.019-0.033,0.038-0.101,0.06c-0.067,0.021-0.167,0.04-0.299,0.062
			c-0.13,0.021-0.287,0.04-0.47,0.062c-0.185,0.018-0.395,0.04-0.62,0.06c-0.223,0.02-0.466,0.042-0.716,0.062
			c-0.252,0.02-0.512,0.041-0.773,0.062c-0.257,0.019-0.52,0.041-0.771,0.058c-0.251,0.023-0.49,0.042-0.716,0.062
			c-0.227,0.022-0.433,0.042-0.617,0.062c-0.184,0.022-0.343,0.039-0.474,0.062c-0.128,0.02-0.229,0.038-0.296,0.062
			c-0.067,0.02-0.104,0.038-0.104,0.062c0,0.02,0.036,0.038,0.104,0.062c0.066,0.016,0.168,0.038,0.296,0.058
			c0.131,0.02,0.29,0.042,0.474,0.062c0.185,0.02,0.391,0.042,0.617,0.06c0.226,0.021,0.465,0.04,0.716,0.062
			s0.514,0.041,0.771,0.06c0.262,0.023,0.521,0.042,0.773,0.062c0.25,0.023,0.493,0.04,0.716,0.062
			c0.226,0.02,0.436,0.04,0.62,0.062c0.183,0.02,0.34,0.04,0.47,0.062c0.132,0.017,0.231,0.039,0.299,0.06
			c0.067,0.019,0.101,0.041,0.101,0.06c0,0.021-0.033,0.043-0.101,0.062c-0.067,0.021-0.167,0.043-0.299,0.06
			c-0.13,0.021-0.287,0.042-0.47,0.062c-0.185,0.021-0.395,0.042-0.62,0.062c-0.223,0.021-0.466,0.038-0.716,0.062
			c-0.252,0.019-0.512,0.038-0.773,0.06c-0.257,0.021-0.52,0.04-0.771,0.062c-0.251,0.021-0.49,0.04-0.716,0.062
			c-0.227,0.018-0.433,0.04-0.617,0.06c-0.184,0.02-0.343,0.042-0.474,0.062c-0.128,0.02-0.229,0.041-0.296,0.058
			c-0.067,0.023-0.104,0.042-0.104,0.062c0,0.022,0.036,0.042,0.104,0.062c0.066,0.022,0.168,0.04,0.296,0.062
			c0.131,0.022,0.29,0.038,0.474,0.062c0.185,0.02,0.391,0.038,0.617,0.062c0.226,0.02,0.465,0.038,0.716,0.062
			c0.251,0.017,0.514,0.038,0.771,0.058c0.262,0.02,0.521,0.042,0.773,0.062c0.25,0.02,0.493,0.042,0.716,0.062
			c0.226,0.02,0.436,0.042,0.62,0.06c0.183,0.021,0.34,0.041,0.47,0.061c0.132,0.022,0.231,0.041,0.299,0.061
			c0.067,0.023,0.101,0.04,0.101,0.062c0,0.021-0.033,0.04-0.101,0.062c-0.067,0.02-0.167,0.04-0.299,0.062
			c-0.13,0.02-0.287,0.04-0.47,0.062c-0.185,0.017-0.395,0.039-0.62,0.06c-0.223,0.019-0.466,0.041-0.716,0.062
			c-0.252,0.019-0.512,0.041-0.773,0.058c-0.257,0.022-0.52,0.042-0.771,0.062c-0.251,0.022-0.49,0.042-0.716,0.062
			c-0.227,0.021-0.433,0.038-0.617,0.062c-0.184,0.021-0.343,0.038-0.474,0.062c-0.128,0.019-0.229,0.038-0.296,0.062
			c-0.067,0.019-0.104,0.038-0.104,0.062c0,0.016,0.036,0.038,0.104,0.058c0.066,0.02,0.168,0.042,0.296,0.062
			c0.131,0.02,0.29,0.042,0.474,0.062c0.185,0.02,0.391,0.042,0.617,0.058c0.226,0.023,0.465,0.042,0.716,0.062
			c0.251,0.023,0.514,0.042,0.771,0.062c0.262,0.022,0.521,0.04,0.773,0.062c0.25,0.02,0.493,0.04,0.716,0.062
			c0.226,0.02,0.436,0.038,0.62,0.062c0.183,0.02,0.34,0.038,0.47,0.062c0.132,0.017,0.231,0.038,0.299,0.058
			c0.067,0.021,0.101,0.042,0.101,0.062s-0.033,0.042-0.101,0.06c-0.067,0.021-0.167,0.042-0.299,0.062
			c-0.13,0.021-0.287,0.04-0.47,0.062c-0.185,0.021-0.395,0.038-0.62,0.061c-0.223,0.022-0.466,0.039-0.716,0.061
			c-0.252,0.021-0.512,0.04-0.773,0.062c-0.257,0.02-0.52,0.04-0.771,0.062c-0.251,0.017-0.49,0.04-0.716,0.06
			c-0.227,0.019-0.433,0.041-0.617,0.062c-0.184,0.019-0.343,0.041-0.474,0.062c-0.128,0.019-0.229,0.041-0.296,0.058
			c-0.067,0.022-0.104,0.042-0.104,0.062c0,0.022,0.036,0.042,0.104,0.062c0.066,0.021,0.168,0.038,0.296,0.062
			c0.131,0.019,0.29,0.038,0.474,0.062c0.185,0.019,0.391,0.038,0.617,0.062c0.226,0.019,0.465,0.038,0.716,0.062
			c0.251,0.016,0.514,0.038,0.771,0.058c0.262,0.02,0.521,0.042,0.773,0.062c0.25,0.02,0.493,0.042,0.716,0.059
			c0.226,0.022,0.436,0.041,0.62,0.061c0.183,0.023,0.34,0.042,0.47,0.062c0.132,0.022,0.231,0.04,0.299,0.062
			c0.067,0.022,0.101,0.04,0.101,0.062c0,0.02-0.033,0.04-0.101,0.062c-0.067,0.02-0.167,0.038-0.299,0.062
			c-0.13,0.017-0.287,0.038-0.47,0.059c-0.185,0.02-0.395,0.041-0.62,0.061c-0.223,0.021-0.466,0.042-0.716,0.062
			c-0.252,0.021-0.512,0.042-0.773,0.06c-0.257,0.021-0.52,0.042-0.771,0.062c-0.251,0.021-0.49,0.042-0.716,0.061
			c-0.227,0.022-0.433,0.039-0.617,0.063c-0.184,0.019-0.343,0.038-0.474,0.061c-0.128,0.02-0.229,0.039-0.296,0.061
			c-0.067,0.021-0.104,0.04-0.104,0.06c0,0.019,0.036,0.042,0.104,0.062c0.066,0.019,0.168,0.042,0.296,0.062
			c0.131,0.019,0.29,0.041,0.474,0.058c0.185,0.022,0.391,0.042,0.617,0.062c0.226,0.022,0.465,0.042,0.716,0.062
			c0.251,0.022,0.514,0.04,0.771,0.062c0.262,0.022,0.521,0.038,0.773,0.062c0.25,0.02,0.493,0.038,0.716,0.062
			c0.226,0.019,0.436,0.038,0.62,0.062c0.183,0.017,0.34,0.038,0.47,0.058c0.132,0.021,0.231,0.042,0.299,0.062
			s0.101,0.042,0.101,0.062s-0.033,0.042-0.101,0.059c-0.067,0.022-0.167,0.041-0.299,0.062c-0.13,0.022-0.287,0.041-0.47,0.061
			c-0.185,0.023-0.395,0.04-0.62,0.062c-0.223,0.021-0.466,0.04-0.716,0.062c-0.252,0.02-0.512,0.04-0.773,0.062
			c-0.257,0.02-0.52,0.038-0.771,0.059c-0.251,0.02-0.49,0.041-0.716,0.062c-0.227,0.02-0.433,0.041-0.617,0.061
			c-0.184,0.021-0.343,0.042-0.474,0.06c-0.128,0.022-0.229,0.042-0.296,0.062c-0.067,0.021-0.104,0.042-0.104,0.062
			c0,0.021,0.036,0.038,0.104,0.062c0.066,0.021,0.168,0.038,0.296,0.061c0.131,0.02,0.29,0.039,0.474,0.062
			c0.185,0.02,0.391,0.039,0.617,0.061c0.226,0.017,0.465,0.04,0.716,0.06c0.251,0.019,0.514,0.042,0.771,0.062
			c0.262,0.019,0.521,0.042,0.773,0.062c0.25,0.019,0.493,0.042,0.716,0.058c0.226,0.022,0.436,0.042,0.62,0.062
			c0.183,0.022,0.34,0.042,0.47,0.062c0.132,0.022,0.231,0.04,0.299,0.062c0.067,0.02,0.101,0.038,0.101,0.062
			c0,0.019-0.033,0.038-0.101,0.062c-0.067,0.019-0.167,0.038-0.299,0.058c-0.13,0.021-0.287,0.042-0.47,0.062
			c-0.185,0.021-0.395,0.042-0.62,0.062c-0.223,0.02-0.466,0.042-0.716,0.059c-0.252,0.022-0.512,0.043-0.773,0.062
			c-0.257,0.022-0.52,0.041-0.771,0.062c-0.251,0.022-0.49,0.039-0.716,0.062c-0.227,0.021-0.433,0.039-0.617,0.061
			c-0.184,0.021-0.343,0.04-0.474,0.062c-0.128,0.021-0.229,0.04-0.296,0.062c-0.067,0.017-0.104,0.04-0.104,0.059
			c0,0.02,0.036,0.043,0.104,0.062c0.066,0.02,0.168,0.041,0.296,0.062c0.131,0.02,0.29,0.041,0.474,0.059
			c0.185,0.022,0.391,0.042,0.617,0.062c0.226,0.022,0.465,0.042,0.716,0.062c0.251,0.021,0.514,0.038,0.771,0.062
			c0.262,0.019,0.521,0.038,0.773,0.062c0.25,0.019,0.493,0.038,0.716,0.061c0.226,0.02,0.436,0.039,0.62,0.059
			c0.183,0.02,0.34,0.042,0.47,0.062c0.132,0.019,0.231,0.042,0.299,0.062c0.067,0.019,0.101,0.042,0.101,0.059
			c0,0.021-0.033,0.041-0.101,0.062c-0.067,0.021-0.167,0.041-0.299,0.061c-0.13,0.022-0.287,0.04-0.47,0.062
			c-0.185,0.022-0.395,0.04-0.62,0.062c-0.223,0.019-0.466,0.04-0.716,0.062c-0.252,0.02-0.512,0.038-0.773,0.062
			c-0.257,0.017-0.52,0.038-0.771,0.058c-0.251,0.021-0.49,0.042-0.716,0.062c-0.227,0.021-0.433,0.042-0.617,0.062
			c-0.184,0.02-0.343,0.042-0.474,0.059c-0.128,0.022-0.229,0.043-0.296,0.062c-0.067,0.022-0.104,0.041-0.104,0.062
			c0,0.022,0.036,0.039,0.104,0.062c0.066,0.02,0.168,0.039,0.296,0.061c0.131,0.021,0.29,0.04,0.474,0.062
			c0.185,0.017,0.391,0.04,0.617,0.059c0.226,0.02,0.465,0.043,0.716,0.062c0.251,0.02,0.514,0.043,0.771,0.062
			c0.262,0.02,0.521,0.041,0.773,0.059c0.25,0.022,0.493,0.042,0.716,0.062c0.226,0.022,0.436,0.042,0.62,0.062
			c0.183,0.022,0.34,0.038,0.47,0.062c0.132,0.022,0.231,0.038,0.299,0.062c0.067,0.019,0.101,0.038,0.101,0.061
			c0,0.02-0.033,0.039-0.101,0.062c-0.067,0.018-0.167,0.039-0.299,0.059c-0.13,0.019-0.287,0.042-0.47,0.062
			c-0.185,0.019-0.395,0.042-0.62,0.062c-0.223,0.019-0.466,0.042-0.716,0.059c-0.252,0.021-0.512,0.041-0.773,0.062
			c-0.257,0.021-0.52,0.041-0.771,0.061c-0.251,0.022-0.49,0.04-0.716,0.062c-0.227,0.021-0.433,0.04-0.617,0.062
			c-0.184,0.02-0.343,0.039-0.474,0.062c-0.128,0.017-0.229,0.04-0.296,0.062c-0.067,0.017-0.104,0.038-0.104,0.059
			c0,0.02,0.036,0.041,0.104,0.062c0.066,0.02,0.168,0.041,0.296,0.058c0.131,0.023,0.29,0.043,0.474,0.062
			c0.185,0.022,0.391,0.043,0.617,0.062c0.226,0.022,0.465,0.039,0.716,0.062s0.514,0.039,0.771,0.062
			c0.262,0.02,0.521,0.039,0.773,0.062c0.25,0.02,0.493,0.039,0.716,0.061c0.226,0.017,0.436,0.04,0.62,0.06
			c0.183,0.019,0.34,0.042,0.47,0.061c0.132,0.02,0.231,0.043,0.299,0.062c0.067,0.02,0.101,0.041,0.101,0.059
			c0,0.022-0.033,0.042-0.101,0.062c-0.067,0.022-0.167,0.042-0.299,0.062c-0.13,0.022-0.287,0.039-0.47,0.062
			c-0.185,0.019-0.395,0.038-0.62,0.062c-0.223,0.019-0.466,0.038-0.716,0.062c-0.252,0.017-0.512,0.038-0.773,0.061
			c-0.257,0.018-0.52,0.039-0.771,0.059s-0.49,0.042-0.716,0.062c-0.227,0.019-0.433,0.042-0.617,0.059
			c-0.184,0.021-0.343,0.041-0.474,0.062c-0.128,0.021-0.229,0.041-0.296,0.062c-0.067,0.021-0.104,0.041-0.104,0.061
			c0,0.022,0.036,0.04,0.104,0.062c0.066,0.021,0.168,0.04,0.296,0.062c0.131,0.02,0.29,0.04,0.474,0.062
			c0.185,0.017,0.391,0.039,0.617,0.059c0.226,0.02,0.465,0.041,0.716,0.062c0.251,0.02,0.514,0.041,0.771,0.062
			c0.262,0.02,0.521,0.041,0.773,0.058c0.25,0.023,0.493,0.043,0.716,0.062c0.226,0.023,0.436,0.043,0.62,0.062
			c0.183,0.022,0.34,0.039,0.47,0.062c0.132,0.02,0.231,0.039,0.299,0.062c0.067,0.02,0.101,0.039,0.101,0.062
			c0,0.016-0.033,0.039-0.101,0.062c-0.067,0.016-0.167,0.039-0.299,0.058c-0.13,0.02-0.287,0.043-0.47,0.062
			c-0.185,0.02-0.395,0.043-0.62,0.06c-0.223,0.021-0.466,0.041-0.716,0.061c-0.252,0.022-0.512,0.042-0.773,0.062
			c-0.257,0.022-0.52,0.042-0.771,0.062c-0.251,0.022-0.49,0.039-0.716,0.062c-0.227,0.019-0.433,0.039-0.617,0.062
			c-0.184,0.019-0.343,0.038-0.474,0.061c-0.128,0.018-0.229,0.039-0.296,0.06c-0.067,0.02-0.104,0.041-0.104,0.061
			c0,0.021,0.036,0.042,0.104,0.062c0.066,0.021,0.168,0.039,0.296,0.059c0.131,0.021,0.29,0.042,0.474,0.062
			c0.185,0.021,0.391,0.042,0.617,0.062c0.226,0.021,0.465,0.039,0.716,0.062c0.251,0.02,0.514,0.039,0.771,0.061
			c0.262,0.021,0.521,0.04,0.773,0.062c0.25,0.017,0.493,0.039,0.716,0.062c0.226,0.017,0.436,0.04,0.62,0.059
			c0.183,0.02,0.34,0.041,0.47,0.062c0.132,0.02,0.231,0.041,0.299,0.059c0.067,0.022,0.101,0.042,0.101,0.061
			c0,0.023-0.033,0.043-0.101,0.062c-0.067,0.023-0.167,0.043-0.299,0.062c-0.13,0.022-0.287,0.039-0.47,0.062
			c-0.185,0.02-0.395,0.039-0.62,0.062c-0.223,0.02-0.466,0.039-0.716,0.062c-0.252,0.018-0.512,0.039-0.773,0.058
			c-0.257,0.02-0.52,0.043-0.771,0.063c-0.251,0.019-0.49,0.042-0.716,0.061c-0.227,0.02-0.433,0.039-0.617,0.06
			c-0.184,0.021-0.343,0.041-0.474,0.061c-0.128,0.022-0.229,0.042-0.296,0.062c-0.067,0.022-0.104,0.039-0.104,0.062
			c0,0.019,0.036,0.039,0.104,0.062c0.066,0.019,0.168,0.039,0.296,0.062c0.131,0.017,0.29,0.038,0.474,0.062
			c0.185,0.017,0.391,0.038,0.617,0.059c0.226,0.02,0.465,0.041,0.716,0.061c0.251,0.021,0.514,0.042,0.771,0.059
			c0.262,0.023,0.521,0.042,0.773,0.062c0.25,0.021,0.493,0.042,0.716,0.062c0.226,0.021,0.436,0.042,0.62,0.062
			c0.183,0.021,0.34,0.039,0.47,0.062c0.132,0.02,0.231,0.039,0.299,0.062c0.067,0.02,0.101,0.039,0.101,0.061
			c0,0.017-0.033,0.04-0.101,0.059c-0.067,0.02-0.167,0.042-0.299,0.062c-0.13,0.02-0.287,0.042-0.47,0.062
			c-0.185,0.02-0.395,0.039-0.62,0.058c-0.223,0.023-0.466,0.043-0.716,0.062c-0.252,0.023-0.512,0.043-0.773,0.062
			c-0.257,0.023-0.52,0.04-0.771,0.062c-0.251,0.02-0.49,0.039-0.716,0.062c-0.227,0.02-0.433,0.039-0.617,0.062
			c-0.184,0.018-0.343,0.039-0.474,0.062c-0.128,0.018-0.229,0.039-0.296,0.059c-0.067,0.02-0.104,0.042-0.104,0.061
			c0,0.02,0.036,0.043,0.104,0.06c0.066,0.021,0.168,0.042,0.296,0.062c0.131,0.021,0.29,0.041,0.474,0.062
			c0.185,0.021,0.391,0.041,0.617,0.062c0.226,0.021,0.465,0.038,0.716,0.061c0.251,0.021,0.514,0.039,0.771,0.062
			c0.262,0.019,0.521,0.039,0.773,0.062c0.25,0.017,0.493,0.039,0.716,0.059c0.226,0.02,0.436,0.041,0.62,0.062
			c0.183,0.02,0.34,0.041,0.47,0.061c0.132,0.021,0.231,0.04,0.299,0.059c0.067,0.023,0.101,0.042,0.101,0.062
			c0,0.021-0.033,0.042-0.101,0.062c-0.067,0.021-0.167,0.039-0.299,0.062c-0.13,0.02-0.287,0.039-0.47,0.062
			c-0.185,0.02-0.395,0.039-0.62,0.062c-0.223,0.016-0.466,0.039-0.716,0.061c-0.252,0.017-0.512,0.04-0.773,0.059
			c-0.257,0.02-0.52,0.043-0.771,0.062c-0.251,0.02-0.49,0.042-0.716,0.06c-0.227,0.021-0.433,0.041-0.617,0.061
			c-0.184,0.022-0.343,0.042-0.474,0.061c-0.128,0.023-0.229,0.043-0.296,0.062c-0.067,0.023-0.104,0.04-0.104,0.062
			c0,0.02,0.036,0.039,0.104,0.062c0.066,0.02,0.168,0.039,0.296,0.062c0.131,0.018,0.29,0.039,0.474,0.059
			c0.185,0.021,0.391,0.042,0.617,0.062c0.226,0.021,0.465,0.042,0.716,0.059c0.251,0.021,0.514,0.042,0.771,0.062
			c0.262,0.021,0.521,0.042,0.773,0.062c0.25,0.021,0.493,0.041,0.716,0.062c0.226,0.021,0.436,0.038,0.62,0.062
			c0.183,0.02,0.34,0.038,0.47,0.061c0.132,0.021,0.231,0.039,0.299,0.062c0.067,0.017,0.101,0.039,0.101,0.062
			c0,0.017-0.033,0.039-0.101,0.059s-0.167,0.042-0.299,0.062c-0.13,0.02-0.287,0.041-0.47,0.058
			c-0.185,0.023-0.395,0.042-0.62,0.062c-0.223,0.023-0.466,0.042-0.716,0.062c-0.252,0.023-0.512,0.042-0.773,0.062
			c-0.257,0.023-0.52,0.039-0.771,0.062c-0.251,0.02-0.49,0.039-0.716,0.062c-0.227,0.02-0.433,0.039-0.617,0.062
			c-0.184,0.017-0.343,0.039-0.474,0.058c-0.128,0.02-0.229,0.043-0.296,0.062c-0.067,0.02-0.104,0.042-0.104,0.06
			c0,0.021,0.036,0.041,0.104,0.062c0.066,0.021,0.168,0.041,0.296,0.062c0.131,0.021,0.29,0.041,0.474,0.06
			c0.185,0.023,0.391,0.04,0.617,0.062c0.226,0.021,0.465,0.04,0.716,0.062c0.251,0.02,0.514,0.04,0.771,0.062
			c0.262,0.018,0.521,0.039,0.773,0.062c0.25,0.018,0.493,0.039,0.716,0.06c0.226,0.02,0.436,0.041,0.62,0.061
			c0.183,0.02,0.34,0.042,0.47,0.059c0.132,0.021,0.231,0.042,0.299,0.062c0.067,0.021,0.101,0.042,0.101,0.062
			c0,0.021-0.033,0.041-0.101,0.062c-0.067,0.021-0.167,0.038-0.299,0.062c-0.13,0.02-0.287,0.038-0.47,0.061
			c-0.185,0.021-0.395,0.039-0.62,0.062c-0.223,0.017-0.466,0.039-0.716,0.059c-0.252,0.02-0.512,0.042-0.773,0.062
			c-0.257,0.02-0.52,0.042-0.771,0.058c-0.251,0.023-0.49,0.042-0.716,0.062c-0.227,0.023-0.433,0.043-0.617,0.062
			c-0.184,0.023-0.343,0.042-0.474,0.062c-0.128,0.023-0.229,0.039-0.296,0.062c-0.067,0.02-0.104,0.039-0.104,0.062
			c0,0.02,0.036,0.039,0.104,0.062c0.066,0.017,0.168,0.039,0.296,0.062c0.131,0.017,0.29,0.039,0.474,0.058
			c0.185,0.02,0.391,0.043,0.617,0.062c0.226,0.02,0.465,0.043,0.716,0.06c0.251,0.021,0.514,0.041,0.771,0.062
			c0.262,0.021,0.521,0.041,0.773,0.062c0.25,0.021,0.493,0.041,0.716,0.06c0.226,0.023,0.436,0.04,0.62,0.062
			c0.183,0.021,0.34,0.04,0.47,0.062c0.132,0.02,0.231,0.04,0.299,0.062c0.067,0.018,0.101,0.04,0.101,0.06
			s-0.033,0.041-0.101,0.062c-0.067,0.02-0.167,0.041-0.299,0.058c-0.13,0.023-0.287,0.042-0.47,0.062
			c-0.185,0.022-0.395,0.042-0.62,0.062c-0.223,0.022-0.466,0.042-0.716,0.062c-0.252,0.021-0.512,0.038-0.773,0.062
			c-0.257,0.02-0.52,0.038-0.771,0.062c-0.251,0.02-0.49,0.038-0.716,0.062c-0.227,0.016-0.433,0.038-0.617,0.061
			c-0.184,0.017-0.343,0.039-0.474,0.059c-0.128,0.02-0.229,0.042-0.296,0.062c-0.067,0.02-0.104,0.042-0.104,0.06
			c0,0.021,0.036,0.041,0.104,0.06c0.066,0.023,0.168,0.042,0.296,0.062c0.131,0.023,0.29,0.042,0.474,0.062
			c0.185,0.023,0.391,0.04,0.617,0.062c0.226,0.02,0.465,0.04,0.716,0.062c0.251,0.02,0.514,0.039,0.771,0.062
			c0.262,0.017,0.521,0.039,0.773,0.058c0.25,0.021,0.493,0.043,0.716,0.062c0.226,0.021,0.436,0.043,0.62,0.06
			c0.183,0.021,0.34,0.044,0.47,0.062c0.132,0.021,0.231,0.042,0.299,0.062c0.067,0.021,0.101,0.041,0.101,0.062
			c0,0.021-0.033,0.038-0.101,0.06c-0.067,0.021-0.167,0.04-0.299,0.062c-0.13,0.021-0.287,0.04-0.47,0.062
			c-0.185,0.018-0.395,0.04-0.62,0.062c-0.223,0.018-0.466,0.04-0.716,0.06c-0.252,0.02-0.512,0.041-0.773,0.062
			c-0.257,0.02-0.52,0.041-0.771,0.058c-0.251,0.023-0.49,0.042-0.716,0.062c-0.227,0.023-0.433,0.042-0.617,0.062
			c-0.184,0.022-0.343,0.042-0.474,0.062c-0.128,0.02-0.229,0.039-0.296,0.062c-0.067,0.02-0.104,0.038-0.104,0.062
			c0,0.02,0.036,0.038,0.104,0.062c0.066,0.016,0.168,0.038,0.296,0.058c0.131,0.02,0.29,0.042,0.474,0.062
			c0.185,0.02,0.391,0.042,0.617,0.06c0.226,0.021,0.465,0.044,0.716,0.062c0.251,0.021,0.514,0.041,0.771,0.06
			c0.262,0.023,0.521,0.043,0.773,0.062c0.25,0.023,0.493,0.04,0.716,0.062c0.226,0.02,0.436,0.04,0.62,0.062
			c0.183,0.02,0.34,0.04,0.47,0.062c0.132,0.02,0.231,0.039,0.299,0.062c0.067,0.017,0.101,0.039,0.101,0.06
			c0,0.019-0.033,0.041-0.101,0.06c-0.067,0.021-0.167,0.043-0.299,0.06c-0.13,0.022-0.287,0.042-0.47,0.062
			c-0.185,0.021-0.395,0.042-0.62,0.062c-0.223,0.021-0.466,0.042-0.716,0.062c-0.252,0.019-0.512,0.038-0.773,0.062
			c-0.257,0.019-0.52,0.038-0.771,0.062c-0.251,0.019-0.49,0.038-0.716,0.06c-0.227,0.018-0.433,0.04-0.617,0.06
			c-0.184,0.02-0.343,0.042-0.474,0.062c-0.128,0.02-0.229,0.042-0.296,0.058c-0.067,0.023-0.104,0.045-0.104,0.062
			c0,0.023,0.036,0.042,0.104,0.062c0.066,0.022,0.168,0.042,0.296,0.062c0.131,0.023,0.29,0.04,0.474,0.062
			c0.185,0.02,0.391,0.038,0.617,0.062c0.226,0.02,0.465,0.038,0.716,0.062c0.251,0.02,0.514,0.038,0.771,0.062
			c0.262,0.017,0.521,0.038,0.773,0.058c0.25,0.02,0.493,0.042,0.716,0.062c0.226,0.02,0.436,0.042,0.62,0.06
			c0.183,0.021,0.34,0.041,0.47,0.062c0.132,0.021,0.231,0.041,0.299,0.061c0.067,0.022,0.101,0.041,0.101,0.061
			c0,0.021-0.033,0.04-0.101,0.062c-0.067,0.02-0.167,0.04-0.299,0.062c-0.13,0.02-0.287,0.04-0.47,0.062
			c-0.185,0.017-0.395,0.039-0.62,0.06c-0.223,0.019-0.466,0.041-0.716,0.062c-0.252,0.019-0.512,0.041-0.773,0.058
			c-0.257,0.022-0.52,0.045-0.771,0.062c-0.251,0.022-0.49,0.042-0.716,0.062c-0.227,0.021-0.433,0.042-0.617,0.062
			c-0.184,0.021-0.343,0.038-0.474,0.062c-0.128,0.02-0.229,0.038-0.296,0.062c-0.067,0.019-0.104,0.038-0.104,0.062
			c0,0.019,0.036,0.038,0.104,0.06c0.066,0.018,0.168,0.04,0.296,0.06c0.131,0.02,0.29,0.042,0.474,0.062
			c0.185,0.02,0.391,0.042,0.617,0.058c0.226,0.023,0.465,0.042,0.716,0.062c0.251,0.023,0.514,0.042,0.771,0.062
			c0.262,0.023,0.521,0.04,0.773,0.062c0.25,0.02,0.493,0.04,0.716,0.062c0.226,0.02,0.436,0.039,0.62,0.062
			c0.183,0.02,0.34,0.038,0.47,0.062c0.132,0.017,0.231,0.038,0.299,0.058c0.067,0.021,0.101,0.042,0.101,0.062
			c0,0.021-0.033,0.042-0.101,0.06c-0.067,0.021-0.167,0.044-0.299,0.062c-0.13,0.021-0.287,0.042-0.47,0.062
			c-0.185,0.021-0.395,0.041-0.62,0.062c-0.223,0.021-0.466,0.038-0.716,0.061c-0.252,0.02-0.512,0.039-0.773,0.061
			c-0.257,0.021-0.52,0.04-0.771,0.062c-0.251,0.021-0.49,0.04-0.716,0.062c-0.227,0.017-0.433,0.04-0.617,0.06
			c-0.184,0.019-0.343,0.041-0.474,0.062c-0.128,0.019-0.229,0.041-0.296,0.058c-0.067,0.022-0.104,0.042-0.104,0.062
			c0,0.022,0.036,0.042,0.104,0.062c0.066,0.021,0.168,0.038,0.296,0.062c0.131,0.02,0.29,0.038,0.474,0.062
			c0.185,0.019,0.391,0.038,0.617,0.062c0.226,0.019,0.465,0.038,0.716,0.062c0.251,0.017,0.514,0.038,0.771,0.058
			c0.262,0.02,0.521,0.042,0.773,0.062c0.25,0.02,0.493,0.042,0.716,0.059c0.226,0.022,0.436,0.045,0.62,0.062
			c0.183,0.022,0.34,0.041,0.47,0.061c0.132,0.023,0.231,0.042,0.299,0.062c0.067,0.022,0.101,0.04,0.101,0.062
			c0,0.02-0.033,0.04-0.101,0.062c-0.067,0.02-0.167,0.038-0.299,0.062c-0.13,0.02-0.287,0.038-0.47,0.062
			c-0.185,0.017-0.395,0.038-0.62,0.058c-0.223,0.021-0.466,0.042-0.716,0.062c-0.252,0.021-0.512,0.042-0.773,0.06
			c-0.257,0.021-0.52,0.042-0.771,0.062c-0.251,0.021-0.49,0.042-0.716,0.062c-0.227,0.021-0.433,0.038-0.617,0.062
			c-0.184,0.019-0.343,0.038-0.474,0.062c-0.128,0.019-0.229,0.038-0.296,0.06c-0.067,0.021-0.104,0.04-0.104,0.062
			c0,0.018,0.036,0.04,0.104,0.06c0.066,0.019,0.168,0.042,0.296,0.062c0.131,0.019,0.29,0.042,0.474,0.058
			c0.185,0.022,0.391,0.045,0.617,0.062c0.226,0.022,0.465,0.042,0.716,0.062c0.251,0.022,0.514,0.042,0.771,0.062
			c0.262,0.022,0.521,0.038,0.773,0.062c0.25,0.02,0.493,0.038,0.716,0.062c0.226,0.02,0.436,0.038,0.62,0.062
			c0.183,0.019,0.34,0.038,0.47,0.062c0.132,0.017,0.231,0.038,0.299,0.058s0.101,0.042,0.101,0.062s-0.033,0.042-0.101,0.059
			c-0.067,0.022-0.167,0.041-0.299,0.062c-0.13,0.022-0.287,0.041-0.47,0.062c-0.185,0.022-0.395,0.039-0.62,0.061
			c-0.223,0.021-0.466,0.04-0.716,0.062c-0.252,0.021-0.512,0.04-0.773,0.062c-0.257,0.02-0.52,0.04-0.771,0.062
			c-0.251,0.017-0.49,0.04-0.716,0.059c-0.227,0.02-0.433,0.041-0.617,0.062c-0.184,0.02-0.343,0.041-0.474,0.059
			c-0.128,0.022-0.229,0.044-0.296,0.062c-0.067,0.022-0.104,0.042-0.104,0.062c0,0.021,0.036,0.042,0.104,0.062
			c0.066,0.021,0.168,0.038,0.296,0.062c0.131,0.019,0.29,0.038,0.474,0.061c0.185,0.02,0.391,0.039,0.617,0.061
			c0.226,0.021,0.465,0.04,0.716,0.062c0.251,0.017,0.514,0.04,0.771,0.06c0.262,0.019,0.521,0.042,0.773,0.062
			c0.25,0.019,0.493,0.042,0.716,0.058c0.226,0.022,0.436,0.042,0.62,0.062c0.183,0.022,0.34,0.042,0.47,0.062
			c0.132,0.022,0.231,0.04,0.299,0.062c0.067,0.02,0.101,0.04,0.101,0.062c0,0.02-0.033,0.038-0.101,0.062
			c-0.067,0.019-0.167,0.038-0.299,0.062c-0.13,0.017-0.287,0.038-0.47,0.058c-0.185,0.021-0.395,0.042-0.62,0.062
			c-0.223,0.02-0.466,0.042-0.716,0.059c-0.252,0.022-0.512,0.045-0.773,0.062c-0.257,0.022-0.52,0.041-0.771,0.062
			c-0.251,0.022-0.49,0.041-0.716,0.062c-0.227,0.022-0.433,0.039-0.617,0.061c-0.184,0.021-0.343,0.04-0.474,0.062
			c-0.128,0.021-0.229,0.04-0.296,0.062c-0.067,0.02-0.104,0.04-0.104,0.06c0,0.019,0.036,0.042,0.104,0.061
			c0.066,0.02,0.168,0.041,0.296,0.062c0.131,0.02,0.29,0.041,0.474,0.059c0.185,0.022,0.391,0.042,0.617,0.062
			c0.226,0.022,0.465,0.042,0.716,0.062c0.251,0.022,0.514,0.038,0.771,0.062c0.262,0.019,0.521,0.038,0.773,0.062
			c0.25,0.019,0.493,0.038,0.716,0.062c0.226,0.019,0.436,0.038,0.62,0.061c0.183,0.016,0.34,0.039,0.47,0.059
			c0.132,0.02,0.231,0.042,0.299,0.062c0.067,0.019,0.101,0.042,0.101,0.059c0,0.021-0.033,0.045-0.101,0.062
			c-0.067,0.021-0.167,0.041-0.299,0.061c-0.13,0.022-0.287,0.042-0.47,0.062c-0.185,0.022-0.395,0.04-0.62,0.062
			c-0.223,0.02-0.466,0.04-0.716,0.062c-0.252,0.02-0.512,0.04-0.773,0.062c-0.257,0.02-0.52,0.038-0.771,0.059
			c-0.251,0.02-0.49,0.041-0.716,0.062c-0.227,0.02-0.433,0.041-0.617,0.061c-0.184,0.021-0.343,0.042-0.474,0.059
			c-0.128,0.022-0.229,0.043-0.296,0.062c-0.067,0.022-0.104,0.043-0.104,0.062c0,0.022,0.036,0.039,0.104,0.062
			c0.066,0.02,0.168,0.039,0.296,0.062c0.131,0.02,0.29,0.039,0.474,0.061c0.185,0.021,0.391,0.04,0.617,0.062
			c0.226,0.017,0.465,0.04,0.716,0.059c0.251,0.02,0.514,0.043,0.771,0.062c0.262,0.02,0.521,0.041,0.773,0.059
			c0.25,0.022,0.493,0.044,0.716,0.062c0.226,0.022,0.436,0.042,0.62,0.062c0.183,0.022,0.34,0.042,0.47,0.062
			c0.132,0.022,0.231,0.038,0.299,0.062c0.067,0.019,0.101,0.038,0.101,0.062c0,0.019-0.033,0.038-0.101,0.061
			c-0.067,0.02-0.167,0.039-0.299,0.059c-0.13,0.02-0.287,0.042-0.47,0.062c-0.185,0.019-0.395,0.042-0.62,0.062
			c-0.223,0.019-0.466,0.042-0.716,0.059c-0.252,0.021-0.512,0.041-0.773,0.062c-0.257,0.021-0.52,0.041-0.771,0.061
			c-0.251,0.022-0.49,0.04-0.716,0.062c-0.227,0.022-0.433,0.04-0.617,0.062c-0.184,0.02-0.343,0.04-0.474,0.062
			c-0.128,0.02-0.229,0.04-0.296,0.062c-0.067,0.017-0.104,0.038-0.104,0.059c0,0.02,0.036,0.041,0.104,0.062
			c0.066,0.02,0.168,0.041,0.296,0.059c0.131,0.022,0.29,0.044,0.474,0.061c0.185,0.023,0.391,0.043,0.617,0.062
			c0.226,0.022,0.465,0.043,0.716,0.062c0.251,0.022,0.514,0.039,0.771,0.062c0.262,0.02,0.521,0.039,0.773,0.062
			c0.25,0.02,0.493,0.039,0.716,0.062c0.226,0.016,0.436,0.039,0.62,0.059c0.183,0.019,0.34,0.042,0.47,0.062
			c0.132,0.019,0.231,0.042,0.299,0.061c0.067,0.02,0.101,0.043,0.101,0.059c0,0.022-0.033,0.042-0.101,0.062
			c-0.067,0.022-0.167,0.042-0.299,0.062c-0.13,0.022-0.287,0.039-0.47,0.062c-0.185,0.022-0.395,0.039-0.62,0.062
			c-0.223,0.019-0.466,0.038-0.716,0.062c-0.252,0.019-0.512,0.038-0.773,0.062c-0.257,0.017-0.52,0.038-0.771,0.058
			c-0.251,0.021-0.49,0.042-0.716,0.062c-0.227,0.021-0.433,0.042-0.617,0.062c-0.184,0.019-0.343,0.042-0.474,0.059
			c-0.128,0.021-0.229,0.041-0.296,0.062c-0.067,0.021-0.104,0.041-0.104,0.062c0,0.021,0.036,0.039,0.104,0.061
			c0.066,0.021,0.168,0.04,0.296,0.062c0.131,0.021,0.29,0.04,0.474,0.062c0.185,0.017,0.391,0.04,0.617,0.059
			c0.226,0.02,0.465,0.041,0.716,0.062c0.251,0.02,0.514,0.041,0.771,0.062c0.262,0.02,0.521,0.041,0.773,0.058
			c0.25,0.023,0.493,0.043,0.716,0.062c0.226,0.023,0.436,0.043,0.62,0.062c0.183,0.022,0.34,0.039,0.47,0.062
			c0.132,0.022,0.231,0.039,0.299,0.062c0.067,0.02,0.101,0.039,0.101,0.062c0,0.02-0.033,0.039-0.101,0.062
			c-0.067,0.016-0.167,0.039-0.299,0.059c-0.13,0.019-0.287,0.042-0.47,0.061c-0.185,0.02-0.395,0.043-0.62,0.063
			c-0.223,0.019-0.466,0.042-0.716,0.058c-0.252,0.022-0.512,0.042-0.773,0.062c-0.257,0.022-0.52,0.042-0.771,0.062
			c-0.251,0.022-0.49,0.039-0.716,0.062c-0.227,0.019-0.433,0.039-0.617,0.062c-0.184,0.019-0.343,0.038-0.474,0.062
			c-0.128,0.017-0.229,0.038-0.296,0.059c-0.067,0.02-0.104,0.041-0.104,0.061c0,0.021,0.036,0.042,0.104,0.062
			c0.066,0.021,0.168,0.042,0.296,0.059c0.131,0.022,0.29,0.042,0.474,0.062c0.185,0.021,0.391,0.042,0.617,0.062
			c0.226,0.021,0.465,0.039,0.716,0.062c0.251,0.021,0.514,0.039,0.771,0.062c0.262,0.02,0.521,0.039,0.773,0.061
			c0.25,0.021,0.493,0.04,0.716,0.062c0.226,0.017,0.436,0.04,0.62,0.059c0.183,0.02,0.34,0.043,0.47,0.062
			c0.132,0.02,0.231,0.042,0.299,0.062s0.101,0.041,0.101,0.059c0,0.022-0.033,0.042-0.101,0.061
			c-0.067,0.023-0.167,0.043-0.299,0.062c-0.13,0.023-0.287,0.039-0.47,0.062c-0.185,0.02-0.395,0.039-0.62,0.062
			c-0.223,0.02-0.466,0.039-0.716,0.062c-0.252,0.018-0.512,0.039-0.773,0.059c-0.257,0.021-0.52,0.042-0.771,0.062
			c-0.251,0.019-0.49,0.042-0.716,0.062c-0.227,0.019-0.433,0.042-0.617,0.059c-0.184,0.021-0.343,0.041-0.474,0.062
			c-0.128,0.021-0.229,0.041-0.296,0.062c-0.067,0.021-0.104,0.038-0.104,0.061s0.036,0.039,0.104,0.062
			c0.066,0.019,0.168,0.039,0.296,0.062c0.131,0.019,0.29,0.039,0.474,0.062c0.185,0.017,0.391,0.038,0.617,0.059
			c0.226,0.02,0.465,0.041,0.716,0.061c0.251,0.021,0.514,0.042,0.771,0.062c0.262,0.021,0.521,0.042,0.773,0.059
			c0.25,0.021,0.493,0.042,0.716,0.062c0.226,0.021,0.436,0.042,0.62,0.062c0.183,0.021,0.34,0.039,0.47,0.062
			c0.132,0.02,0.231,0.039,0.299,0.062c0.067,0.02,0.101,0.039,0.101,0.061c0,0.017-0.033,0.04-0.101,0.059
			c-0.067,0.02-0.167,0.043-0.299,0.062c-0.13,0.02-0.287,0.042-0.47,0.062c-0.185,0.02-0.395,0.043-0.62,0.059
			c-0.223,0.022-0.466,0.042-0.716,0.061c-0.252,0.023-0.512,0.043-0.773,0.062c-0.257,0.023-0.52,0.04-0.771,0.062
			c-0.251,0.023-0.49,0.039-0.716,0.062c-0.227,0.02-0.433,0.039-0.617,0.062c-0.184,0.02-0.343,0.039-0.474,0.062
			c-0.128,0.018-0.229,0.039-0.296,0.059c-0.067,0.021-0.104,0.042-0.104,0.062c0,0.019,0.036,0.042,0.104,0.061
			c0.066,0.02,0.168,0.04,0.296,0.06c0.131,0.021,0.29,0.041,0.474,0.062c0.185,0.021,0.391,0.041,0.617,0.062
			c0.226,0.021,0.465,0.038,0.716,0.061c0.251,0.021,0.514,0.039,0.771,0.062c0.262,0.021,0.521,0.039,0.773,0.062
			c0.25,0.017,0.493,0.039,0.716,0.059c0.226,0.02,0.436,0.042,0.62,0.062c0.183,0.02,0.34,0.041,0.47,0.062
			c0.132,0.02,0.231,0.041,0.299,0.058c0.067,0.023,0.101,0.043,0.101,0.062c0,0.023-0.033,0.042-0.101,0.062
			c-0.067,0.021-0.167,0.039-0.299,0.062c-0.13,0.021-0.287,0.039-0.47,0.062c-0.185,0.02-0.395,0.039-0.62,0.062
			c-0.223,0.02-0.466,0.039-0.716,0.062c-0.252,0.016-0.512,0.039-0.773,0.058c-0.257,0.02-0.52,0.043-0.771,0.062
			c-0.251,0.02-0.49,0.043-0.716,0.062c-0.227,0.02-0.433,0.039-0.617,0.06c-0.184,0.021-0.343,0.041-0.474,0.061
			c-0.128,0.022-0.229,0.042-0.296,0.061c-0.067,0.023-0.104,0.04-0.104,0.062c0,0.02,0.036,0.04,0.104,0.062
			c0.066,0.02,0.168,0.039,0.296,0.062c0.131,0.018,0.29,0.039,0.474,0.06c0.185,0.02,0.391,0.041,0.617,0.061
			c0.226,0.021,0.465,0.042,0.716,0.062c0.251,0.019,0.514,0.042,0.771,0.059c0.262,0.021,0.521,0.042,0.773,0.062
			c0.25,0.021,0.493,0.041,0.716,0.062c0.226,0.021,0.436,0.038,0.62,0.062c0.183,0.021,0.34,0.038,0.47,0.061
			c0.132,0.021,0.231,0.039,0.299,0.062c0.067,0.021,0.101,0.039,0.101,0.062c0,0.017-0.033,0.039-0.101,0.059
			s-0.167,0.042-0.299,0.062c-0.13,0.02-0.287,0.041-0.47,0.062c-0.185,0.02-0.395,0.039-0.62,0.058
			c-0.223,0.023-0.466,0.042-0.716,0.062c-0.252,0.023-0.512,0.043-0.773,0.062c-0.257,0.023-0.52,0.039-0.771,0.062
			c-0.251,0.02-0.49,0.039-0.716,0.062c-0.227,0.02-0.433,0.039-0.617,0.062c-0.184,0.017-0.343,0.039-0.474,0.058
			c-0.128,0.02-0.229,0.043-0.296,0.062c-0.067,0.02-0.104,0.043-0.104,0.062c0,0.02,0.036,0.042,0.104,0.06
			c0.066,0.021,0.168,0.041,0.296,0.062c0.131,0.021,0.29,0.041,0.474,0.06c0.185,0.023,0.391,0.04,0.617,0.063
			c0.226,0.022,0.465,0.039,0.716,0.061c0.251,0.02,0.514,0.04,0.771,0.062c0.262,0.02,0.521,0.04,0.773,0.062
			c0.25,0.018,0.493,0.039,0.716,0.06c0.226,0.02,0.436,0.041,0.62,0.062c0.183,0.02,0.34,0.041,0.47,0.058
			c0.132,0.023,0.231,0.042,0.299,0.062c0.067,0.023,0.101,0.042,0.101,0.062c0,0.021-0.033,0.042-0.101,0.062
			c-0.067,0.021-0.167,0.039-0.299,0.062c-0.13,0.02-0.287,0.038-0.47,0.062c-0.185,0.02-0.395,0.038-0.62,0.061
			c-0.223,0.017-0.466,0.039-0.716,0.059c-0.252,0.02-0.512,0.042-0.773,0.062c-0.257,0.02-0.52,0.042-0.771,0.062
			s-0.49,0.041-0.716,0.058c-0.227,0.023-0.433,0.043-0.617,0.062c-0.184,0.023-0.343,0.043-0.474,0.062
			c-0.128,0.023-0.229,0.04-0.296,0.062c-0.067,0.023-0.104,0.04-0.104,0.062c0,0.02,0.036,0.039,0.104,0.062
			c0.066,0.02,0.168,0.039,0.296,0.062c0.131,0.017,0.29,0.039,0.474,0.058c0.185,0.021,0.391,0.043,0.617,0.062
			c0.226,0.02,0.465,0.043,0.716,0.06c0.251,0.021,0.514,0.041,0.771,0.062c0.262,0.021,0.521,0.041,0.773,0.062
			c0.25,0.021,0.493,0.041,0.716,0.061c0.226,0.022,0.436,0.039,0.62,0.061c0.183,0.021,0.34,0.04,0.47,0.062
			c0.132,0.02,0.231,0.04,0.299,0.062c0.067,0.018,0.101,0.04,0.101,0.06s-0.033,0.041-0.101,0.062
			c-0.067,0.02-0.167,0.041-0.299,0.062c-0.13,0.02-0.287,0.041-0.47,0.058c-0.185,0.023-0.395,0.042-0.62,0.062
			c-0.223,0.022-0.466,0.042-0.716,0.062c-0.252,0.021-0.512,0.039-0.773,0.062c-0.257,0.021-0.52,0.038-0.771,0.062
			c-0.251,0.02-0.49,0.038-0.716,0.062c-0.227,0.02-0.433,0.038-0.617,0.062c-0.184,0.016-0.343,0.038-0.474,0.058
			c-0.128,0.02-0.229,0.042-0.296,0.062c-0.067,0.02-0.104,0.042-0.104,0.06c0,0.021,0.036,0.041,0.104,0.06
			c0.066,0.023,0.168,0.043,0.296,0.062c0.131,0.023,0.29,0.042,0.474,0.062c0.185,0.023,0.391,0.04,0.617,0.062
			c0.226,0.02,0.465,0.04,0.716,0.062c0.251,0.02,0.514,0.039,0.771,0.062c0.262,0.017,0.521,0.039,0.773,0.062
			c0.25,0.017,0.493,0.039,0.716,0.058c0.226,0.021,0.436,0.043,0.62,0.062c0.183,0.021,0.34,0.043,0.47,0.06
			c0.132,0.021,0.231,0.042,0.299,0.062c0.067,0.021,0.101,0.042,0.101,0.062c0,0.021-0.033,0.038-0.101,0.062
			c-0.067,0.021-0.167,0.038-0.299,0.062c-0.13,0.019-0.287,0.038-0.47,0.06c-0.185,0.021-0.395,0.04-0.62,0.062
			c-0.223,0.018-0.466,0.04-0.716,0.06c-0.252,0.02-0.512,0.042-0.773,0.062c-0.257,0.02-0.52,0.041-0.771,0.058
			c-0.251,0.023-0.49,0.042-0.716,0.062c-0.227,0.023-0.433,0.042-0.617,0.062c-0.184,0.023-0.343,0.042-0.474,0.062
			c-0.128,0.021-0.229,0.039-0.296,0.062c-0.067,0.02-0.104,0.039-0.104,0.062c0,0.02,0.036,0.038,0.104,0.062
			c0.066,0.017,0.168,0.038,0.296,0.062c0.131,0.016,0.29,0.038,0.474,0.058c0.185,0.02,0.391,0.042,0.617,0.062
			c0.226,0.02,0.465,0.042,0.716,0.06c0.251,0.021,0.514,0.041,0.771,0.06c0.262,0.023,0.521,0.043,0.773,0.062
			c0.25,0.023,0.493,0.043,0.716,0.062c0.226,0.023,0.436,0.04,0.62,0.062c0.183,0.02,0.34,0.04,0.47,0.062
			c0.132,0.02,0.231,0.039,0.299,0.062c0.067,0.017,0.101,0.039,0.101,0.06c0,0.019-0.033,0.041-0.101,0.06
			c-0.067,0.021-0.167,0.043-0.299,0.06c-0.13,0.022-0.287,0.042-0.47,0.062c-0.185,0.021-0.395,0.042-0.62,0.062
			c-0.223,0.021-0.466,0.042-0.716,0.062c-0.252,0.021-0.512,0.038-0.773,0.062c-0.257,0.019-0.52,0.038-0.771,0.062
			c-0.251,0.02-0.49,0.038-0.716,0.06c-0.227,0.018-0.433,0.04-0.617,0.062c-0.179,0.018-0.334,0.04-0.463,0.057
			c0-20.902,0-41.805,0-62.709"/>
		<polyline fill="none" stroke="#FFFFFF" stroke-linecap="round" stroke-linejoin="round" points="321.611,430.761 330.208,430.307 
			365.831,428.417 		"/>
		
			<line fill="none" stroke="#FFFFFF" stroke-linecap="round" stroke-linejoin="round" x1="365.831" y1="330.19" x2="365.831" y2="212.436"/>
		
			<line fill="none" stroke="#FFFFFF" stroke-linecap="round" stroke-linejoin="round" x1="321.611" y1="264.399" x2="321.611" y2="297.417"/>
		
			<line fill="none" stroke="#FFFFFF" stroke-linecap="round" stroke-linejoin="round" x1="312.251" y1="264.488" x2="312.251" y2="297.582"/>
		<path fill="none" stroke="#FFFFFF" stroke-linecap="round" stroke-linejoin="round" d="M277.179,261.342
			c-1.414-0.223-2.604-1.177-3.129-2.508c-3.575-9.028-7.151-18.058-10.728-27.086c-1.037-2.627,0.865-5.483,3.688-5.54
			c4.329-0.077,8.658-0.161,12.984-0.245c2.211-0.039,3.98-1.85,3.969-4.061c-0.012-3.052-0.022-6.103-0.033-9.155"/>
		
			<line fill="none" stroke="#FFFFFF" stroke-linecap="round" stroke-linejoin="round" x1="282.813" y1="224.747" x2="293.423" y2="225.547"/>
		<path fill="none" stroke="#FFFFFF" stroke-linecap="round" stroke-linejoin="round" d="M293.463,262.904
			c-2.399-0.006-4.798-0.012-7.197-0.015c-1.656-0.002-3.146-1.015-3.759-2.557c-3.699-9.344-7.396-18.688-11.096-28.03
			c-1.049-2.652,0.904-5.533,3.761-5.536c5.126-0.011,10.258-0.017,15.384-0.025c2.243-0.002,4.054-1.824,4.045-4.063
			c-0.014-3.325-0.027-6.644-0.039-9.968"/>
		
			<line fill="none" stroke="#FFFFFF" stroke-linecap="round" stroke-linejoin="round" x1="265.414" y1="226.571" x2="273.327" y2="227.212"/>
		
			<line fill="none" stroke="#FFFFFF" stroke-linecap="round" stroke-linejoin="round" x1="277.018" y1="261.314" x2="285.82" y2="262.89"/>
		<path fill="none" stroke="#FFFFFF" stroke-linecap="round" stroke-linejoin="round" d="M258.252,224.876
			c-0.017,0.002-0.033,0.005-0.057,0.005"/>
		
			<line fill="none" stroke="#FFFFFF" stroke-linecap="round" stroke-linejoin="round" x1="260.784" y1="298.497" x2="260.784" y2="225.121"/>
		<path fill="none" stroke="#FFFFFF" stroke-linecap="round" stroke-linejoin="round" d="M260.784,225.121
			c0,0.031-0.056,0.048-0.075,0.057c-0.078,0.028-0.159,0.045-0.239,0.056c-0.313,0.055-0.629,0.072-0.945,0.091
			c-0.431,0.023-0.86,0.032-1.289,0.032c-0.433,0-0.864-0.009-1.295-0.032c-0.317-0.019-0.631-0.036-0.942-0.091
			c-0.084-0.011-0.162-0.028-0.24-0.056c-0.02-0.008-0.072-0.025-0.072-0.057c0-0.034,0.053-0.049,0.072-0.058
			c0.078-0.032,0.156-0.042,0.24-0.059c0.312-0.05,0.625-0.072,0.942-0.089c0.431-0.022,0.862-0.034,1.295-0.034
			c0.429,0,0.858,0.012,1.289,0.034c0.316,0.017,0.633,0.04,0.945,0.089c0.08,0.017,0.161,0.027,0.239,0.059
			C260.729,225.071,260.784,225.087,260.784,225.121z"/>
		<path fill="none" stroke="#FFFFFF" stroke-linecap="round" stroke-linejoin="round" d="M421.008,369.417c0-0.259,0-0.519,0-0.78
			c0-0.513,0.474-0.896,0.976-0.792c3.47,0.731,7.048,0.739,10.521,0.033c0.502-0.103,0.971,0.279,0.971,0.792
			c0,0.259,0,0.52,0,0.781c0,0.38-0.266,0.709-0.637,0.792c-3.692,0.801-7.514,0.79-11.195-0.036
			C421.27,370.126,421.008,369.797,421.008,369.417z"/>
		<path fill="none" stroke="#FFFFFF" stroke-linecap="round" stroke-linejoin="round" d="M423.576,351.765
			c-0.022,0.005-0.041,0.014-0.061,0.02c-0.087,0.025-0.132,0.053-0.132,0.078c0,0.028,0.045,0.056,0.132,0.083
			c0.086,0.028,0.211,0.054,0.376,0.079c0.168,0.027,0.368,0.056,0.603,0.083c0.231,0.029,0.496,0.053,0.78,0.082
			c0.285,0.024,0.595,0.052,0.913,0.081c0.32,0.027,0.649,0.053,0.979,0.08c0.329,0.024,0.658,0.054,0.976,0.081
			c0.32,0.027,0.628,0.056,0.915,0.081c0.285,0.025,0.548,0.053,0.781,0.081c0.234,0.027,0.436,0.055,0.603,0.08
			c0.162,0.025,0.29,0.054,0.377,0.081s0.128,0.056,0.128,0.081c0,0.027-0.041,0.053-0.128,0.08
			c-0.087,0.028-0.215,0.057-0.377,0.085c-0.167,0.025-0.368,0.049-0.603,0.078c-0.233,0.027-0.496,0.056-0.781,0.083
			c-0.287,0.025-0.595,0.05-0.915,0.078c-0.317,0.028-0.646,0.056-0.976,0.084c-0.329,0.025-0.658,0.053-0.979,0.078
			c-0.318,0.027-0.628,0.056-0.913,0.083c-0.284,0.028-0.549,0.053-0.78,0.078c-0.234,0.028-0.435,0.056-0.603,0.084
			c-0.165,0.028-0.29,0.053-0.376,0.08c-0.087,0.025-0.132,0.054-0.132,0.082s0.045,0.054,0.132,0.081
			c0.086,0.025,0.211,0.053,0.376,0.081c0.168,0.027,0.368,0.053,0.603,0.08c0.231,0.025,0.496,0.054,0.78,0.081
			c0.285,0.027,0.595,0.056,0.913,0.081c0.32,0.027,0.649,0.053,0.979,0.081c0.329,0.027,0.658,0.055,0.976,0.08
			c0.32,0.028,0.628,0.054,0.915,0.081c0.285,0.027,0.548,0.057,0.781,0.084c0.234,0.024,0.436,0.05,0.603,0.077
			c0.162,0.029,0.29,0.057,0.377,0.085c0.087,0.025,0.128,0.053,0.128,0.078c0,0.027-0.041,0.056-0.128,0.083
			c-0.087,0.025-0.215,0.054-0.377,0.079c-0.167,0.027-0.368,0.055-0.603,0.083c-0.233,0.027-0.496,0.053-0.781,0.078
			c-0.287,0.027-0.595,0.056-0.915,0.083c-0.317,0.029-0.646,0.053-0.976,0.082c-0.329,0.024-0.658,0.052-0.979,0.081
			c-0.318,0.027-0.628,0.053-0.913,0.081c-0.284,0.023-0.549,0.053-0.78,0.08c-0.234,0.028-0.435,0.056-0.603,0.081
			c-0.165,0.025-0.29,0.053-0.376,0.081c-0.087,0.027-0.132,0.056-0.132,0.08c0,0.028,0.045,0.054,0.132,0.081
			c0.086,0.028,0.211,0.056,0.376,0.081c0.168,0.027,0.368,0.053,0.603,0.081c0.231,0.027,0.496,0.057,0.78,0.084
			c0.285,0.025,0.595,0.05,0.913,0.077c0.32,0.029,0.649,0.057,0.979,0.084c0.329,0.025,0.658,0.05,0.976,0.079
			c0.32,0.027,0.628,0.055,0.915,0.083c0.285,0.025,0.548,0.053,0.781,0.078c0.234,0.028,0.436,0.056,0.603,0.083
			c0.162,0.028,0.29,0.054,0.377,0.079c0.087,0.027,0.128,0.055,0.128,0.083s-0.041,0.053-0.128,0.078
			c-0.087,0.027-0.215,0.056-0.377,0.084c-0.167,0.028-0.368,0.054-0.603,0.081c-0.233,0.025-0.496,0.053-0.781,0.081
			c-0.011,0-0.017,0-0.025,0"/>
		<path fill="none" stroke="#FFFFFF" stroke-linecap="round" stroke-linejoin="round" d="M432.443,366.979
			c0.003-0.045-0.027-0.089-0.084-0.137"/>
		
			<line fill="none" stroke="#FFFFFF" stroke-linecap="round" stroke-linejoin="round" x1="336.55" y1="299.782" x2="226.778" y2="301.579"/>
		
			<line fill="none" stroke="#FFFFFF" stroke-linecap="round" stroke-linejoin="round" x1="226.778" y1="355.076" x2="432.314" y2="346.859"/>
		
			<line fill="none" stroke="#FFFFFF" stroke-linecap="round" stroke-linejoin="round" x1="269.596" y1="359.521" x2="394.194" y2="354.54"/>
		<path fill="none" stroke="#FFFFFF" stroke-linecap="round" stroke-linejoin="round" d="M226.778,365.14
			c10.295-0.414,20.59-0.826,30.882-1.236c0.446-0.019,0.798-0.147,1.149-0.416c3.222-2.472,7.135-3.862,11.19-3.981"/>
		<path fill="none" stroke="#FFFFFF" stroke-linecap="round" stroke-linejoin="round" d="M261.205,435.979
			c0.89,0.05,1.774,0.114,2.652,0.279c0.263,0.05,0.522,0.094,0.771,0.211c0.067,0.034,0.212,0.112,0.161,0.212
			c-0.032,0.06-0.08,0.084-0.134,0.112c-0.089,0.05-0.189,0.081-0.289,0.111c-0.346,0.1-0.703,0.156-1.063,0.206
			c-1.576,0.212-3.74,0.273-5.324,0.268c-1.495-0.005-3.835-0.081-5.322-0.34c-0.278-0.05-0.555-0.101-0.819-0.215
			c-0.067-0.027-0.242-0.103-0.206-0.212c0.016-0.058,0.062-0.081,0.104-0.108c0.085-0.051,0.174-0.084,0.269-0.112
			c0.334-0.105,0.675-0.162,1.021-0.209c0.885-0.125,1.769-0.187,2.661-0.226"/>
		<path fill="none" stroke="#FFFFFF" stroke-linecap="round" stroke-linejoin="round" d="M307.241,178.969
			c0.433-12.317,0.736-24.641,1.004-36.96c0.257-11.823,0.48-23.644,0.748-35.464c0.119-5.303,0.248-10.603,0.403-15.904
			c0.138-4.668,0.293-9.337,0.5-14.002c0.15-3.465,0.324-6.929,0.553-10.39c0.17-2.591,0.368-5.18,0.613-7.764
			c0.195-2.076,0.422-4.148,0.702-6.214c0.18-1.31,0.38-2.615,0.626-3.914c0.122-0.664,0.256-1.326,0.406-1.984
			c0.129-0.546,0.266-1.092,0.419-1.631c0.075-0.256,0.15-0.511,0.234-0.763c0.215-0.651,1.094-0.758,1.455-0.177
			c0.215,0.343,0.419,0.695,0.611,1.05c0.374,0.685,0.718,1.387,1.041,2.097c0.557,1.223,1.054,2.473,1.522,3.732
			c0.775,2.099,1.459,4.23,2.081,6.379c0.712,2.442,1.345,4.905,1.913,7.384c0.636,2.781,1.194,5.581,1.685,8.393
			c0.546,3.109,1.016,6.23,1.426,9.359c0.463,3.521,0.855,7.049,1.201,10.583c0.397,4.015,0.729,8.037,1.024,12.06
			c0.337,4.582,0.628,9.166,0.884,13.753c0.279,5.026,0.521,10.058,0.72,15.089c0.209,5.205,0.373,10.41,0.491,15.617
			c0.111,5.106,0.179,10.213,0.179,15.32c0,4.731-0.051,9.461-0.199,14.192"/>
		<path fill="none" stroke="#FFFFFF" stroke-linecap="round" stroke-linejoin="round" d="M304.41,178.871
			c1.355-38.731,1.559-81.856,2.891-107.333c1.329-25.479,3.79-33.316,7.042-32.235c3.258,1.079,7.305,11.077,10.223,23.348
			c2.914,12.271,4.7,26.816,6.065,47.684c1.368,20.868,2.319,48.053,1.685,68.56"/>
		<path fill="none" stroke="#FFFFFF" stroke-linecap="round" stroke-linejoin="round" d="M155.805,177.981
			c0.597-7.116,1.618-14.198,3.073-21.189c1.456-6.985,3.353-13.88,5.677-20.629c2.349-6.829,5.135-13.508,8.313-19.992
			c3.258-6.642,6.926-13.08,10.939-19.291c4.196-6.486,8.767-12.727,13.637-18.722c1.76-2.165,3.557-4.297,5.402-6.39
			c1.734-1.972,3.515-3.91,5.339-5.8c1.813-1.879,3.671-3.711,5.587-5.486c1.894-1.755,3.84-3.452,5.849-5.074
			c1.98-1.6,4.022-3.124,6.131-4.552c2.062-1.395,4.187-2.697,6.382-3.873c2.132-1.144,4.328-2.167,6.591-3.036
			c2.22-0.854,4.499-1.558,6.822-2.072c2.323-0.514,4.688-0.841,7.065-0.95c2.41-0.111,4.831,0,7.221,0.34
			c1.978,0.282,3.931,0.721,5.844,1.293c1.902,0.569,3.766,1.269,5.575,2.089c1.844,0.835,3.629,1.792,5.342,2.863
			c1.727,1.077,3.38,2.267,4.942,3.569c1.553,1.295,3.018,2.701,4.368,4.209c0.965,1.079,1.869,2.213,2.713,3.391
			c0.796,1.105,1.532,2.253,2.221,3.429c1.37,2.341,2.538,4.8,3.54,7.323c0.499,1.261,0.96,2.538,1.381,3.827
			c0.783,2.383,1.447,4.807,2.021,7.249c0.62,2.64,1.138,5.3,1.591,7.972c0.223,1.314,0.431,2.631,0.63,3.949
			c0.181,1.207,0.354,2.415,0.519,3.625c0.32,2.337,0.613,4.68,0.875,7.024c0.514,4.583,0.918,9.179,1.213,13.781
			c0.289,4.508,0.478,9.022,0.575,13.54c0.096,4.461,0.104,8.924,0.048,13.387c-0.056,4.487-0.179,8.976-0.349,13.461
			c-0.134,3.555-0.298,7.112-0.468,10.671c-0.177,3.664-0.361,7.329-0.542,10.997"/>
		<path fill="none" stroke="#FFFFFF" stroke-linecap="round" stroke-linejoin="round" d="M158.627,178.217
			c2.992-35.629,16.465-68.286,41.531-98.9c16.229-19.824,37.319-38.791,59.901-35.153c8.905,1.436,18.04,6.385,24.204,13.553
			c8.362,9.725,11.257,23.535,13.132,36.456c3.509,24.211,3.447,45.306,2.44,68.157c-0.176,4.011-0.382,8.078-0.803,16.585"/>
		
			<line fill="none" stroke="#FFFFFF" stroke-linecap="round" stroke-linejoin="round" x1="226.778" y1="435.784" x2="312.251" y2="431.254"/>
		<path fill="none" stroke="#FFFFFF" stroke-linecap="round" stroke-linejoin="round" d="M289.279,492.93
			c3.336-0.168,6.671-0.338,10.011-0.508c0.446-0.023,0.828,0.32,0.85,0.767c0.067,1.311,0.134,2.622,0.201,3.933
			c0.022,0.446-0.324,0.826-0.771,0.852c-3.336,0.166-6.671,0.338-10.007,0.508c-0.446,0.021-0.828-0.321-0.851-0.769
			c-0.066-1.311-0.135-2.621-0.2-3.929C288.489,493.333,288.833,492.954,289.279,492.93z"/>
		<path fill="none" stroke="#FFFFFF" stroke-linecap="round" stroke-linejoin="round" d="M383.046,474.984
			c6.566-4.857,15.827-3.468,20.682,3.101c4.856,6.566,3.468,15.825-3.101,20.68c-6.568,4.855-15.829,3.467-20.683-3.103
			C375.092,489.097,376.48,479.837,383.046,474.984z"/>
		<circle fill="none" stroke="#FFFFFF" stroke-linecap="round" stroke-linejoin="round" cx="392.598" cy="477.842" r="3.072"/>
		<circle fill="none" stroke="#FFFFFF" stroke-linecap="round" stroke-linejoin="round" cx="391.835" cy="486.874" r="13.219"/>
		<path fill="none" stroke="#FFFFFF" stroke-linecap="round" stroke-linejoin="round" d="M316.851,479.723
			c0,7.829,0,15.661,0,23.493c0,0.468,0.399,0.842,0.869,0.806c15.579-1.171,31.153-2.34,46.733-3.511
			c0.422-0.034,0.747-0.385,0.747-0.81c0-7.55,0-15.101,0-22.653c0-0.467-0.389-0.838-0.855-0.809
			c-15.577,0.892-31.152,1.784-46.733,2.677C317.185,478.938,316.851,479.293,316.851,479.723z"/>
		<path fill="none" stroke="#FFFFFF" stroke-linecap="round" stroke-linejoin="round" d="M226.778,375.06
			c69.892-2.791,139.783-5.586,209.673-8.38c1.085-0.045,1.943-0.938,1.943-2.023c0-1.958,0-3.913,0-5.871
			c0-1.148-0.956-2.069-2.104-2.025c-10.313,0.414-20.623,0.826-30.936,1.238c-0.474,0.02-0.848-0.089-1.236-0.359
			c-3.285-2.281-7.257-3.355-11.242-3.045"/>
		<path fill="none" stroke="#FFFFFF" stroke-linecap="round" stroke-linejoin="round" d="M421.216,459.219
			c7.902,0.438,15.617-2.482,21.252-8.043c5.628-5.558,8.651-13.238,8.317-21.144c0-70.399,0-140.801,0-211.204
			c0.287-3.746-2.783-6.892-6.538-6.694c-70.151,0.271-140.302,0.539-210.457,0.809"/>
		<path fill="none" stroke="#FFFFFF" stroke-linecap="round" stroke-linejoin="round" d="M234.521,212.938
			c-4.351-0.195-7.932,3.38-7.742,7.732c0,73.908,0,147.817,0,221.725c2.391,15.942,16.693,27.329,32.765,26.079
			c53.891-3.085,107.783-6.17,161.673-9.255c15.55-0.714,27.731-13.622,27.544-29.187c0-70.399,0-140.801,0-211.204
			c0.151-2.984-1.69-5.712-4.513-6.694"/>
		
			<line fill="none" stroke="#FFFFFF" stroke-linecap="round" stroke-linejoin="round" x1="475.979" y1="517.254" x2="475.979" y2="178.82"/>
		
			<line fill="none" stroke="#FFFFFF" stroke-linecap="round" stroke-linejoin="round" x1="200.549" y1="536.123" x2="200.549" y2="178.965"/>
		<path fill="none" stroke="#FFFFFF" stroke-linecap="round" stroke-linejoin="round" d="M255.686,298.589
			c0-24.49,0-48.979,0-73.468c-0.005,0-0.005,0-0.011,0c-0.128,0.02-0.229,0.04-0.296,0.062c-0.067,0.02-0.104,0.04-0.104,0.062
			c0,0.019,0.036,0.039,0.104,0.059c0.066,0.02,0.168,0.041,0.296,0.062c0.131,0.019,0.29,0.041,0.474,0.06
			c0.185,0.021,0.391,0.042,0.617,0.059c0.226,0.023,0.465,0.042,0.716,0.062c0.251,0.022,0.514,0.042,0.771,0.062
			c0.262,0.022,0.521,0.039,0.773,0.062c0.25,0.02,0.493,0.039,0.716,0.062c0.226,0.02,0.436,0.039,0.62,0.062
			c0.183,0.02,0.34,0.039,0.47,0.061c0.132,0.017,0.231,0.04,0.299,0.059c0.067,0.02,0.101,0.042,0.101,0.062
			c0,0.02-0.033,0.042-0.101,0.058c-0.067,0.023-0.167,0.044-0.299,0.062c-0.13,0.023-0.287,0.042-0.47,0.062
			c-0.185,0.023-0.395,0.042-0.62,0.062c-0.223,0.023-0.466,0.04-0.716,0.062c-0.252,0.019-0.512,0.039-0.773,0.062
			c-0.257,0.019-0.52,0.039-0.771,0.061c-0.251,0.02-0.49,0.039-0.716,0.058c-0.227,0.021-0.433,0.042-0.617,0.062
			c-0.184,0.021-0.343,0.042-0.474,0.062c-0.128,0.019-0.229,0.042-0.296,0.059c-0.067,0.021-0.104,0.041-0.104,0.062
			c0,0.021,0.036,0.041,0.104,0.062c0.066,0.021,0.168,0.039,0.296,0.06c0.131,0.021,0.29,0.04,0.474,0.062
			c0.185,0.021,0.391,0.04,0.617,0.062c0.226,0.02,0.465,0.04,0.716,0.062c0.251,0.017,0.514,0.039,0.771,0.059
			c0.262,0.02,0.521,0.041,0.773,0.062c0.25,0.019,0.493,0.041,0.716,0.058c0.226,0.023,0.436,0.045,0.62,0.062
			c0.183,0.023,0.34,0.042,0.47,0.062c0.132,0.022,0.231,0.042,0.299,0.062c0.067,0.022,0.101,0.039,0.101,0.062
			c0,0.02-0.033,0.039-0.101,0.062c-0.067,0.02-0.167,0.039-0.299,0.062c-0.13,0.016-0.287,0.039-0.47,0.058
			c-0.185,0.019-0.395,0.042-0.62,0.061c-0.223,0.02-0.466,0.042-0.716,0.062c-0.252,0.02-0.512,0.042-0.773,0.058
			c-0.257,0.023-0.52,0.042-0.771,0.062c-0.251,0.023-0.49,0.042-0.716,0.062c-0.227,0.023-0.433,0.04-0.617,0.062
			c-0.184,0.019-0.343,0.04-0.474,0.062c-0.128,0.019-0.229,0.039-0.296,0.062c-0.067,0.019-0.104,0.039-0.104,0.062
			c0,0.017,0.036,0.039,0.104,0.058c0.066,0.021,0.168,0.042,0.296,0.062c0.131,0.021,0.29,0.042,0.474,0.059
			c0.185,0.021,0.391,0.044,0.617,0.062c0.226,0.021,0.465,0.042,0.716,0.062c0.251,0.021,0.514,0.041,0.771,0.062
			c0.262,0.021,0.521,0.039,0.773,0.062c0.25,0.019,0.493,0.039,0.716,0.06c0.226,0.021,0.436,0.04,0.62,0.062
			c0.183,0.017,0.34,0.04,0.47,0.059c0.132,0.02,0.231,0.042,0.299,0.062s0.101,0.042,0.101,0.062c0,0.019-0.033,0.041-0.101,0.058
			c-0.067,0.023-0.167,0.042-0.299,0.062c-0.13,0.023-0.287,0.042-0.47,0.062c-0.185,0.023-0.395,0.039-0.62,0.062
			c-0.223,0.02-0.466,0.039-0.716,0.062c-0.252,0.02-0.512,0.039-0.773,0.062c-0.257,0.02-0.52,0.039-0.771,0.062
			c-0.251,0.017-0.49,0.039-0.716,0.058c-0.227,0.019-0.433,0.042-0.617,0.061c-0.184,0.02-0.343,0.042-0.474,0.06
			c-0.128,0.021-0.229,0.044-0.296,0.061c-0.067,0.022-0.104,0.041-0.104,0.062c0,0.022,0.036,0.041,0.104,0.061
			c0.066,0.023,0.168,0.04,0.296,0.062c0.131,0.019,0.29,0.04,0.474,0.062c0.185,0.019,0.391,0.04,0.617,0.062
			c0.226,0.017,0.465,0.039,0.716,0.059c0.251,0.019,0.514,0.041,0.771,0.06c0.262,0.021,0.521,0.042,0.773,0.062
			c0.25,0.021,0.493,0.042,0.716,0.059c0.226,0.021,0.436,0.042,0.62,0.062c0.183,0.021,0.34,0.042,0.47,0.062
			c0.132,0.021,0.231,0.039,0.299,0.062c0.067,0.019,0.101,0.039,0.101,0.062c0,0.019-0.033,0.039-0.101,0.06
			c-0.067,0.021-0.167,0.04-0.299,0.062c-0.13,0.017-0.287,0.04-0.47,0.059c-0.185,0.02-0.395,0.042-0.62,0.062
			c-0.223,0.02-0.466,0.042-0.716,0.058c-0.252,0.022-0.512,0.044-0.773,0.061c-0.257,0.023-0.52,0.042-0.771,0.062
			c-0.251,0.023-0.49,0.042-0.716,0.062c-0.227,0.023-0.433,0.039-0.617,0.062c-0.184,0.02-0.343,0.039-0.474,0.062
			c-0.128,0.02-0.229,0.039-0.296,0.062c-0.067,0.017-0.104,0.039-0.104,0.058c0,0.021,0.036,0.042,0.104,0.062
			c0.066,0.019,0.168,0.042,0.296,0.061c0.131,0.02,0.29,0.042,0.474,0.06c0.185,0.021,0.391,0.041,0.617,0.061
			c0.226,0.022,0.465,0.041,0.716,0.062c0.251,0.022,0.514,0.039,0.771,0.061c0.262,0.023,0.521,0.04,0.773,0.062
			c0.25,0.021,0.493,0.04,0.716,0.062c0.226,0.019,0.436,0.04,0.62,0.062c0.183,0.017,0.34,0.04,0.47,0.059
			c0.132,0.019,0.231,0.041,0.299,0.062c0.067,0.019,0.101,0.041,0.101,0.062c0,0.019-0.033,0.041-0.101,0.058
			c-0.067,0.023-0.167,0.042-0.299,0.062c-0.13,0.021-0.287,0.042-0.47,0.062c-0.185,0.021-0.395,0.039-0.62,0.062
			c-0.223,0.019-0.466,0.039-0.716,0.062c-0.252,0.019-0.512,0.039-0.773,0.062c-0.257,0.016-0.52,0.039-0.771,0.058
			c-0.251,0.02-0.49,0.042-0.716,0.062c-0.227,0.02-0.433,0.042-0.617,0.062c-0.184,0.02-0.343,0.042-0.474,0.059
			c-0.128,0.022-0.229,0.041-0.296,0.06c-0.067,0.023-0.104,0.042-0.104,0.062c0,0.023,0.036,0.04,0.104,0.062
			c0.066,0.023,0.168,0.04,0.296,0.062c0.131,0.02,0.29,0.039,0.474,0.062c0.185,0.02,0.391,0.039,0.617,0.062
			c0.226,0.017,0.465,0.039,0.716,0.058c0.251,0.021,0.514,0.042,0.771,0.062c0.262,0.019,0.521,0.042,0.773,0.061
			c0.25,0.02,0.493,0.04,0.716,0.06c0.226,0.021,0.436,0.041,0.62,0.061c0.183,0.022,0.34,0.041,0.47,0.062
			c0.132,0.022,0.231,0.039,0.299,0.061c0.067,0.021,0.101,0.04,0.101,0.062c0,0.021-0.033,0.04-0.101,0.062
			c-0.067,0.017-0.167,0.04-0.299,0.059c-0.13,0.019-0.287,0.042-0.47,0.062c-0.185,0.019-0.395,0.041-0.62,0.062
			c-0.223,0.019-0.466,0.041-0.716,0.058c-0.252,0.023-0.512,0.042-0.773,0.062c-0.257,0.023-0.52,0.042-0.771,0.062
			c-0.251,0.023-0.49,0.039-0.716,0.062c-0.227,0.021-0.433,0.039-0.617,0.062c-0.184,0.019-0.343,0.039-0.474,0.062
			c-0.128,0.019-0.229,0.039-0.296,0.062c-0.067,0.016-0.104,0.039-0.104,0.058c0,0.02,0.036,0.042,0.104,0.062
			c0.066,0.02,0.168,0.042,0.296,0.062c0.131,0.02,0.29,0.039,0.474,0.059c0.185,0.022,0.391,0.041,0.617,0.06
			c0.226,0.023,0.465,0.042,0.716,0.062c0.251,0.023,0.514,0.04,0.771,0.062c0.262,0.02,0.521,0.04,0.773,0.062
			c0.25,0.02,0.493,0.04,0.716,0.062c0.226,0.017,0.436,0.039,0.62,0.059c0.183,0.02,0.34,0.041,0.47,0.062
			c0.132,0.02,0.231,0.041,0.299,0.061c0.067,0.021,0.101,0.042,0.101,0.059c0,0.022-0.033,0.042-0.101,0.062
			c-0.067,0.021-0.167,0.042-0.299,0.061c-0.13,0.022-0.287,0.039-0.47,0.062c-0.185,0.022-0.395,0.039-0.62,0.062
			c-0.223,0.02-0.466,0.039-0.716,0.061c-0.252,0.021-0.512,0.04-0.773,0.062c-0.257,0.017-0.52,0.04-0.771,0.059
			c-0.251,0.019-0.49,0.042-0.716,0.062c-0.227,0.019-0.433,0.041-0.617,0.062c-0.184,0.019-0.343,0.039-0.474,0.058
			c-0.128,0.023-0.229,0.042-0.296,0.062c-0.067,0.023-0.104,0.042-0.104,0.062c0,0.023,0.036,0.04,0.104,0.062
			c0.066,0.019,0.168,0.039,0.296,0.062c0.131,0.019,0.29,0.039,0.474,0.062c0.185,0.017,0.391,0.039,0.617,0.058
			c0.226,0.021,0.465,0.042,0.716,0.062c0.251,0.02,0.514,0.042,0.771,0.062c0.262,0.02,0.521,0.042,0.773,0.059
			c0.25,0.022,0.493,0.041,0.716,0.062c0.226,0.022,0.436,0.041,0.62,0.06c0.183,0.023,0.34,0.04,0.47,0.062
			c0.132,0.023,0.231,0.04,0.299,0.062c0.067,0.02,0.101,0.04,0.101,0.062c0,0.02-0.033,0.04-0.101,0.062
			c-0.067,0.017-0.167,0.039-0.299,0.059c-0.13,0.02-0.287,0.041-0.47,0.062c-0.185,0.02-0.395,0.041-0.62,0.058
			c-0.223,0.023-0.466,0.042-0.716,0.062c-0.252,0.022-0.512,0.042-0.773,0.062c-0.257,0.021-0.52,0.042-0.771,0.061
			c-0.251,0.022-0.49,0.039-0.716,0.062c-0.227,0.02-0.433,0.039-0.617,0.062c-0.184,0.02-0.343,0.039-0.474,0.062
			c-0.128,0.016-0.229,0.039-0.296,0.058c-0.067,0.019-0.104,0.042-0.104,0.062c0,0.019,0.036,0.042,0.104,0.062
			c0.066,0.019,0.168,0.042,0.296,0.058c0.131,0.023,0.29,0.042,0.474,0.062c0.185,0.023,0.391,0.042,0.617,0.062
			c0.226,0.023,0.465,0.04,0.716,0.062c0.251,0.023,0.514,0.04,0.771,0.062c0.262,0.019,0.521,0.039,0.773,0.062
			c0.25,0.019,0.493,0.039,0.716,0.062c0.226,0.017,0.436,0.039,0.62,0.058c0.183,0.021,0.34,0.042,0.47,0.062
			c0.132,0.021,0.231,0.042,0.299,0.059c0.067,0.022,0.101,0.042,0.101,0.062c0,0.022-0.033,0.042-0.101,0.062
			c-0.067,0.022-0.167,0.041-0.299,0.062c-0.13,0.021-0.287,0.039-0.47,0.062c-0.185,0.019-0.395,0.039-0.62,0.06
			c-0.223,0.021-0.466,0.04-0.716,0.062c-0.252,0.017-0.512,0.04-0.773,0.059c-0.257,0.02-0.52,0.042-0.771,0.062
			c-0.251,0.02-0.49,0.041-0.716,0.062c-0.227,0.02-0.433,0.041-0.617,0.058c-0.184,0.023-0.343,0.042-0.474,0.062
			c-0.128,0.022-0.229,0.042-0.296,0.062c-0.067,0.021-0.104,0.039-0.104,0.062c0,0.021,0.036,0.038,0.104,0.061
			c0.066,0.02,0.168,0.039,0.296,0.062c0.131,0.02,0.29,0.039,0.474,0.062c0.185,0.016,0.391,0.039,0.617,0.058
			c0.226,0.019,0.465,0.042,0.716,0.062c0.251,0.019,0.514,0.042,0.771,0.059c0.262,0.021,0.521,0.041,0.773,0.062
			c0.25,0.021,0.493,0.041,0.716,0.06c0.226,0.023,0.436,0.042,0.62,0.062c0.183,0.023,0.34,0.04,0.47,0.062
			c0.132,0.02,0.231,0.04,0.299,0.062c0.067,0.019,0.101,0.039,0.101,0.062c0,0.017-0.033,0.039-0.101,0.059
			c-0.067,0.019-0.167,0.041-0.299,0.06c-0.13,0.021-0.287,0.042-0.47,0.062c-0.185,0.021-0.395,0.042-0.62,0.059
			c-0.223,0.022-0.466,0.042-0.716,0.062c-0.252,0.022-0.512,0.042-0.773,0.062c-0.257,0.022-0.52,0.039-0.771,0.062
			c-0.251,0.021-0.49,0.039-0.716,0.062c-0.227,0.019-0.433,0.039-0.617,0.06c-0.184,0.021-0.343,0.04-0.474,0.062
			c-0.128,0.017-0.229,0.04-0.296,0.059c-0.067,0.02-0.104,0.042-0.104,0.062c0,0.02,0.036,0.042,0.104,0.058
			c0.066,0.023,0.168,0.042,0.296,0.062c0.131,0.023,0.29,0.042,0.474,0.062c0.185,0.023,0.391,0.042,0.617,0.062
			c0.226,0.022,0.465,0.039,0.716,0.062c0.251,0.019,0.514,0.038,0.771,0.061c0.262,0.02,0.521,0.039,0.773,0.062
			c0.25,0.017,0.493,0.039,0.716,0.058c0.226,0.021,0.436,0.042,0.62,0.062c0.183,0.019,0.34,0.042,0.47,0.062
			c0.132,0.019,0.231,0.042,0.299,0.059c0.067,0.021,0.101,0.041,0.101,0.062c0,0.021-0.033,0.041-0.101,0.062
			c-0.067,0.021-0.167,0.039-0.299,0.06c-0.13,0.023-0.287,0.04-0.47,0.062c-0.185,0.021-0.395,0.04-0.62,0.062
			c-0.223,0.019-0.466,0.04-0.716,0.062c-0.252,0.017-0.512,0.039-0.773,0.059c-0.257,0.019-0.52,0.041-0.771,0.062
			c-0.251,0.019-0.49,0.041-0.716,0.058c-0.227,0.023-0.433,0.042-0.617,0.062c-0.184,0.022-0.343,0.042-0.474,0.062
			c-0.128,0.022-0.229,0.042-0.296,0.062c-0.067,0.022-0.104,0.039-0.104,0.062c0,0.019,0.036,0.039,0.104,0.062
			c0.066,0.019,0.168,0.039,0.296,0.06c0.131,0.017,0.29,0.04,0.474,0.059c0.185,0.02,0.391,0.042,0.617,0.062
			c0.226,0.02,0.465,0.042,0.716,0.062c0.251,0.02,0.514,0.042,0.771,0.058c0.262,0.023,0.521,0.042,0.773,0.062
			c0.25,0.023,0.493,0.042,0.716,0.062c0.226,0.023,0.436,0.04,0.62,0.062c0.183,0.019,0.34,0.039,0.47,0.062
			c0.132,0.019,0.231,0.038,0.299,0.061c0.067,0.02,0.101,0.039,0.101,0.062c0,0.017-0.033,0.039-0.101,0.058
			c-0.067,0.021-0.167,0.042-0.299,0.062c-0.13,0.019-0.287,0.042-0.47,0.059c-0.185,0.021-0.395,0.042-0.62,0.062
			c-0.223,0.021-0.466,0.041-0.716,0.062c-0.252,0.021-0.512,0.041-0.773,0.062c-0.257,0.021-0.52,0.039-0.771,0.06
			c-0.251,0.021-0.49,0.04-0.716,0.062c-0.227,0.021-0.433,0.04-0.617,0.062c-0.184,0.017-0.343,0.04-0.474,0.059
			c-0.128,0.019-0.229,0.042-0.296,0.062c-0.067,0.019-0.104,0.041-0.104,0.062c0,0.019,0.036,0.041,0.104,0.058
			c0.066,0.023,0.168,0.042,0.296,0.062c0.131,0.023,0.29,0.042,0.474,0.062c0.185,0.023,0.391,0.039,0.617,0.062
			c0.226,0.02,0.465,0.039,0.716,0.062c0.251,0.019,0.514,0.039,0.771,0.062c0.262,0.019,0.521,0.039,0.773,0.062
			c0.25,0.016,0.493,0.039,0.716,0.058c0.226,0.02,0.436,0.042,0.62,0.062c0.183,0.02,0.34,0.042,0.47,0.059
			c0.132,0.022,0.231,0.041,0.299,0.062c0.067,0.022,0.101,0.041,0.101,0.061c0,0.023-0.033,0.042-0.101,0.062
			c-0.067,0.023-0.167,0.04-0.299,0.062c-0.13,0.019-0.287,0.04-0.47,0.062c-0.185,0.019-0.395,0.04-0.62,0.061
			c-0.223,0.017-0.466,0.039-0.716,0.062c-0.252,0.017-0.512,0.039-0.773,0.058c-0.257,0.021-0.52,0.042-0.771,0.062
			c-0.251,0.021-0.49,0.042-0.716,0.059c-0.227,0.021-0.433,0.042-0.617,0.062c-0.184,0.021-0.343,0.041-0.474,0.062
			c-0.128,0.021-0.229,0.041-0.296,0.062c-0.067,0.019-0.104,0.039-0.104,0.06c0,0.021,0.036,0.04,0.104,0.062
			c0.066,0.021,0.168,0.04,0.296,0.062c0.131,0.017,0.29,0.04,0.474,0.059c0.185,0.019,0.391,0.042,0.617,0.062
			c0.226,0.019,0.465,0.041,0.716,0.058c0.251,0.023,0.514,0.042,0.771,0.062c0.262,0.023,0.521,0.042,0.773,0.062
			c0.25,0.023,0.493,0.042,0.716,0.062c0.226,0.023,0.436,0.039,0.62,0.062c0.183,0.02,0.34,0.039,0.47,0.062
			c0.132,0.019,0.231,0.039,0.299,0.062c0.067,0.017,0.101,0.039,0.101,0.062c0,0.016-0.033,0.039-0.101,0.058
			c-0.067,0.02-0.167,0.042-0.299,0.062c-0.13,0.02-0.287,0.042-0.47,0.059c-0.185,0.022-0.395,0.041-0.62,0.062
			c-0.223,0.022-0.466,0.041-0.716,0.061c-0.252,0.023-0.512,0.04-0.773,0.062c-0.257,0.021-0.52,0.04-0.771,0.062
			c-0.251,0.019-0.49,0.04-0.716,0.062c-0.227,0.019-0.433,0.04-0.617,0.061c-0.184,0.017-0.343,0.039-0.474,0.059
			c-0.128,0.02-0.229,0.041-0.296,0.062c-0.067,0.02-0.104,0.041-0.104,0.058c0,0.023,0.036,0.042,0.104,0.062
			c0.066,0.023,0.168,0.042,0.296,0.062c0.131,0.021,0.29,0.042,0.474,0.062c0.185,0.021,0.391,0.039,0.617,0.062
			c0.226,0.019,0.465,0.039,0.716,0.062c0.251,0.019,0.514,0.039,0.771,0.061c0.262,0.016,0.521,0.039,0.773,0.061
			c0.25,0.017,0.493,0.04,0.716,0.059c0.226,0.019,0.436,0.042,0.62,0.062c0.183,0.019,0.34,0.042,0.47,0.058
			c0.132,0.023,0.231,0.042,0.299,0.062c0.067,0.023,0.101,0.042,0.101,0.062c0,0.023-0.033,0.04-0.101,0.062
			c-0.067,0.02-0.167,0.04-0.299,0.062c-0.13,0.02-0.287,0.039-0.47,0.062c-0.185,0.02-0.395,0.039-0.62,0.062
			c-0.223,0.017-0.466,0.039-0.716,0.058c-0.252,0.02-0.512,0.042-0.773,0.061c-0.257,0.02-0.52,0.042-0.771,0.059
			c-0.251,0.022-0.49,0.042-0.716,0.062c-0.227,0.022-0.433,0.041-0.617,0.062c-0.184,0.022-0.343,0.041-0.474,0.062
			c-0.128,0.022-0.229,0.039-0.296,0.061c-0.067,0.021-0.104,0.04-0.104,0.062c0,0.019,0.036,0.04,0.104,0.062
			c0.066,0.017,0.168,0.04,0.296,0.061c0.131,0.017,0.29,0.039,0.474,0.059c0.185,0.02,0.391,0.041,0.617,0.062
			c0.226,0.02,0.465,0.041,0.716,0.058c0.251,0.023,0.514,0.042,0.771,0.062c0.262,0.023,0.521,0.042,0.773,0.062
			c0.25,0.021,0.493,0.039,0.716,0.062c0.226,0.019,0.436,0.039,0.62,0.062c0.183,0.019,0.34,0.039,0.47,0.062
			c0.132,0.019,0.231,0.039,0.299,0.061c0.067,0.016,0.101,0.039,0.101,0.058s-0.033,0.042-0.101,0.062
			c-0.067,0.019-0.167,0.042-0.299,0.059c-0.13,0.021-0.287,0.041-0.47,0.06c-0.185,0.023-0.395,0.042-0.62,0.062
			c-0.223,0.023-0.466,0.042-0.716,0.062c-0.252,0.023-0.512,0.04-0.773,0.062c-0.257,0.02-0.52,0.04-0.771,0.062
			c-0.251,0.02-0.49,0.039-0.716,0.062c-0.227,0.017-0.433,0.039-0.617,0.062c-0.184,0.017-0.343,0.039-0.474,0.058
			c-0.128,0.02-0.229,0.042-0.296,0.061c-0.067,0.021-0.104,0.042-0.104,0.059c0,0.022,0.036,0.042,0.104,0.062
			c0.066,0.022,0.168,0.042,0.296,0.062c0.131,0.022,0.29,0.039,0.474,0.062c0.185,0.02,0.391,0.039,0.617,0.062
			c0.226,0.02,0.465,0.039,0.716,0.061c0.251,0.021,0.514,0.04,0.771,0.062c0.262,0.017,0.521,0.04,0.773,0.059
			c0.25,0.02,0.493,0.042,0.716,0.062c0.226,0.02,0.436,0.041,0.62,0.058c0.183,0.023,0.34,0.042,0.47,0.062
			c0.132,0.023,0.231,0.042,0.299,0.062c0.067,0.023,0.101,0.042,0.101,0.062c0,0.021-0.033,0.039-0.101,0.062
			c-0.067,0.019-0.167,0.039-0.299,0.062c-0.13,0.019-0.287,0.039-0.47,0.062c-0.185,0.017-0.395,0.039-0.62,0.061
			c-0.223,0.017-0.466,0.039-0.716,0.058c-0.252,0.019-0.512,0.042-0.773,0.062c-0.257,0.019-0.52,0.042-0.771,0.059
			c-0.251,0.021-0.49,0.041-0.716,0.062c-0.227,0.021-0.433,0.041-0.617,0.06c-0.184,0.023-0.343,0.04-0.474,0.062
			c-0.128,0.021-0.229,0.04-0.296,0.062c-0.067,0.02-0.104,0.04-0.104,0.062c0,0.02,0.036,0.039,0.104,0.062
			c0.066,0.017,0.168,0.039,0.296,0.059c0.131,0.02,0.29,0.041,0.474,0.061c0.185,0.021,0.391,0.042,0.617,0.059
			c0.226,0.023,0.465,0.042,0.716,0.062c0.251,0.022,0.514,0.042,0.771,0.062c0.262,0.022,0.521,0.042,0.773,0.062
			c0.25,0.022,0.493,0.039,0.716,0.062c0.226,0.02,0.436,0.039,0.62,0.062c0.183,0.02,0.34,0.039,0.47,0.061
			c0.132,0.017,0.231,0.04,0.299,0.059c0.067,0.019,0.101,0.042,0.101,0.061c0,0.02-0.033,0.042-0.101,0.062
			c-0.067,0.02-0.167,0.042-0.299,0.058c-0.13,0.023-0.287,0.042-0.47,0.062c-0.185,0.023-0.395,0.042-0.62,0.062
			c-0.223,0.023-0.466,0.04-0.716,0.062c-0.252,0.019-0.512,0.039-0.773,0.062c-0.257,0.019-0.52,0.039-0.771,0.062
			c-0.251,0.019-0.49,0.039-0.716,0.062c-0.227,0.017-0.433,0.039-0.617,0.058c-0.184,0.021-0.343,0.042-0.474,0.062
			c-0.128,0.019-0.229,0.042-0.296,0.059c-0.067,0.021-0.104,0.042-0.104,0.062c0,0.021,0.036,0.041,0.104,0.062
			c0.066,0.021,0.168,0.041,0.296,0.062c0.131,0.021,0.29,0.039,0.474,0.06c0.185,0.021,0.391,0.04,0.617,0.062
			c0.226,0.021,0.465,0.04,0.716,0.062c0.251,0.017,0.514,0.04,0.771,0.059c0.262,0.02,0.521,0.042,0.773,0.062
			c0.25,0.02,0.493,0.041,0.716,0.062c0.226,0.02,0.436,0.041,0.62,0.058c0.183,0.023,0.34,0.042,0.47,0.062
			c0.132,0.023,0.231,0.042,0.299,0.062c0.067,0.022,0.101,0.039,0.101,0.062c0,0.02-0.033,0.039-0.101,0.062
			c-0.067,0.02-0.167,0.039-0.299,0.062c-0.13,0.02-0.287,0.039-0.47,0.061c-0.185,0.017-0.395,0.04-0.62,0.059
			c-0.223,0.019-0.466,0.042-0.716,0.062c-0.252,0.019-0.512,0.042-0.773,0.059c-0.257,0.021-0.52,0.041-0.771,0.06
			c-0.251,0.023-0.49,0.042-0.716,0.062c-0.227,0.023-0.433,0.042-0.617,0.062c-0.184,0.023-0.343,0.04-0.474,0.062
			c-0.128,0.019-0.229,0.04-0.296,0.062c-0.067,0.019-0.104,0.039-0.104,0.062c0,0.017,0.036,0.039,0.104,0.058
			c0.066,0.021,0.168,0.042,0.296,0.062c0.131,0.021,0.29,0.042,0.474,0.062c0.185,0.019,0.391,0.042,0.617,0.059
			c0.226,0.021,0.465,0.042,0.716,0.062c0.251,0.021,0.514,0.041,0.771,0.062c0.262,0.021,0.521,0.039,0.773,0.062
			c0.25,0.019,0.493,0.039,0.716,0.06c0.226,0.021,0.436,0.04,0.62,0.062c0.183,0.021,0.34,0.04,0.47,0.062
			c0.132,0.017,0.231,0.04,0.299,0.059c0.067,0.02,0.101,0.042,0.101,0.062c0,0.02-0.033,0.041-0.101,0.058
			c-0.067,0.023-0.167,0.042-0.299,0.061c-0.13,0.023-0.287,0.042-0.47,0.062c-0.185,0.023-0.395,0.042-0.62,0.062
			c-0.223,0.023-0.466,0.039-0.716,0.062c-0.252,0.02-0.512,0.039-0.773,0.062c-0.257,0.02-0.52,0.039-0.771,0.062
			c-0.251,0.017-0.49,0.039-0.716,0.058c-0.227,0.019-0.433,0.042-0.617,0.062c-0.184,0.019-0.343,0.042-0.474,0.062
			c-0.128,0.019-0.229,0.042-0.296,0.059c-0.067,0.021-0.104,0.041-0.104,0.061c0,0.022,0.036,0.041,0.104,0.061
			c0.066,0.023,0.168,0.04,0.296,0.062c0.131,0.021,0.29,0.04,0.474,0.062c0.185,0.019,0.391,0.04,0.617,0.062
			c0.226,0.019,0.465,0.04,0.716,0.062c0.251,0.017,0.514,0.039,0.771,0.059c0.262,0.019,0.521,0.041,0.773,0.062
			c0.25,0.019,0.493,0.041,0.716,0.058c0.226,0.023,0.436,0.042,0.62,0.062c0.183,0.021,0.34,0.042,0.47,0.062
			c0.132,0.021,0.231,0.042,0.299,0.062c0.067,0.021,0.101,0.039,0.101,0.062c0,0.019-0.033,0.039-0.101,0.062
			c-0.067,0.019-0.167,0.039-0.299,0.06c-0.13,0.017-0.287,0.04-0.47,0.059c-0.185,0.02-0.395,0.042-0.62,0.062
			c-0.223,0.02-0.466,0.042-0.716,0.062c-0.252,0.02-0.512,0.041-0.773,0.058c-0.257,0.023-0.52,0.042-0.771,0.061
			c-0.251,0.023-0.49,0.042-0.716,0.062c-0.227,0.023-0.433,0.04-0.617,0.062c-0.184,0.02-0.343,0.039-0.474,0.062
			c-0.128,0.02-0.229,0.039-0.296,0.062c-0.067,0.02-0.104,0.039-0.104,0.062c0,0.017,0.036,0.039,0.104,0.058
			c0.066,0.019,0.168,0.042,0.296,0.062c0.131,0.019,0.29,0.042,0.474,0.059c0.185,0.021,0.391,0.044,0.617,0.062
			c0.226,0.021,0.465,0.041,0.716,0.062c0.251,0.021,0.514,0.041,0.771,0.06c0.262,0.023,0.521,0.04,0.773,0.062
			c0.25,0.021,0.493,0.04,0.716,0.062c0.226,0.019,0.436,0.04,0.62,0.062c0.183,0.017,0.34,0.04,0.47,0.059
			c0.132,0.019,0.231,0.041,0.299,0.062c0.067,0.019,0.101,0.041,0.101,0.062c0,0.019-0.033,0.041-0.101,0.058
			c-0.067,0.023-0.167,0.042-0.299,0.062c-0.13,0.023-0.287,0.042-0.47,0.062c-0.185,0.021-0.395,0.039-0.62,0.062
			c-0.223,0.019-0.466,0.039-0.716,0.062c-0.252,0.019-0.512,0.039-0.773,0.062c-0.257,0.016-0.52,0.039-0.771,0.062
			c-0.251,0.016-0.49,0.039-0.716,0.058c-0.227,0.02-0.433,0.042-0.617,0.062c-0.184,0.02-0.343,0.042-0.474,0.059
			c-0.128,0.022-0.229,0.044-0.296,0.061c-0.067,0.023-0.104,0.042-0.104,0.061c0,0.023,0.036,0.042,0.104,0.062
			c0.066,0.023,0.168,0.04,0.296,0.062c0.131,0.02,0.29,0.04,0.474,0.062c0.185,0.02,0.391,0.039,0.617,0.062
			c0.226,0.017,0.465,0.039,0.716,0.059c0.251,0.02,0.514,0.041,0.771,0.061c0.262,0.021,0.521,0.042,0.773,0.062
			c0.25,0.021,0.493,0.042,0.716,0.059c0.226,0.021,0.436,0.042,0.62,0.062c0.183,0.021,0.34,0.041,0.47,0.062
			c0.132,0.021,0.231,0.038,0.299,0.061c0.067,0.02,0.101,0.039,0.101,0.061c0,0.021-0.033,0.04-0.101,0.062
			c-0.067,0.017-0.167,0.04-0.299,0.062c-0.13,0.017-0.287,0.04-0.47,0.059c-0.185,0.019-0.395,0.041-0.62,0.062
			c-0.223,0.019-0.466,0.041-0.716,0.058c-0.252,0.023-0.512,0.045-0.773,0.062c-0.257,0.023-0.52,0.042-0.771,0.062
			c-0.251,0.023-0.49,0.042-0.716,0.062c-0.227,0.021-0.433,0.039-0.617,0.062c-0.184,0.019-0.343,0.039-0.474,0.062
			c-0.128,0.019-0.229,0.039-0.296,0.062c-0.067,0.017-0.104,0.039-0.104,0.058c0,0.02,0.036,0.042,0.104,0.062
			c0.066,0.02,0.168,0.042,0.296,0.062c0.131,0.02,0.29,0.042,0.474,0.059c0.185,0.022,0.391,0.041,0.617,0.061
			c0.226,0.023,0.465,0.042,0.716,0.061c0.251,0.023,0.514,0.04,0.771,0.062c0.262,0.02,0.521,0.04,0.773,0.062
			c0.25,0.02,0.493,0.04,0.716,0.062c0.226,0.02,0.436,0.039,0.62,0.062c0.183,0.017,0.34,0.039,0.47,0.059
			c0.132,0.02,0.231,0.041,0.299,0.061c0.067,0.021,0.101,0.042,0.101,0.059c0,0.023-0.033,0.042-0.101,0.062
			c-0.067,0.021-0.167,0.042-0.299,0.062c-0.13,0.021-0.287,0.042-0.47,0.062c-0.185,0.021-0.395,0.038-0.62,0.061
			c-0.223,0.02-0.466,0.039-0.716,0.062c-0.252,0.02-0.512,0.039-0.773,0.061c-0.257,0.017-0.52,0.04-0.771,0.059
			c-0.251,0.019-0.49,0.042-0.716,0.062c-0.227,0.019-0.433,0.042-0.617,0.062c-0.184,0.019-0.343,0.042-0.474,0.058
			c-0.128,0.023-0.229,0.042-0.296,0.062c-0.067,0.023-0.104,0.042-0.104,0.062c0,0.023,0.036,0.04,0.104,0.062
			c0.066,0.02,0.168,0.039,0.296,0.062c0.131,0.019,0.29,0.039,0.474,0.062c0.185,0.019,0.391,0.039,0.617,0.062
			c0.226,0.017,0.465,0.039,0.716,0.058c0.251,0.021,0.514,0.042,0.771,0.062c0.262,0.02,0.521,0.042,0.773,0.059
			c0.25,0.022,0.493,0.042,0.716,0.062c0.226,0.022,0.436,0.041,0.62,0.062c0.183,0.022,0.34,0.041,0.47,0.061
			c0.132,0.022,0.231,0.04,0.299,0.061c0.067,0.021,0.101,0.04,0.101,0.062c0,0.02-0.033,0.04-0.101,0.062
			c-0.067,0.017-0.167,0.04-0.299,0.059c-0.13,0.02-0.287,0.041-0.47,0.062c-0.185,0.02-0.395,0.041-0.62,0.061
			c-0.223,0.021-0.466,0.042-0.716,0.059c-0.252,0.023-0.512,0.042-0.773,0.062c-0.257,0.021-0.52,0.042-0.771,0.062
			c-0.251,0.021-0.49,0.039-0.716,0.062c-0.227,0.019-0.433,0.038-0.617,0.061c-0.184,0.02-0.343,0.039-0.474,0.062
			c-0.128,0.02-0.229,0.039-0.296,0.061c-0.067,0.017-0.104,0.04-0.104,0.059c0,0.019,0.036,0.042,0.104,0.062
			c0.066,0.019,0.168,0.042,0.296,0.058c0.131,0.023,0.29,0.042,0.474,0.062c0.185,0.023,0.391,0.042,0.617,0.062
			c0.226,0.023,0.465,0.042,0.716,0.062c0.251,0.023,0.514,0.04,0.771,0.062c0.262,0.02,0.521,0.039,0.773,0.062
			c0.25,0.019,0.493,0.039,0.716,0.062c0.226,0.017,0.436,0.039,0.62,0.058c0.183,0.021,0.34,0.042,0.47,0.062
			c0.132,0.021,0.231,0.042,0.299,0.062c0.067,0.02,0.101,0.042,0.101,0.059c0,0.022-0.033,0.042-0.101,0.062
			c-0.067,0.022-0.167,0.041-0.299,0.062c-0.13,0.022-0.287,0.039-0.47,0.062c-0.185,0.019-0.395,0.039-0.62,0.06
			c-0.223,0.021-0.466,0.04-0.716,0.062c-0.252,0.021-0.512,0.04-0.773,0.062c-0.257,0.017-0.52,0.04-0.771,0.059
			c-0.251,0.02-0.49,0.042-0.716,0.062c-0.227,0.02-0.433,0.041-0.617,0.058c-0.184,0.023-0.343,0.042-0.474,0.062
			c-0.128,0.023-0.229,0.042-0.296,0.062c-0.067,0.023-0.104,0.042-0.104,0.062c0,0.021,0.036,0.039,0.104,0.062
			c0.066,0.019,0.168,0.038,0.296,0.061c0.131,0.02,0.29,0.039,0.474,0.062c0.185,0.017,0.391,0.039,0.617,0.058
			c0.226,0.019,0.465,0.042,0.716,0.062c0.251,0.019,0.514,0.042,0.771,0.062c0.262,0.019,0.521,0.042,0.773,0.059
			c0.25,0.021,0.493,0.041,0.716,0.062c0.226,0.021,0.436,0.041,0.62,0.06c0.183,0.023,0.34,0.04,0.47,0.062
			c0.132,0.021,0.231,0.04,0.299,0.062c0.067,0.02,0.101,0.04,0.101,0.062c0,0.019-0.033,0.039-0.101,0.062
			c-0.067,0.017-0.167,0.039-0.299,0.059c-0.13,0.019-0.287,0.041-0.47,0.06c-0.185,0.021-0.395,0.042-0.62,0.059
			c-0.223,0.022-0.466,0.042-0.716,0.062c-0.252,0.022-0.512,0.042-0.773,0.062c-0.257,0.022-0.52,0.041-0.771,0.062
			c-0.251,0.022-0.49,0.039-0.716,0.062c-0.227,0.019-0.433,0.039-0.617,0.06c-0.184,0.021-0.343,0.04-0.474,0.062
			c-0.128,0.017-0.229,0.04-0.296,0.059c-0.067,0.02-0.104,0.042-0.104,0.062c0,0.02,0.036,0.042,0.104,0.062
			c0.066,0.02,0.168,0.041,0.296,0.058c0.131,0.023,0.29,0.042,0.474,0.062c0.185,0.023,0.391,0.042,0.617,0.062
			c0.226,0.023,0.465,0.039,0.716,0.062c0.251,0.019,0.514,0.039,0.771,0.062c0.262,0.019,0.521,0.038,0.773,0.061
			c0.25,0.02,0.493,0.039,0.716,0.062c0.226,0.017,0.436,0.039,0.62,0.058c0.183,0.019,0.34,0.042,0.47,0.062
			c0.132,0.019,0.231,0.042,0.299,0.059c0.067,0.021,0.101,0.041,0.101,0.062c0,0.021-0.033,0.041-0.101,0.062
			c-0.067,0.021-0.167,0.041-0.299,0.06c-0.13,0.023-0.287,0.04-0.47,0.062c-0.185,0.021-0.395,0.04-0.62,0.062
			c-0.223,0.02-0.466,0.04-0.716,0.062c-0.252,0.017-0.512,0.04-0.773,0.059c-0.257,0.019-0.52,0.041-0.771,0.062
			c-0.251,0.019-0.49,0.041-0.716,0.058c-0.227,0.023-0.433,0.045-0.617,0.062c-0.184,0.023-0.343,0.042-0.474,0.062
			c-0.128,0.023-0.229,0.042-0.296,0.062c-0.067,0.022-0.104,0.039-0.104,0.062c0,0.02,0.036,0.039,0.104,0.062
			c0.066,0.02,0.168,0.039,0.296,0.062c0.131,0.019,0.29,0.039,0.474,0.06c0.185,0.017,0.391,0.04,0.617,0.059
			c0.226,0.02,0.465,0.042,0.716,0.062c0.251,0.02,0.514,0.042,0.771,0.059c0.262,0.022,0.521,0.041,0.773,0.061
			c0.25,0.023,0.493,0.042,0.716,0.062c0.226,0.023,0.436,0.042,0.62,0.062c0.183,0.023,0.34,0.04,0.47,0.062
			c0.132,0.019,0.231,0.04,0.299,0.062c0.067,0.019,0.101,0.039,0.101,0.061c0,0.017-0.033,0.039-0.101,0.058
			c-0.067,0.021-0.167,0.042-0.299,0.062c-0.13,0.021-0.287,0.042-0.47,0.059c-0.185,0.021-0.395,0.044-0.62,0.062
			c-0.223,0.021-0.466,0.041-0.716,0.062c-0.252,0.021-0.512,0.041-0.773,0.062c-0.257,0.021-0.52,0.039-0.771,0.06
			c-0.251,0.021-0.49,0.04-0.716,0.062c-0.227,0.021-0.433,0.04-0.617,0.062c-0.184,0.02-0.343,0.04-0.474,0.062
			c-0.128,0.017-0.229,0.04-0.296,0.059c-0.067,0.019-0.104,0.041-0.104,0.062c0,0.019,0.036,0.041,0.104,0.058
			c0.066,0.023,0.168,0.042,0.296,0.062c0.131,0.023,0.29,0.042,0.474,0.062c0.185,0.023,0.391,0.042,0.617,0.062
			c0.226,0.022,0.465,0.039,0.716,0.062c0.251,0.02,0.514,0.039,0.771,0.062c0.262,0.02,0.521,0.039,0.773,0.062
			c0.25,0.016,0.493,0.039,0.716,0.058c0.226,0.019,0.436,0.042,0.62,0.061c0.183,0.02,0.34,0.042,0.47,0.059
			c0.132,0.022,0.231,0.045,0.299,0.062c0.067,0.022,0.101,0.041,0.101,0.061c0,0.023-0.033,0.042-0.101,0.062
			c-0.067,0.023-0.167,0.04-0.299,0.062c-0.13,0.019-0.287,0.04-0.47,0.062c-0.185,0.019-0.395,0.04-0.62,0.062
			c-0.223,0.019-0.466,0.039-0.716,0.061c-0.252,0.017-0.512,0.039-0.773,0.059c-0.257,0.02-0.52,0.041-0.771,0.061
			c-0.251,0.021-0.49,0.042-0.716,0.059c-0.227,0.023-0.433,0.042-0.617,0.062c-0.184,0.021-0.343,0.042-0.474,0.062
			c-0.128,0.021-0.229,0.042-0.296,0.062c-0.067,0.021-0.104,0.039-0.104,0.062c0,0.019,0.036,0.039,0.104,0.062
			c0.066,0.019,0.168,0.039,0.296,0.06c0.131,0.017,0.29,0.04,0.474,0.059c0.185,0.019,0.391,0.042,0.617,0.062
			c0.226,0.019,0.465,0.042,0.716,0.058c0.251,0.023,0.514,0.045,0.771,0.062c0.262,0.023,0.521,0.042,0.773,0.062
			c0.25,0.023,0.493,0.042,0.716,0.062c0.226,0.023,0.436,0.04,0.62,0.062c0.183,0.02,0.34,0.039,0.47,0.062
			c0.132,0.02,0.231,0.039,0.299,0.062c0.067,0.02,0.101,0.039,0.101,0.062c0,0.017-0.033,0.039-0.101,0.058
			c-0.067,0.019-0.167,0.042-0.299,0.061c-0.13,0.02-0.287,0.042-0.47,0.059c-0.185,0.022-0.395,0.041-0.62,0.062
			c-0.223,0.022-0.466,0.041-0.716,0.061c-0.252,0.023-0.512,0.042-0.773,0.062c-0.257,0.023-0.52,0.04-0.771,0.062
			c-0.251,0.019-0.49,0.04-0.716,0.062c-0.227,0.019-0.433,0.04-0.617,0.062c-0.184,0.017-0.343,0.039-0.474,0.059
			c-0.128,0.02-0.229,0.041-0.296,0.062c-0.067,0.02-0.104,0.041-0.104,0.058c0,0.023,0.036,0.044,0.104,0.062
			c0.066,0.023,0.168,0.042,0.296,0.062c0.131,0.021,0.29,0.042,0.474,0.062c0.185,0.021,0.391,0.039,0.617,0.062
			c0.226,0.019,0.465,0.039,0.716,0.062c0.251,0.019,0.514,0.039,0.771,0.062c0.262,0.019,0.521,0.039,0.773,0.06
			c0.25,0.017,0.493,0.04,0.716,0.059c0.226,0.019,0.436,0.042,0.62,0.062c0.183,0.019,0.34,0.042,0.47,0.058
			c0.132,0.022,0.231,0.042,0.299,0.061c0.067,0.023,0.101,0.042,0.101,0.062c0,0.023-0.033,0.042-0.101,0.062
			c-0.067,0.023-0.167,0.04-0.299,0.062c-0.13,0.02-0.287,0.039-0.47,0.062c-0.185,0.02-0.395,0.039-0.62,0.062
			c-0.223,0.017-0.466,0.039-0.716,0.058c-0.252,0.021-0.512,0.042-0.773,0.062c-0.257,0.021-0.52,0.042-0.771,0.061
			c-0.251,0.02-0.49,0.042-0.716,0.059c-0.227,0.022-0.433,0.042-0.617,0.062c-0.184,0.022-0.343,0.041-0.474,0.062
			c-0.128,0.022-0.229,0.039-0.296,0.062c-0.067,0.02-0.104,0.039-0.104,0.061c0,0.021,0.036,0.04,0.104,0.062
			c0.066,0.021,0.168,0.04,0.296,0.062c0.131,0.017,0.29,0.04,0.474,0.059c0.185,0.019,0.391,0.041,0.617,0.061
			c0.226,0.02,0.465,0.041,0.716,0.058c0.251,0.023,0.514,0.042,0.771,0.062c0.262,0.023,0.521,0.042,0.773,0.062
			c0.25,0.021,0.493,0.042,0.716,0.062c0.226,0.021,0.436,0.039,0.62,0.062c0.183,0.019,0.34,0.039,0.47,0.062
			c0.132,0.019,0.231,0.039,0.299,0.062c0.067,0.017,0.101,0.039,0.101,0.058c0,0.02-0.033,0.042-0.101,0.062
			c-0.067,0.02-0.167,0.042-0.299,0.062c-0.13,0.019-0.287,0.042-0.47,0.059c-0.185,0.021-0.395,0.041-0.62,0.06
			c-0.223,0.023-0.466,0.042-0.716,0.062c-0.252,0.023-0.512,0.04-0.773,0.062c-0.257,0.02-0.52,0.04-0.771,0.062
			c-0.251,0.02-0.49,0.039-0.716,0.062c-0.227,0.02-0.433,0.039-0.617,0.062c-0.184,0.017-0.343,0.039-0.474,0.058
			c-0.128,0.021-0.229,0.042-0.296,0.062c-0.067,0.021-0.104,0.042-0.104,0.059c0,0.022,0.036,0.042,0.104,0.062
			c0.066,0.022,0.168,0.042,0.296,0.062c0.131,0.022,0.29,0.041,0.474,0.062c0.185,0.022,0.391,0.039,0.617,0.062
			c0.226,0.02,0.465,0.039,0.716,0.061c0.251,0.021,0.514,0.04,0.771,0.062c0.262,0.017,0.521,0.04,0.773,0.059
			c0.25,0.019,0.493,0.042,0.716,0.062c0.226,0.019,0.436,0.042,0.62,0.061c0.183,0.02,0.34,0.041,0.47,0.058
			c0.132,0.023,0.231,0.042,0.299,0.062c0.067,0.023,0.101,0.042,0.101,0.062c0,0.023-0.033,0.039-0.101,0.062
			c-0.067,0.019-0.167,0.039-0.299,0.062c-0.13,0.019-0.287,0.039-0.47,0.062c-0.185,0.019-0.395,0.039-0.62,0.062
			c-0.223,0.017-0.466,0.039-0.716,0.058c-0.252,0.02-0.512,0.042-0.773,0.062c-0.257,0.02-0.52,0.042-0.771,0.059
			c-0.251,0.021-0.49,0.041-0.716,0.062c-0.227,0.021-0.433,0.041-0.617,0.062c-0.184,0.021-0.343,0.041-0.474,0.06
			c-0.128,0.023-0.229,0.04-0.296,0.062c-0.067,0.021-0.104,0.04-0.104,0.062c0,0.02,0.036,0.04,0.104,0.062
			c0.066,0.017,0.168,0.04,0.296,0.059c0.131,0.02,0.29,0.041,0.474,0.062c0.185,0.02,0.391,0.041,0.617,0.061
			c0.226,0.021,0.465,0.042,0.716,0.059c0.251,0.023,0.514,0.042,0.771,0.062c0.262,0.022,0.521,0.042,0.773,0.062
			c0.25,0.022,0.493,0.039,0.716,0.062c0.226,0.02,0.436,0.039,0.62,0.062c0.183,0.02,0.34,0.039,0.47,0.061
			c0.132,0.021,0.231,0.04,0.299,0.062c0.067,0.017,0.101,0.04,0.101,0.059c0,0.019-0.033,0.042-0.101,0.062
			c-0.067,0.019-0.167,0.042-0.299,0.058c-0.13,0.023-0.287,0.042-0.47,0.062c-0.185,0.023-0.395,0.042-0.62,0.062
			c-0.223,0.023-0.466,0.04-0.716,0.062c-0.252,0.023-0.512,0.04-0.773,0.062c-0.257,0.019-0.52,0.039-0.771,0.062
			c-0.251,0.019-0.49,0.039-0.716,0.062c-0.227,0.017-0.433,0.039-0.617,0.058c-0.184,0.021-0.343,0.042-0.474,0.062
			c-0.128,0.02-0.229,0.042-0.296,0.062c-0.067,0.02-0.104,0.042-0.104,0.059c0,0.021,0.036,0.041,0.104,0.062
			c0.066,0.021,0.168,0.041,0.296,0.062c0.131,0.021,0.29,0.039,0.474,0.06c0.185,0.021,0.391,0.04,0.617,0.062
			c0.226,0.021,0.465,0.04,0.716,0.062c0.251,0.02,0.514,0.04,0.771,0.062c0.262,0.017,0.521,0.04,0.773,0.059
			c0.25,0.02,0.493,0.041,0.716,0.062c0.226,0.02,0.436,0.041,0.62,0.058c0.183,0.023,0.34,0.042,0.47,0.061
			c0.132,0.023,0.231,0.042,0.299,0.062c0.067,0.023,0.101,0.039,0.101,0.062c0,0.022-0.033,0.039-0.101,0.062
			c-0.067,0.02-0.167,0.039-0.299,0.062c-0.13,0.02-0.287,0.039-0.47,0.062c-0.185,0.016-0.395,0.039-0.62,0.058
			c-0.223,0.019-0.466,0.042-0.716,0.062c-0.252,0.019-0.512,0.042-0.773,0.062c-0.257,0.019-0.52,0.042-0.771,0.059
			c-0.251,0.021-0.49,0.041-0.716,0.06c-0.227,0.023-0.433,0.042-0.617,0.062c-0.184,0.023-0.343,0.04-0.474,0.062
			c-0.128,0.019-0.229,0.04-0.296,0.062c-0.067,0.019-0.104,0.04-0.104,0.062c0,0.019,0.036,0.039,0.104,0.062
			c0.066,0.017,0.168,0.039,0.296,0.059c0.131,0.019,0.29,0.041,0.474,0.06c0.185,0.021,0.391,0.042,0.617,0.059
			c0.226,0.022,0.465,0.042,0.716,0.062c0.251,0.021,0.514,0.042,0.771,0.062c0.262,0.021,0.521,0.039,0.773,0.062
			c0.25,0.021,0.493,0.039,0.716,0.06c0.226,0.021,0.436,0.04,0.62,0.062c0.183,0.021,0.34,0.04,0.47,0.062
			c0.132,0.017,0.231,0.04,0.299,0.059c0.067,0.02,0.101,0.042,0.101,0.062c0,0.02-0.033,0.041-0.101,0.062
			c-0.067,0.02-0.167,0.041-0.299,0.058c-0.13,0.023-0.287,0.042-0.47,0.062c-0.185,0.022-0.395,0.042-0.62,0.061
			c-0.223,0.023-0.466,0.039-0.716,0.062c-0.252,0.02-0.512,0.039-0.773,0.062c-0.257,0.02-0.52,0.039-0.771,0.062
			c-0.251,0.02-0.49,0.039-0.716,0.062c-0.227,0.016-0.433,0.039-0.617,0.058c-0.184,0.019-0.343,0.042-0.474,0.062
			c-0.128,0.019-0.229,0.042-0.296,0.059c-0.067,0.021-0.104,0.041-0.104,0.062c0,0.021,0.036,0.041,0.104,0.06
			c0.066,0.023,0.168,0.04,0.296,0.062c0.131,0.023,0.29,0.04,0.474,0.062c0.185,0.019,0.391,0.04,0.617,0.062
			c0.226,0.019,0.465,0.04,0.716,0.062c0.251,0.017,0.514,0.039,0.771,0.059c0.262,0.019,0.521,0.041,0.773,0.062
			c0.25,0.019,0.493,0.041,0.716,0.06c0.226,0.021,0.436,0.042,0.62,0.059c0.183,0.023,0.34,0.042,0.47,0.062
			c0.132,0.021,0.231,0.042,0.299,0.062c0.067,0.021,0.101,0.039,0.101,0.062c0,0.019-0.033,0.039-0.101,0.062
			c-0.067,0.019-0.167,0.039-0.299,0.062c-0.13,0.019-0.287,0.039-0.47,0.058c-0.185,0.02-0.395,0.042-0.62,0.062
			c-0.223,0.02-0.466,0.042-0.716,0.062c-0.252,0.02-0.512,0.042-0.773,0.058c-0.257,0.023-0.52,0.042-0.771,0.062
			c-0.251,0.023-0.49,0.042-0.716,0.062c-0.227,0.022-0.433,0.04-0.617,0.061c-0.184,0.023-0.343,0.04-0.474,0.062
			c-0.128,0.02-0.229,0.039-0.296,0.062c-0.067,0.02-0.104,0.039-0.104,0.062c0,0.017,0.036,0.039,0.104,0.058
			c0.066,0.021,0.168,0.042,0.296,0.062c0.131,0.021,0.29,0.042,0.474,0.062c0.185,0.019,0.391,0.042,0.617,0.059
			c0.226,0.021,0.465,0.041,0.716,0.062c0.251,0.021,0.514,0.041,0.771,0.062c0.262,0.021,0.521,0.038,0.773,0.06
			c0.25,0.021,0.493,0.04,0.716,0.062c0.226,0.021,0.436,0.04,0.62,0.062c0.183,0.019,0.34,0.04,0.47,0.059
			c0.132,0.019,0.231,0.041,0.299,0.062c0.067,0.019,0.101,0.041,0.101,0.062c0,0.019-0.033,0.041-0.101,0.058
			c-0.067,0.023-0.167,0.042-0.299,0.062c-0.13,0.023-0.287,0.042-0.47,0.062c-0.185,0.021-0.395,0.039-0.62,0.062
			c-0.223,0.021-0.466,0.039-0.716,0.062c-0.252,0.019-0.512,0.039-0.773,0.062c-0.257,0.019-0.52,0.039-0.771,0.062
			c-0.251,0.016-0.49,0.039-0.716,0.058c-0.227,0.02-0.433,0.042-0.617,0.062c-0.184,0.02-0.343,0.042-0.474,0.062
			c-0.128,0.02-0.229,0.042-0.296,0.058c-0.067,0.023-0.104,0.042-0.104,0.062c0,0.023,0.036,0.042,0.104,0.062
			c0.066,0.022,0.168,0.04,0.296,0.061c0.131,0.02,0.29,0.04,0.474,0.062c0.185,0.02,0.391,0.039,0.617,0.062
			c0.226,0.02,0.465,0.039,0.716,0.059c0.251,0.02,0.514,0.041,0.771,0.06c0.262,0.021,0.521,0.043,0.773,0.062
			c0.25,0.021,0.493,0.043,0.716,0.06c0.226,0.021,0.436,0.042,0.62,0.062c0.183,0.021,0.34,0.042,0.47,0.062
			c0.132,0.021,0.231,0.038,0.299,0.062c0.067,0.021,0.101,0.038,0.101,0.062c0,0.019-0.033,0.038-0.101,0.06
			c-0.067,0.021-0.167,0.04-0.299,0.062c-0.13,0.018-0.287,0.04-0.47,0.06c-0.185,0.02-0.395,0.042-0.62,0.062
			c-0.223,0.02-0.466,0.042-0.716,0.062c-0.252,0.02-0.512,0.041-0.773,0.058c-0.257,0.023-0.52,0.042-0.771,0.062
			c-0.251,0.023-0.49,0.042-0.716,0.062c-0.227,0.022-0.433,0.039-0.617,0.062c-0.184,0.02-0.343,0.039-0.474,0.062
			c-0.128,0.02-0.229,0.038-0.296,0.062c-0.067,0.02-0.104,0.038-0.104,0.058c0,0.021,0.036,0.042,0.104,0.062
			c0.066,0.02,0.168,0.042,0.296,0.062c0.131,0.02,0.29,0.042,0.474,0.06c0.185,0.021,0.391,0.041,0.617,0.062
			c0.226,0.021,0.465,0.041,0.716,0.06c0.251,0.023,0.514,0.043,0.771,0.062c0.262,0.023,0.521,0.04,0.773,0.062
			c0.25,0.02,0.493,0.04,0.716,0.062c0.226,0.02,0.436,0.04,0.62,0.062c0.183,0.017,0.34,0.039,0.47,0.06
			c0.132,0.019,0.231,0.041,0.299,0.06c0.067,0.021,0.101,0.043,0.101,0.062c0,0.021-0.033,0.043-0.101,0.06
			c-0.067,0.021-0.167,0.042-0.299,0.062c-0.13,0.021-0.287,0.042-0.47,0.062c-0.185,0.021-0.395,0.038-0.62,0.062
			c-0.223,0.019-0.466,0.038-0.716,0.062c-0.252,0.019-0.512,0.038-0.773,0.06c-0.257,0.018-0.52,0.04-0.771,0.062
			c-0.251,0.018-0.49,0.04-0.716,0.06c-0.227,0.02-0.433,0.042-0.617,0.062c-0.184,0.02-0.343,0.042-0.474,0.058
			c-0.128,0.023-0.229,0.042-0.296,0.062c-0.067,0.023-0.104,0.042-0.104,0.062c0,0.023,0.036,0.042,0.104,0.062
			c0.066,0.023,0.168,0.039,0.296,0.062c0.131,0.02,0.29,0.038,0.474,0.062c0.185,0.02,0.391,0.038,0.617,0.062
			c0.226,0.017,0.465,0.038,0.716,0.058c0.251,0.021,0.514,0.042,0.771,0.062c0.262,0.02,0.521,0.042,0.773,0.062
			c0.25,0.02,0.493,0.042,0.716,0.06c0.226,0.021,0.436,0.041,0.62,0.062c0.183,0.021,0.34,0.041,0.47,0.062
			c0.132,0.021,0.231,0.038,0.299,0.06c0.067,0.021,0.101,0.04,0.101,0.062c0,0.021-0.033,0.04-0.101,0.062
			c-0.067,0.018-0.167,0.04-0.299,0.062c-0.13,0.017-0.287,0.04-0.47,0.06c-0.185,0.019-0.395,0.041-0.62,0.062
			c-0.223,0.019-0.466,0.041-0.716,0.058c-0.252,0.022-0.512,0.042-0.773,0.062c-0.257,0.022-0.52,0.042-0.771,0.062
			c-0.251,0.021-0.49,0.042-0.716,0.062c-0.227,0.021-0.433,0.038-0.617,0.062c-0.184,0.02-0.343,0.038-0.474,0.062
			c-0.128,0.019-0.229,0.038-0.296,0.062c-0.067,0.016-0.104,0.038-0.104,0.058s0.036,0.042,0.104,0.062
			c0.066,0.02,0.168,0.042,0.296,0.062c0.131,0.02,0.29,0.042,0.474,0.059c0.185,0.022,0.391,0.041,0.617,0.061
			c0.226,0.023,0.465,0.042,0.716,0.062c0.251,0.023,0.514,0.04,0.771,0.062c0.262,0.02,0.521,0.04,0.773,0.062
			c0.25,0.02,0.493,0.039,0.716,0.062c0.226,0.017,0.436,0.038,0.62,0.062c0.183,0.017,0.34,0.038,0.47,0.058
			c0.132,0.021,0.231,0.042,0.299,0.062s0.101,0.042,0.101,0.06c0,0.021-0.033,0.042-0.101,0.062
			c-0.067,0.021-0.167,0.041-0.299,0.062c-0.13,0.021-0.287,0.041-0.47,0.062c-0.185,0.021-0.395,0.038-0.62,0.06
			c-0.223,0.021-0.466,0.04-0.716,0.062c-0.252,0.021-0.512,0.04-0.773,0.062c-0.257,0.017-0.52,0.04-0.771,0.06
			c-0.251,0.019-0.49,0.042-0.716,0.062c-0.227,0.019-0.433,0.041-0.617,0.062c-0.184,0.019-0.343,0.041-0.474,0.058
			c-0.128,0.022-0.229,0.042-0.296,0.062c-0.067,0.022-0.104,0.042-0.104,0.062c0,0.022,0.036,0.038,0.104,0.062
			c0.066,0.02,0.168,0.038,0.296,0.062c0.131,0.02,0.29,0.038,0.474,0.062c0.185,0.017,0.391,0.038,0.617,0.062
			c0.226,0.016,0.465,0.038,0.716,0.058s0.514,0.042,0.771,0.062c0.262,0.02,0.521,0.042,0.773,0.059
			c0.25,0.022,0.493,0.041,0.716,0.062c0.226,0.022,0.436,0.041,0.62,0.061c0.183,0.023,0.34,0.042,0.47,0.062
			c0.132,0.023,0.231,0.04,0.299,0.062c0.067,0.02,0.101,0.04,0.101,0.062c0,0.02-0.033,0.04-0.101,0.062
			c-0.067,0.017-0.167,0.039-0.299,0.059c-0.13,0.02-0.287,0.041-0.47,0.062c-0.185,0.02-0.395,0.041-0.62,0.061
			c-0.223,0.021-0.466,0.042-0.716,0.06c-0.252,0.022-0.512,0.042-0.773,0.062c-0.257,0.021-0.52,0.042-0.771,0.062
			c-0.251,0.021-0.49,0.038-0.716,0.062c-0.227,0.019-0.433,0.038-0.617,0.062c-0.184,0.019-0.343,0.038-0.474,0.06
			c-0.128,0.018-0.229,0.04-0.296,0.062c-0.067,0.018-0.104,0.04-0.104,0.06c0,0.019,0.036,0.042,0.104,0.062
			c0.066,0.019,0.168,0.041,0.296,0.058c0.131,0.022,0.29,0.042,0.474,0.062c0.185,0.022,0.391,0.042,0.617,0.062
			c0.226,0.022,0.465,0.042,0.716,0.062c0.251,0.022,0.514,0.04,0.771,0.062c0.262,0.02,0.521,0.038,0.773,0.062
			c0.25,0.02,0.493,0.038,0.716,0.062c0.226,0.017,0.436,0.038,0.62,0.058c0.183,0.021,0.34,0.042,0.47,0.062
			c0.132,0.02,0.231,0.042,0.299,0.062s0.101,0.038,0.101,0.059c0,0.022-0.033,0.041-0.101,0.062
			c-0.067,0.022-0.167,0.041-0.299,0.061c-0.13,0.023-0.287,0.04-0.47,0.062c-0.185,0.021-0.395,0.04-0.62,0.062
			c-0.223,0.02-0.466,0.04-0.716,0.062c-0.252,0.017-0.512,0.04-0.773,0.062c-0.257,0.017-0.52,0.038-0.771,0.059
			c-0.251,0.02-0.49,0.041-0.716,0.062c-0.227,0.02-0.433,0.041-0.617,0.059c-0.184,0.022-0.343,0.042-0.474,0.062
			c-0.128,0.022-0.229,0.042-0.296,0.062c-0.067,0.021-0.104,0.042-0.104,0.062c0,0.021,0.036,0.038,0.104,0.062
			c0.066,0.019,0.168,0.038,0.296,0.062c0.131,0.019,0.29,0.038,0.474,0.062c0.185,0.016,0.391,0.038,0.617,0.058
			c0.226,0.019,0.465,0.042,0.716,0.062c0.251,0.019,0.514,0.042,0.771,0.062c0.262,0.019,0.521,0.038,0.773,0.058
			c0.25,0.022,0.493,0.042,0.716,0.062c0.226,0.022,0.436,0.042,0.62,0.062c0.183,0.022,0.34,0.04,0.47,0.062
			c0.132,0.02,0.231,0.04,0.299,0.062c0.067,0.02,0.101,0.038,0.101,0.062c0,0.017-0.033,0.038-0.101,0.062
			c-0.067,0.017-0.167,0.038-0.299,0.058c-0.13,0.021-0.287,0.042-0.47,0.062c-0.185,0.021-0.395,0.042-0.62,0.059
			c-0.223,0.022-0.466,0.043-0.716,0.062c-0.252,0.022-0.512,0.043-0.773,0.062c-0.257,0.022-0.52,0.041-0.771,0.062
			c-0.251,0.022-0.49,0.039-0.716,0.061c-0.227,0.021-0.433,0.04-0.617,0.062c-0.184,0.021-0.343,0.04-0.474,0.062
			c-0.128,0.017-0.229,0.04-0.296,0.06c-0.067,0.019-0.104,0.042-0.104,0.061c0,0.02,0.036,0.041,0.104,0.062
			c0.066,0.02,0.168,0.039,0.296,0.059c0.131,0.022,0.29,0.042,0.474,0.062c0.185,0.022,0.391,0.042,0.617,0.062
			c0.226,0.021,0.465,0.038,0.716,0.062c0.251,0.019,0.514,0.038,0.771,0.062c0.262,0.019,0.521,0.038,0.773,0.062
			c0.25,0.017,0.493,0.038,0.716,0.061c0.226,0.017,0.436,0.039,0.62,0.059c0.183,0.02,0.34,0.042,0.47,0.062
			c0.132,0.019,0.231,0.042,0.299,0.059c0.067,0.021,0.101,0.041,0.101,0.061c0,0.022-0.033,0.042-0.101,0.062
			c-0.067,0.022-0.167,0.042-0.299,0.062c-0.13,0.022-0.287,0.04-0.47,0.062c-0.185,0.02-0.395,0.04-0.62,0.062
			c-0.223,0.02-0.466,0.038-0.716,0.062c-0.252,0.017-0.512,0.038-0.773,0.059c-0.257,0.02-0.52,0.041-0.771,0.061
			c-0.251,0.021-0.49,0.042-0.716,0.059c-0.227,0.023-0.433,0.043-0.617,0.062c-0.184,0.022-0.343,0.043-0.474,0.062
			c-0.128,0.022-0.229,0.043-0.296,0.062c-0.067,0.022-0.104,0.039-0.104,0.062c0,0.02,0.036,0.039,0.104,0.062
			c0.066,0.02,0.168,0.039,0.296,0.061c0.131,0.017,0.29,0.04,0.474,0.062c0.185,0.017,0.391,0.04,0.617,0.06
			c0.226,0.019,0.465,0.042,0.716,0.062c0.251,0.019,0.514,0.042,0.771,0.058c0.262,0.022,0.521,0.042,0.773,0.062
			c0.25,0.022,0.493,0.042,0.716,0.062c0.226,0.022,0.436,0.042,0.62,0.062c0.183,0.022,0.34,0.038,0.47,0.062
			c0.132,0.019,0.231,0.038,0.299,0.062c0.067,0.019,0.101,0.038,0.101,0.062c0,0.017-0.033,0.038-0.101,0.058
			c-0.067,0.021-0.167,0.042-0.299,0.062c-0.13,0.02-0.287,0.042-0.47,0.059c-0.185,0.021-0.395,0.042-0.62,0.062
			c-0.223,0.021-0.466,0.041-0.716,0.062c-0.252,0.021-0.512,0.041-0.773,0.062c-0.257,0.021-0.52,0.039-0.771,0.061
			c-0.251,0.021-0.49,0.04-0.716,0.062c-0.227,0.02-0.433,0.04-0.617,0.062c-0.184,0.017-0.343,0.04-0.474,0.062
			c-0.128,0.017-0.229,0.038-0.296,0.059c-0.067,0.02-0.104,0.041-0.104,0.062c0,0.02,0.036,0.041,0.104,0.059
			c0.066,0.022,0.168,0.042,0.296,0.061c0.131,0.022,0.29,0.043,0.474,0.062c0.185,0.022,0.391,0.043,0.617,0.062
			c0.226,0.022,0.465,0.039,0.716,0.062c0.251,0.02,0.514,0.039,0.771,0.062c0.262,0.02,0.521,0.039,0.773,0.061
			c0.25,0.017,0.493,0.04,0.716,0.06c0.226,0.019,0.436,0.042,0.62,0.062c0.183,0.019,0.34,0.042,0.47,0.059
			c0.132,0.021,0.231,0.041,0.299,0.061c0.067,0.022,0.101,0.042,0.101,0.062c0,0.022-0.033,0.042-0.101,0.062
			c-0.067,0.022-0.167,0.039-0.299,0.062c-0.13,0.019-0.287,0.038-0.47,0.062c-0.185,0.019-0.395,0.038-0.62,0.062
			c-0.223,0.019-0.466,0.038-0.716,0.062c-0.252,0.017-0.512,0.038-0.773,0.058c-0.257,0.021-0.52,0.042-0.771,0.062
			s-0.49,0.042-0.716,0.059c-0.227,0.021-0.433,0.042-0.617,0.062c-0.184,0.021-0.343,0.041-0.474,0.062
			c-0.128,0.021-0.229,0.041-0.296,0.062c-0.067,0.021-0.104,0.039-0.104,0.061c0,0.021,0.036,0.04,0.104,0.062
			c0.066,0.021,0.168,0.04,0.296,0.062c0.131,0.017,0.29,0.04,0.474,0.059c0.185,0.02,0.391,0.043,0.617,0.062
			c0.226,0.02,0.465,0.041,0.716,0.059c0.251,0.022,0.514,0.044,0.771,0.061c0.262,0.023,0.521,0.043,0.773,0.062
			c0.25,0.023,0.493,0.043,0.716,0.062c0.226,0.023,0.436,0.039,0.62,0.062c0.183,0.02,0.34,0.039,0.47,0.062
			c0.132,0.02,0.231,0.039,0.299,0.062c0.067,0.02,0.101,0.039,0.101,0.062c0,0.016-0.033,0.039-0.101,0.059
			c-0.067,0.019-0.167,0.042-0.299,0.062c-0.13,0.019-0.287,0.042-0.47,0.059c-0.185,0.021-0.395,0.041-0.62,0.062
			c-0.223,0.021-0.466,0.041-0.716,0.061c-0.252,0.022-0.512,0.042-0.773,0.062c-0.257,0.022-0.52,0.039-0.771,0.062
			c-0.251,0.019-0.49,0.039-0.716,0.062c-0.227,0.019-0.433,0.039-0.617,0.062c-0.184,0.017-0.343,0.038-0.474,0.059
			c-0.128,0.02-0.229,0.041-0.296,0.061c-0.067,0.021-0.104,0.042-0.104,0.059c0,0.023,0.036,0.045,0.104,0.062
			c0.066,0.022,0.168,0.042,0.296,0.062c0.131,0.021,0.29,0.041,0.474,0.062c0.185,0.021,0.391,0.039,0.617,0.062
			c0.226,0.02,0.465,0.039,0.716,0.061c0.251,0.021,0.514,0.04,0.771,0.062c0.016,0,0.03,0,0.045,0"/>
		
			<line fill="none" stroke="#FFFFFF" stroke-linecap="round" stroke-linejoin="round" x1="195.458" y1="536.475" x2="195.458" y2="178.965"/>
	</g>
</g>
</svg>
